<svg xmlns="http://www.w3.org/2000/svg" xmlns:xlink="http://www.w3.org/1999/xlink" width="20" height="12" viewBox="0 0 30 18"><defs><path id="g17ra" d="M461.5 9062.12h23.38l-8.05 5.98c-.58.43-.58 1.14 0 1.57.59.44 1.54.44 2.12 0l10.61-7.88.19-.17.06-.09.07-.1c.03-.04.04-.08.05-.12l.04-.1a.85.85 0 0 0 0-.44l-.04-.09-.04-.1-.08-.12-.06-.08a1.24 1.24 0 0 0-.19-.17l-10.6-7.88a1.89 1.89 0 0 0-2.13 0c-.58.43-.58 1.14 0 1.57l8.05 5.98H461.5c-.83 0-1.5.5-1.5 1.12 0 .62.67 1.12 1.5 1.12z"/></defs><g><g transform="translate(-460 -9052)"><use fill="#fff" xlink:href="#g17ra"/></g></g></svg>