<svg xmlns="http://www.w3.org/2000/svg" xmlns:xlink="http://www.w3.org/1999/xlink" width="418" height="696" viewBox="0 0 627 1044"><defs><path id="780da" d="M1548 8667a35 35 0 0 1 35-35h111a35 35 0 0 1 35 35v110a35 35 0 0 1-35 35h-111a35 35 0 0 1-35-35z"/><path id="780db" d="M1536 8883a35 35 0 0 1 35-35h111a35 35 0 0 1 35 35v110a35 35 0 0 1-35 35h-111a35 35 0 0 1-35-35z"/><path id="780dc" d="M1536 9099a35 35 0 0 1 35-35h111a35 35 0 0 1 35 35v110a35 35 0 0 1-35 35h-111a35 35 0 0 1-35-35z"/><path id="780dd" d="M1102 8667a35 35 0 0 1 35-35h111a35 35 0 0 1 35 35v110a35 35 0 0 1-35 35h-111a35 35 0 0 1-35-35z"/><path id="780de" d="M1102 8883a35 35 0 0 1 35-35h111a35 35 0 0 1 35 35v110a35 35 0 0 1-35 35h-111a35 35 0 0 1-35-35z"/><path id="780df" d="M1102 9099a35 35 0 0 1 35-35h111a35 35 0 0 1 35 35v110a35 35 0 0 1-35 35h-111a35 35 0 0 1-35-35z"/><path id="780dg" d="M1319 8883a35 35 0 0 1 35-35h111a35 35 0 0 1 35 35v110a35 35 0 0 1-35 35h-111a35 35 0 0 1-35-35z"/><path id="780dh" d="M1319 9099a35 35 0 0 1 35-35h111a35 35 0 0 1 35 35v110a35 35 0 0 1-35 35h-111a35 35 0 0 1-35-35z"/><path id="780di" d="M1102 8235a35 35 0 0 1 35-35h111a35 35 0 0 1 35 35v110a35 35 0 0 1-35 35h-111a35 35 0 0 1-35-35z"/><path id="780dj" d="M1319 8235a35 35 0 0 1 35-35h111a35 35 0 0 1 35 35v110a35 35 0 0 1-35 35h-111a35 35 0 0 1-35-35z"/><path id="780dk" d="M1536 8235a35 35 0 0 1 35-35h111a35 35 0 0 1 35 35v110a35 35 0 0 1-35 35h-111a35 35 0 0 1-35-35z"/><path id="780dl" d="M1102 8451a35 35 0 0 1 35-35h111a35 35 0 0 1 35 35v110a35 35 0 0 1-35 35h-111a35 35 0 0 1-35-35z"/><path id="780dm" d="M1319 8451a35 35 0 0 1 35-35h111a35 35 0 0 1 35 35v110a35 35 0 0 1-35 35h-111a35 35 0 0 1-35-35z"/><path id="780dn" d="M1548 8451a35 35 0 0 1 35-35h111a35 35 0 0 1 35 35v110a35 35 0 0 1-35 35h-111a35 35 0 0 1-35-35z"/></defs><g><g transform="translate(-1102 -8200)"><g><g opacity=".07"><use fill="#777bfa" xlink:href="#780da"/></g><g opacity=".04"><use fill="#777bfa" xlink:href="#780db"/></g><g opacity=".04"><use fill="#777bfa" xlink:href="#780dc"/></g><g opacity=".07"><use fill="#777bfa" xlink:href="#780dd"/></g><g opacity=".04"><use fill="#777bfa" xlink:href="#780de"/></g><g opacity=".04"><use fill="#777bfa" xlink:href="#780df"/></g><g opacity=".04"><use fill="#777bfa" xlink:href="#780dg"/></g><g opacity=".04"><use fill="#777bfa" xlink:href="#780dh"/></g><g opacity=".02"><use fill="#777bfa" xlink:href="#780di"/></g><g opacity=".04"><use fill="#777bfa" xlink:href="#780dj"/></g><g opacity=".02"><use fill="#777bfa" xlink:href="#780dk"/></g><g opacity=".02"><use fill="#777bfa" xlink:href="#780dl"/></g><g opacity=".04"><use fill="#777bfa" xlink:href="#780dm"/></g><g opacity=".07"><use fill="#777bfa" xlink:href="#780dn"/></g></g><g/></g></g></svg>