<?xml version="1.0" encoding="UTF-8"?>
<svg width="229px" height="68px" viewBox="0 0 229 68" version="1.1" xmlns="http://www.w3.org/2000/svg" xmlns:xlink="http://www.w3.org/1999/xlink">
    <!-- Generator: Sketch 49.1 (51147) - http://www.bohemiancoding.com/sketch -->
    <title>Playstore</title>
    <desc>Created with Sketch.</desc>
    <defs>
        <linearGradient x1="50%" y1="0%" x2="50%" y2="38.9125982%" id="linearGradient-1">
            <stop stop-color="#FBDA09" offset="0%"></stop>
            <stop stop-color="#FFBC00" offset="100%"></stop>
        </linearGradient>
        <path d="M9.89206008,16.7117083 C15.222919,7.33909298 23.8604571,7.32921657 29.1885729,16.6967369 L33.5065726,24.2883419 C38.8328834,33.6526887 34.408752,41.2439917 23.6411546,41.2439917 L15.4483991,41.2439917 C4.67356839,41.2439917 0.254739933,33.6558622 5.5912163,24.2733704 L9.89206008,16.7117083 Z" id="path-2"></path>
        <linearGradient x1="0%" y1="58.4755255%" x2="69.3064856%" y2="39.0830098%" id="linearGradient-4">
            <stop stop-color="#01E2FF" offset="0%"></stop>
            <stop stop-color="#01C4FF" offset="100%"></stop>
        </linearGradient>
        <linearGradient x1="20.2810876%" y1="20.1019903%" x2="83.820166%" y2="83.6214476%" id="linearGradient-5">
            <stop stop-color="#28D781" offset="0%"></stop>
            <stop stop-color="#02F076" offset="100%"></stop>
        </linearGradient>
        <linearGradient x1="74.4881466%" y1="17.4301299%" x2="10.1079427%" y2="91.1838038%" id="linearGradient-6">
            <stop stop-color="#F2414E" offset="0%"></stop>
            <stop stop-color="#E02554" offset="100%"></stop>
        </linearGradient>
    </defs>
    <g id="Page-1" stroke="none" stroke-width="1" fill="none" fill-rule="evenodd">
        <g id="mainPageQuartz" transform="translate(-447.000000, -752.000000)">
            <g id="mainPage">
                <g id="headerBlock">
                    <g id="Playstore" transform="translate(447.000000, 752.000000)">
                        <rect id="background" fill="#000000" x="0" y="0" width="229" height="67.6367868" rx="12"></rect>
                        <g id="get-it-on" transform="translate(70.224613, 11.396100)" fill="#FFFFFF">
                            <path d="M51.1284465,11.0880968 C48.0665531,11.0880968 45.5843981,8.60594181 45.5843981,5.54404842 C45.5843981,2.48215503 48.0665531,0 51.1284465,0 C54.1903399,0 56.672495,2.48215503 56.672495,5.54404842 C56.672495,8.60594181 54.1903399,11.0880968 51.1284465,11.0880968 Z M51.1284465,9.39408204 C53.2547614,9.39408204 54.9784802,7.67036328 54.9784802,5.54404842 C54.9784802,3.41773356 53.2547614,1.69401479 51.1284465,1.69401479 C49.0021317,1.69401479 47.2784129,3.41773356 47.2784129,5.54404842 C47.2784129,7.67036328 49.0021317,9.39408204 51.1284465,9.39408204 Z" id="o"></path>
                            <path d="M13.5521184,6.1600538 L13.5521184,9.54808339 L18.0181574,9.54808339 L18.0181574,10.7800941 L13.5521184,10.7800941 L11.8581036,10.7800941 L11.8581036,0.61600538 L11.8581036,0.462004035 L18.0181574,0.462004035 L18.0181574,1.69401479 L13.5521184,1.69401479 L13.5521184,4.92804304 L17.5561533,4.92804304 L17.5561533,6.1600538 L13.5521184,6.1600538 Z" id="e"></path>
                            <path d="M24.0242098,1.69401479 L24.0242098,10.7800941 L22.330195,10.7800941 L22.330195,1.69401479 L19.7121722,1.69401479 L19.7121722,0.462004035 L26.6422327,0.462004035 L26.6422327,1.69401479 L24.0242098,1.69401479 Z" id="t"></path>
                            <path d="M39.1163416,1.69401479 L39.1163416,10.7800941 L37.4223268,10.7800941 L37.4223268,1.69401479 L34.804304,1.69401479 L34.804304,0.462004035 L41.7343645,0.462004035 L41.7343645,1.69401479 L39.1163416,1.69401479 Z" id="t"></path>
                            <rect id="i" x="31.5702757" y="0.462004035" width="1.69401479" height="10.3180901"></rect>
                            <path d="M59.7525219,0.462004035 L60.0605245,0.462004035 L64.6805649,8.01182607 L64.6805649,0.462004035 L66.3745797,0.462004035 L66.3745797,10.7800941 L64.6805649,10.7800941 L59.7525219,2.72695065 L59.7525219,10.7800941 L58.0585071,10.7800941 L58.0585071,0.462004035 L59.7525219,0.462004035 Z" id="n"></path>
                            <g id="g" transform="translate(0.000000, 0.154001)">
                                <polygon id="Rectangle-1" points="5.51067045 4.95424041 10.1488181 4.95424041 10.1028958 6.42216349 5.51067045 6.42216349"></polygon>
                                <path d="M9.23610485,1.50036253 L8.17476679,2.56055292 C7.51277839,1.88444491 6.57255744,1.51379568 5.48770932,1.51379568 C3.3192446,1.51379568 1.56135663,3.26978279 1.56135663,5.43590267 C1.56135663,7.60202255 3.3192446,9.35800966 5.48770932,9.35800966 C7.65617403,9.35800966 9.19575192,8.10574153 9.19252301,5.43590267 C9.19619056,5.27090837 9.19234418,5.1103007 9.18131331,4.95424041 L10.5361461,4.95424041 C10.5362998,4.97239134 10.5363768,4.99057918 10.5363768,5.00880371 C11.0460062,8.74688274 8.49741078,10.899311 5.44178707,10.8718053 C2.43637395,10.8675006 0,8.43806881 0,5.43590267 C0,2.43373652 2.43637106,0 5.44178707,0 C7.01273255,0 8.333342,0.548254213 9.23610485,1.50036253 Z" id="Oval-1"></path>
                            </g>
                        </g>
                        <g id="googleplay" transform="translate(69.454607, 29.568258)" fill="#FFFFFF">
                            <g id="big-P" transform="translate(96.096839, 0.770007)">
                                <path d="M0.770006725,5.41259561e-07 L9.50078859,0 C9.50078859,0 14.526859,0.855128562 14.5268586,6.62664687 C14.5268583,12.3981652 9.50078859,13.2532937 9.50078859,13.2532937 L0.770006725,13.2532943 L0.770006725,5.41259561e-07 Z M2.46402152,3.20583256 L2.46402152,10.3180901 L8.39090281,10.3180901 C8.39090281,10.3180901 11.0880968,10.3180901 11.0880968,6.76196134 C11.0880968,3.20583256 8.39090281,3.20583256 8.39090281,3.20583256 L2.46402152,3.20583256 Z" id="Combined-Shape"></path>
                                <rect id="Rectangle-6" x="0" y="0" width="3.0800269" height="21.5601883"></rect>
                            </g>
                            <rect id="y" x="112.420982" y="0.770006725" width="3.0800269" height="21.5601883"></rect>
                            <path d="M126.916823,20.7886621 C126.068475,21.4886115 124.71218,22.1473801 122.570045,22.2811673 C117.662531,22.5876663 117.659974,18.109445 117.659974,17.8074583 C117.659974,17.5054715 117.417918,13.8534286 121.321717,13.2729157 C124.085991,12.8618555 126.022069,13.5467609 126.916823,13.9816359 L126.916823,13.3481597 C126.697405,12.5091868 126.016495,10.9676329 123.975157,10.9676329 C121.170662,10.9676329 120.551334,12.4838844 120.551334,12.4838844 L117.985798,10.9676329 C117.985798,10.9676329 119.421426,8.00806994 123.729116,8.00806994 C129.085311,8.00806994 129.99717,11.7024667 129.99717,12.9467344 C129.99717,12.9527909 129.997063,12.9588083 129.99685,12.9647867 L129.99685,22.323277 L126.916823,22.323277 L126.916823,20.7886621 Z M126.6968,16.1705924 C126.6968,16.1705924 120.763086,14.5712494 120.556823,17.9046866 C120.350561,21.2381239 126.249384,19.6375026 126.776432,17.2744692 C126.776432,16.5230359 126.6968,16.1705924 126.6968,16.1705924 Z" id="a"></path>
                            <path d="M135.776311,21.5122046 L130.285138,8.47007397 L133.365165,8.47007397 L137.316324,17.8545059 L141.236077,8.54466838 L144.316104,8.54466838 L135.983188,28.3362475 L132.903161,28.3362475 L135.776311,21.5122046 Z" id="y"></path>
                            <path d="M89.2014825,13.509869 L79.4602868,17.5356941 C79.4602868,17.5356941 80.0894091,19.7623717 83.0181696,19.7772958 C85.3114981,19.7889819 86.6060952,17.7445866 86.6060952,17.7445866 L89.0775673,19.4183407 C89.0775673,19.4183407 87.0832249,22.6438006 82.9987025,22.6438006 C77.9793878,22.6438006 75.7686617,18.2548182 75.7686617,15.4044683 C75.7686617,12.6582298 77.5234097,8.00806994 82.6872299,8.00806994 C87.85105,8.00806994 89.2014825,13.509869 89.2014825,13.509869 Z M85.4951635,12.3694116 C85.4951635,12.3694116 84.2695859,10.5047256 82.3899832,10.8486149 C78.414027,11.5760499 78.9143673,15.0554116 78.9143673,15.0554116 L85.4951635,12.3694116 Z" id="e"></path>
                            <rect id="i" x="71.1486214" y="0.770006725" width="3.25848339" height="21.5148938"></rect>
                            <path d="M65.9341198,8.4756585 L68.9462702,8.50168022 L68.9462702,22.0769187 C68.9462702,25.5453548 66.8812663,29.206622 62.0197468,29.206622 C57.1582274,29.206622 55.5881355,24.8992544 55.5881355,24.8992544 L58.3545145,23.7358253 C58.3545145,23.7358253 59.1982424,26.3904529 62.1635034,26.3904494 C65.5402865,26.3904454 65.9344942,23.3183206 65.9344942,22.2667233 L65.9344942,20.7934955 C65.9344942,20.7934955 64.7660972,22.622164 61.8640105,22.6221681 C58.7175562,22.6221724 54.9784802,19.9263631 54.9784802,15.3305427 C54.9784802,10.7347223 58.4993007,8.10596464 61.9004176,8.01034289 C64.6246809,7.93375075 65.9341198,9.81831105 65.9341198,9.81831105 L65.9341198,8.4756585 Z M62.1212001,19.8635179 C64.3177837,19.8635179 66.0984665,17.8513861 66.0984665,15.3692957 C66.0984665,12.8872053 64.3177837,10.8750734 62.1212001,10.8750734 C59.9246164,10.8750734 58.1439336,12.8872053 58.1439336,15.3692957 C58.1439336,17.8513861 59.9246164,19.8635179 62.1212001,19.8635179 Z" id="g"></path>
                            <path d="M46.2939279,22.6381977 C42.2448039,22.6381977 38.9623403,19.3631321 38.9623403,15.3231338 C38.9623403,11.2831356 42.2448039,8.00806994 46.2939279,8.00806994 C50.343052,8.00806994 53.6255156,11.2831356 53.6255156,15.3231338 C53.6255156,19.3631321 50.343052,22.6381977 46.2939279,22.6381977 Z M46.246009,19.7695452 C48.5219873,19.7695452 50.3670322,17.778819 50.3670322,15.3231338 C50.3670322,12.8674486 48.5219873,10.8767224 46.246009,10.8767224 C43.9700308,10.8767224 42.1249859,12.8674486 42.1249859,15.3231338 C42.1249859,17.778819 43.9700308,19.7695452 46.246009,19.7695452 Z" id="o"></path>
                            <path d="M30.4317894,22.6381977 C26.3826653,22.6381977 23.1002017,19.3631321 23.1002017,15.3231338 C23.1002017,11.2831356 26.3826653,8.00806994 30.4317894,8.00806994 C34.4809134,8.00806994 37.763377,11.2831356 37.763377,15.3231338 C37.763377,19.3631321 34.4809134,22.6381977 30.4317894,22.6381977 Z M30.3838705,19.7695452 C32.6598487,19.7695452 34.5048936,17.778819 34.5048936,15.3231338 C34.5048936,12.8674486 32.6598487,10.8767224 30.3838705,10.8767224 C28.1078923,10.8767224 26.2628474,12.8674486 26.2628474,15.3231338 C26.2628474,17.778819 28.1078923,19.7695452 30.3838705,19.7695452 Z" id="o"></path>
                            <g id="big-g">
                                <polygon id="Rectangle-1" points="11.5005296 10.327149 21.1801421 10.327149 21.0843043 13.387045 11.5005296 13.387045"></polygon>
                                <path d="M19.2753493,3.12751625 L17.0603829,5.3374906 C15.6788419,3.92813869 13.7166416,3.15551776 11.4526108,3.15551776 C6.92711917,3.15551776 3.25848339,6.81588526 3.25848339,11.3311774 C3.25848339,15.8464695 6.92711917,19.506837 11.4526108,19.506837 C15.9781023,19.506837 19.1911344,16.8964753 19.1843959,11.3311774 C19.1920499,10.9872456 19.1840226,10.6524578 19.1610017,10.327149 L21.9884788,10.327149 C21.9887996,10.3649848 21.9889602,10.4028974 21.9889602,10.4408866 C23.0525346,18.2329387 17.7337268,22.7196905 11.356773,22.6623548 C5.08460651,22.6533816 0,17.5892139 0,11.3311774 C0,5.07314092 5.08460047,0 11.356773,0 C14.6352679,0 17.3913224,1.14283977 19.2753493,3.12751625 Z" id="Oval-1"></path>
                            </g>
                        </g>
                        <g id="logo_play" transform="translate(16.786147, 12.012105)">
                            <mask id="mask-3" fill="white">
                                <use xlink:href="#path-2"></use>
                            </mask>
                            <use id="yellow" fill="url(#linearGradient-1)" transform="translate(19.544145, 21.730385) rotate(-270.000000) translate(-19.544145, -21.730385) " xlink:href="#path-2"></use>
                            <polygon id="blue" fill="url(#linearGradient-4)" mask="url(#mask-3)" points="1.11022302e-16 -0.0151862444 21.527362 21.3810448 -0.278057984 43.6229597"></polygon>
                            <polygon id="green" fill="url(#linearGradient-5)" mask="url(#mask-3)" points="-4.4268257 -4.41990878 21.5248072 21.3873032 29.2405301 14.0266317"></polygon>
                            <polygon id="red" fill="url(#linearGradient-6)" mask="url(#mask-3)" points="21.5283423 21.3823795 33.3403406 33.2883204 -1.9468812 45.1942614"></polygon>
                        </g>
                    </g>
                </g>
            </g>
        </g>
    </g>
</svg>