<svg xmlns="http://www.w3.org/2000/svg" xmlns:xlink="http://www.w3.org/1999/xlink" width="229" height="68" viewBox="0 0 229 68"><defs><path id="h0tza" d="M191 764a12 12 0 0 1 12-12h205a12 12 0 0 1 12 12v44a12 12 0 0 1-12 12H203a12 12 0 0 1-12-12z"/><path id="h0tzb" d="M277.76 798.94h-8.9l-2.14 6.28H263l8.42-23.65h3.9l8.42 23.65h-3.85zm-7.97-3.08h7.05l-3.38-10h-.28zm24.15-8.78c4.48 0 7.3 3.54 7.3 9.2 0 5.68-2.82 9.23-7.27 9.23-2.5 0-4.5-1.11-5.41-3h-.28V811h-3.47v-23.63h3.34v2.95h.26a6.1 6.1 0 0 1 5.53-3.24zm-.99 15.27c2.96 0 4.72-2.28 4.72-6.06 0-3.77-1.76-6.05-4.7-6.05-2.93 0-4.75 2.33-4.75 6.06 0 3.72 1.82 6.05 4.73 6.05zm19.01-15.27c4.48 0 7.31 3.54 7.31 9.2 0 5.68-2.83 9.23-7.27 9.23-2.5 0-4.5-1.11-5.42-3h-.27V811h-3.48v-23.63h3.35v2.95h.26a6.1 6.1 0 0 1 5.52-3.24zm-.98 15.27c2.96 0 4.72-2.28 4.72-6.06 0-3.77-1.76-6.05-4.7-6.05-2.93 0-4.76 2.33-4.76 6.06 0 3.72 1.83 6.05 4.74 6.05zm19.24-3.5c.3 2.25 2.47 3.68 5.59 3.68 2.9 0 5.04-1.52 5.04-3.62 0-1.8-1.36-2.89-4.44-3.62l-3.01-.74c-4.22-1-6.14-3.06-6.14-6.54 0-4.2 3.4-7.01 8.48-7.01 4.74 0 8.2 2.8 8.41 6.78h-3.52c-.34-2.18-2.22-3.54-4.93-3.54-2.87 0-4.77 1.4-4.77 3.53 0 1.68 1.23 2.65 4.26 3.37l2.57.64c4.79 1.13 6.76 3.1 6.76 6.65 0 4.53-3.46 7.36-8.99 7.36-5.17 0-8.64-2.7-8.9-6.93zm20.77-15.8v4.4h3.94v2.97H351v9.18c0 1.86.76 2.68 2.49 2.68.53 0 .8-.03 1.3-.08v2.93c-.56.1-1.19.18-1.87.18-3.86 0-5.4-1.37-5.4-4.81v-10.08h-2.89v-2.96h2.9v-4.41zm12.56 19.38c3 0 4.72-2.26 4.72-6.14 0-3.87-1.71-6.13-4.72-6.13-3.02 0-4.72 2.26-4.72 6.13 0 3.9 1.7 6.14 4.72 6.14zm0 3.13c-5.16 0-8.3-3.49-8.3-9.27 0-5.75 3.16-9.26 8.3-9.26 5.12 0 8.3 3.5 8.3 9.26 0 5.78-3.16 9.27-8.3 9.27zm9.88-18.19h3.34v2.74h.26c.5-1.75 2.44-3.03 4.74-3.03.5 0 1.16.05 1.53.15v3.47a9.4 9.4 0 0 0-1.92-.21c-2.62 0-4.48 1.68-4.48 4.2v10.53h-3.47zm17.7 2.66c-2.57 0-4.37 1.83-4.56 4.62h8.89c-.08-2.8-1.76-4.62-4.33-4.62zm7.66 10.37c-.8 3.2-3.6 5.16-7.63 5.16-5.04 0-8.13-3.5-8.13-9.2 0-5.71 3.15-9.33 8.11-9.33 4.9 0 7.86 3.4 7.86 9v1.22h-12.43v.2c.11 3.13 1.9 5.11 4.69 5.11 2.1 0 3.54-.77 4.18-2.16z"/><path id="h0tzc" d="M269.03 762.56c3.3 0 5.25 2.05 5.25 5.6 0 3.6-1.93 5.68-5.25 5.68H265v-11.28zm-2.3 9.68h2.1c2.34 0 3.68-1.47 3.68-4.06 0-2.54-1.37-4.03-3.68-4.03h-2.1zm13.64.27c1.44 0 2.25-1.08 2.25-2.93s-.81-2.93-2.25-2.93c-1.45 0-2.26 1.08-2.26 2.93 0 1.86.81 2.93 2.26 2.93zm0 1.49c-2.47 0-3.98-1.67-3.98-4.42s1.52-4.42 3.98-4.42c2.45 0 3.96 1.67 3.96 4.42s-1.5 4.42-3.96 4.42zm14.68-.16h-1.73l-1.74-6.27h-.13l-1.73 6.27h-1.7l-2.33-8.52h1.69l1.5 6.5h.13l1.73-6.5h1.6l1.73 6.5h.13l1.5-6.5h1.66zm4.42-8.52h1.6v1.35h.12c.41-.94 1.4-1.51 2.66-1.51 1.88 0 2.94 1.14 2.94 3.16v5.52h-1.66v-5.1c0-1.36-.6-2.04-1.84-2.04-1.34 0-2.16.83-2.16 2.16v4.98h-1.66zM309.6 762h1.66v11.84h-1.66zm8.1 10.5c1.44 0 2.26-1.07 2.26-2.92 0-1.85-.82-2.93-2.26-2.93-1.45 0-2.26 1.08-2.26 2.93 0 1.86.81 2.93 2.26 2.93zm0 1.5c-2.47 0-3.97-1.67-3.97-4.42s1.51-4.42 3.97-4.42c2.45 0 3.96 1.67 3.96 4.42s-1.5 4.42-3.96 4.42zm9.1-1.44c1.26 0 2.18-.8 2.18-1.86V770l-2.05.13c-1.16.08-1.69.48-1.69 1.23 0 .77.66 1.21 1.57 1.21zm-.42 1.42c-1.62 0-2.8-1-2.8-2.55 0-1.53 1.12-2.42 3.12-2.54l2.28-.14v-.73c0-.9-.58-1.4-1.72-1.4-.93 0-1.57.34-1.75.94h-1.61c.17-1.46 1.53-2.4 3.44-2.4 2.1 0 3.3 1.06 3.3 2.86v5.82h-1.6v-1.2h-.13a2.82 2.82 0 0 1-2.53 1.34zm10.1 0c-2.14 0-3.5-1.7-3.5-4.4s1.37-4.4 3.5-4.4c1.15 0 2.12.56 2.58 1.5h.12V762h1.66v11.84h-1.59v-1.35h-.13a2.92 2.92 0 0 1-2.64 1.49zm.47-7.29c-1.4 0-2.25 1.1-2.25 2.89 0 1.8.84 2.89 2.25 2.89 1.4 0 2.26-1.1 2.26-2.89 0-1.77-.87-2.89-2.26-2.89zm15.06 5.82c1.44 0 2.25-1.08 2.25-2.93s-.81-2.93-2.25-2.93c-1.45 0-2.26 1.08-2.26 2.93 0 1.86.81 2.93 2.26 2.93zm0 1.49c-2.47 0-3.98-1.67-3.98-4.42s1.52-4.42 3.98-4.42c2.45 0 3.96 1.67 3.96 4.42s-1.5 4.42-3.96 4.42zm6.35-8.68h1.6v1.35h.13c.4-.94 1.39-1.51 2.66-1.51 1.87 0 2.93 1.14 2.93 3.16v5.52h-1.66v-5.1c0-1.36-.6-2.04-1.84-2.04-1.34 0-2.16.83-2.16 2.16v4.98h-1.66zm17.03-2.06v2.1h1.88v1.42h-1.88v4.37c0 .9.36 1.29 1.19 1.29.25 0 .38-.02.61-.04v1.4c-.26.04-.56.08-.88.08-1.85 0-2.59-.65-2.59-2.3v-4.8h-1.38v-1.42h1.38v-2.1zm4.25-1.26h1.64v4.7h.14c.4-.96 1.38-1.53 2.65-1.53 1.9 0 2.97 1.15 2.97 3.17v5.5h-1.66v-5.09c0-1.36-.62-2.04-1.88-2.04-1.36 0-2.2.86-2.2 2.15v4.98h-1.66zm13.6 4.59c-1.23 0-2.1.87-2.18 2.2h4.25c-.04-1.33-.85-2.2-2.07-2.2zm3.66 4.95c-.38 1.52-1.72 2.46-3.65 2.46-2.41 0-3.89-1.67-3.89-4.4 0-2.71 1.51-4.44 3.88-4.44 2.35 0 3.76 1.62 3.76 4.29v.59h-5.94v.09c.05 1.5.9 2.44 2.24 2.44 1 0 1.69-.37 2-1.03z"/><path id="h0tzd" d="M242 785.85c-.05-5.66 4.55-8.42 4.76-8.55a10.15 10.15 0 0 0-8.06-4.44c-3.38-.37-6.67 2.07-8.4 2.07-1.75 0-4.41-2.04-7.27-1.98a10.7 10.7 0 0 0-9.03 5.62c-3.9 6.9-.99 17.04 2.75 22.61 1.87 2.73 4.05 5.78 6.91 5.67 2.8-.11 3.85-1.82 7.22-1.82 3.35 0 4.33 1.82 7.25 1.75 3-.04 4.9-2.74 6.7-5.5a22.74 22.74 0 0 0 3.06-6.36 9.82 9.82 0 0 1-5.89-9.07"/><path id="h0tze" d="M236.5 769.19a10.17 10.17 0 0 0 2.24-7.19c-2.18.1-4.9 1.54-6.47 3.42-1.39 1.65-2.63 4.37-2.3 6.92 2.44.19 4.95-1.26 6.52-3.15"/></defs><g><g transform="translate(-191 -752)"><g><use xlink:href="#h0tza"/></g><g><use fill="#fffeff" xlink:href="#h0tzb"/></g><g><use fill="#fffeff" xlink:href="#h0tzc"/></g><g><g><use fill="#fff" xlink:href="#h0tzd"/></g><g><use fill="#fff" xlink:href="#h0tze"/></g></g></g></g></svg>