<svg xmlns="http://www.w3.org/2000/svg" xmlns:xlink="http://www.w3.org/1999/xlink" width="21.33" height="18" viewBox="0 0 32 27"><defs><path id="dy90a" d="M1639.66 9919.04v20.9c0 .29-.07.54-.22.75a.75.75 0 0 1-.65.31c-.2 0-.4-.05-.6-.14l-8.3-4.15a1.52 1.52 0 0 1-.63-.6 1.57 1.57 0 0 1-.26-.83v-20.3c0-.24.06-.44.18-.6a.6.6 0 0 1 .52-.26c.16 0 .43.1.78.27l9.13 4.56.05.09zm1.14 1.8l9.54 15.42-9.54-4.73zm20.2.32v18.77c0 .3-.08.54-.25.72a.87.87 0 0 1-.68.28c-.28 0-.56-.08-.84-.23l-7.87-3.92zm-.05-2.14a6385.74 6385.74 0 0 1-9.95 16.15l-6.96-11.29 5.78-9.38c.2-.33.51-.5.93-.5.17 0 .32.04.46.1l9.67 4.82c.04.02.07.05.07.1z"/></defs><g><g transform="translate(-1629 -9914)"><use fill="#3a3955" xlink:href="#dy90a"/></g></g></svg>