<svg xmlns="http://www.w3.org/2000/svg" xmlns:xlink="http://www.w3.org/1999/xlink" width="120" height="120" viewBox="0 0 120 120"><defs><path id="j9opa" d="M151 90c0 33.2-26.8 60-60 60s-60-26.8-60-60 26.8-60 60-60 60 26.8 60 60zm-4 0c0-31-25-56-56-56S35 59 35 90s25 56 56 56 56-25 56-56zm-33.4 18H68.4L51 90l17.4-18h45.2L131 90zm-46-24.4L55.8 90l11.8 6.2zm2.4-.8V97h42V82.8zm44.4 13.4l11.8-6.2-11.8-6.4zm0-15.4l9.4 5.2-9.4-9.8zM70 74.6v5.8h42v-5.8zM58.2 86l9.4-5.2v-4.6zm0 8l9.4 9.8v-4.6zm53.8 11.4v-5.8H70v5.8zM123.8 94l-9.4 5.2v4.6z"/></defs><g><g transform="translate(-31 -30)"><use fill="#fff" xlink:href="#j9opa"/></g></g></svg>