<?xml version="1.0" encoding="UTF-8"?>
<svg width="60px" height="60px" viewBox="0 0 60 60" version="1.1" xmlns="http://www.w3.org/2000/svg" xmlns:xlink="http://www.w3.org/1999/xlink">
    <!-- Generator: Sketch 49 (51002) - http://www.bohemiancoding.com/sketch -->
    <title>quartz</title>
    <desc>Created with Sketch.</desc>
    <defs></defs>
    <g id="Page-1" stroke="none" stroke-width="1" fill="none" fill-rule="evenodd">
        <g id="mainPageQuartz" transform="translate(-191.000000, -96.000000)" fill="#787DFC" fill-rule="nonzero">
            <g id="mainPage">
                <g id="headerBlock">
                    <g id="logo" transform="translate(191.000000, 96.000000)">
                        <g id="quartz">
                            <path d="M30,0 C13.4,0 0,13.4 0,30 C0,46.6 13.4,60 30,60 C46.6,60 60,46.6 60,30 C60,13.4 46.6,0 30,0 Z M30,58 C14.5,58 2,45.5 2,30 C2,14.5 14.5,2 30,2 C45.5,2 58,14.5 58,30 C58,45.5 45.5,58 30,58 Z M50,30 L41.3,21 L18.7,21 L10,30 L18.7,39 L41.3,39 L50,30 Z M18.3,33.1 L12.4,30 L18.3,26.8 L18.3,33.1 Z M19.5,26.4 L40.5,26.4 L40.5,33.5 L19.5,33.5 L19.5,26.4 Z M41.7,26.8 L47.6,30 L41.7,33.1 L41.7,26.8 Z M41.7,25.4 L41.7,23.1 L46.4,28 L41.7,25.4 Z M40.5,22.3 L40.5,25.2 L19.5,25.2 L19.5,22.3 L40.5,22.3 Z M18.3,23.1 L18.3,25.4 L13.6,28 L18.3,23.1 Z M18.3,34.6 L18.3,36.9 L13.6,32 L18.3,34.6 Z M19.5,37.7 L19.5,34.8 L40.5,34.8 L40.5,37.7 L19.5,37.7 Z M41.7,36.9 L41.7,34.6 L46.4,32 L41.7,36.9 Z"></path>
                        </g>
                    </g>
                </g>
            </g>
        </g>
    </g>
</svg>