<svg xmlns="http://www.w3.org/2000/svg" xmlns:xlink="http://www.w3.org/1999/xlink" width="48" height="48.67" viewBox="0 0 72 73"><defs><path id="u8dea" d="M1159.27 9736.5a35.52 35.52 0 0 1-35.47 35.66 35.52 35.52 0 0 1-35.47-35.66 35.52 35.52 0 0 1 35.47-35.67 35.52 35.52 0 0 1 35.47 35.67zm-2.37 0a33.14 33.14 0 0 0-33.1-33.3 33.14 33.14 0 0 0-33.1 33.3 33.14 33.14 0 0 0 33.1 33.29 33.14 33.14 0 0 0 33.1-33.3zm-19.74 10.7h-26.72l-10.29-10.7 10.29-10.7h26.72l10.29 10.7zm-27.2-14.5l-6.97 3.8 6.98 3.68zm1.43-.48v8.44h24.82v-8.44zm26.24 7.96l6.98-3.68-6.98-3.8zm0-9.15l5.56 3.09-5.56-5.83zm-26.24-3.69v3.45h24.82v-3.45zm-6.98 6.78l5.56-3.1v-2.73zm0 4.75l5.56 5.83v-2.73zm31.8 6.78v-3.45h-24.82v3.45zm6.98-6.78l-5.56 3.1v2.73z"/></defs><g><g transform="translate(-1088 -9700)"><use fill="#fff" xlink:href="#u8dea"/></g></g></svg>