<svg xmlns="http://www.w3.org/2000/svg" xmlns:xlink="http://www.w3.org/1999/xlink" width="22" height="18" viewBox="0 0 33 27"><defs><path id="rfkra" d="M1717.82 9918.33c-1.2.53-2.47.89-3.82 1.05a6.67 6.67 0 0 0 2.93-3.68 13.32 13.32 0 0 1-4.23 1.61 6.65 6.65 0 0 0-11.34 6.07 18.9 18.9 0 0 1-13.72-6.95 6.65 6.65 0 0 0 2.06 8.89 6.64 6.64 0 0 1-3.02-.84v.09c0 3.22 2.3 5.9 5.34 6.52a6.7 6.7 0 0 1-3 .12 6.66 6.66 0 0 0 6.21 4.62 13.35 13.35 0 0 1-9.85 2.75 18.83 18.83 0 0 0 10.2 3c12.25 0 18.94-10.15 18.94-18.94 0-.3 0-.58-.02-.87 1.3-.93 2.43-2.1 3.32-3.44z"/></defs><g><g transform="translate(-1685 -9915)"><use fill="#3a3955" xlink:href="#rfkra"/></g></g></svg>