<svg xmlns="http://www.w3.org/2000/svg" width="196" height="66" viewBox="0 0 196 66">
    <g fill="none" fill-rule="evenodd">
        <rect width="196" height="66" fill="#000" rx="7"/>
        <path fill="#FFF" d="M80.91 23h-2.295l-1.134-3.208h-4.957L71.434 23H69.15l4.72-12.604h2.356L80.909 23zm-3.982-4.913l-1.75-5.027a5.955 5.955 0 0 1-.166-.791h-.035a5.145 5.145 0 0 1-.176.79l-1.732 5.028h3.859zM90.078 14l-3.481 9H84.39l-3.314-9h2.215l1.995 6.293c.153.463.246.867.282 1.213h.026c.053-.434.135-.826.246-1.178L87.933 14h2.144zm8.289 9h-1.978v-1.406h-.035c-.621 1.078-1.532 1.617-2.733 1.617-.885 0-1.578-.24-2.08-.72-.5-.481-.75-1.117-.75-1.908 0-1.7.978-2.69 2.935-2.97l2.672-.379c0-1.283-.61-1.924-1.828-1.924-1.073 0-2.04.369-2.9 1.107v-1.784c.949-.563 2.044-.844 3.286-.844 2.274 0 3.41 1.12 3.41 3.357V23zm-1.97-4.42l-1.889.263c-.586.076-1.027.218-1.323.426-.295.208-.443.573-.443 1.094 0 .381.136.693.408.936.273.243.637.365 1.095.365.62 0 1.135-.218 1.542-.655.407-.436.61-.986.61-1.648v-.782zm5.785-6.47c-.334 0-.62-.108-.857-.325a1.07 1.07 0 0 1-.356-.826c0-.334.119-.612.356-.835.238-.223.523-.334.857-.334.346 0 .639.111.88.334.24.223.36.501.36.835 0 .316-.12.587-.36.813-.241.226-.534.338-.88.338zM103.193 23h-2.04v-9h2.04v9zm5.01 0h-2.047V9.676h2.048V23zm9.863 0h-1.977v-1.406h-.035c-.621 1.078-1.533 1.617-2.734 1.617-.884 0-1.577-.24-2.078-.72-.501-.481-.752-1.117-.752-1.908 0-1.7.979-2.69 2.936-2.97l2.672-.379c0-1.283-.61-1.924-1.828-1.924-1.073 0-2.04.369-2.9 1.107v-1.784c.948-.563 2.044-.844 3.286-.844 2.274 0 3.41 1.12 3.41 3.357V23zm-1.968-4.42l-1.89.263c-.586.076-1.027.218-1.323.426-.296.208-.444.573-.444 1.094 0 .381.137.693.41.936.272.243.636.365 1.093.365.621 0 1.136-.218 1.543-.655.407-.436.61-.986.61-1.648v-.782zm6.83 3.12h-.035V23h-2.04V9.676h2.04v5.906h.035c.697-1.195 1.717-1.793 3.059-1.793 1.136 0 2.025.403 2.667 1.209.642.805.962 1.885.962 3.238 0 1.506-.36 2.712-1.08 3.617-.721.905-1.706 1.358-2.954 1.358-1.172 0-2.056-.504-2.654-1.512zm-.053-3.578v1.116c0 .657.21 1.213.629 1.67.419.457.95.686 1.595.686.756 0 1.349-.295 1.78-.884.43-.588.646-1.41.646-2.465 0-.885-.201-1.578-.602-2.078-.402-.501-.945-.752-1.63-.752-.727 0-1.312.258-1.754.773-.443.516-.664 1.16-.664 1.934zM134.047 23H132V9.676h2.048V23zm10.575-3.946h-6.135c.023.832.28 1.473.769 1.925.49.45 1.162.676 2.017.676.961 0 1.843-.287 2.646-.861v1.643c-.82.516-1.905.774-3.252.774-1.325 0-2.363-.409-3.116-1.226-.753-.818-1.13-1.967-1.13-3.45 0-1.4.415-2.541 1.244-3.423.83-.882 1.859-1.323 3.09-1.323 1.23 0 2.182.396 2.856 1.187.674.79 1.01 1.89 1.01 3.295v.783zm-1.97-1.442c-.005-.732-.178-1.302-.518-1.71-.34-.406-.808-.61-1.406-.61-.586 0-1.082.214-1.49.642-.407.427-.657.987-.751 1.678h4.166zm13.45 5.599c-1.388 0-2.497-.42-3.326-1.261-.83-.841-1.244-1.956-1.244-3.345 0-1.511.432-2.692 1.297-3.542.864-.85 2.028-1.274 3.493-1.274 1.407 0 2.502.413 3.287 1.24.786.825 1.178 1.971 1.178 3.436 0 1.435-.423 2.585-1.27 3.45-.847.864-1.985 1.296-3.414 1.296zm.097-7.796c-.797 0-1.427.278-1.89.835-.462.557-.694 1.324-.694 2.303 0 .943.235 1.686.703 2.228.47.542 1.096.813 1.881.813.803 0 1.42-.267 1.85-.8.431-.533.646-1.292.646-2.276 0-.99-.215-1.755-.646-2.294-.43-.54-1.047-.809-1.85-.809zM171.177 23h-2.04v-5.071c0-1.682-.594-2.523-1.783-2.523-.621 0-1.134.233-1.538.699-.405.466-.607 1.053-.607 1.762V23h-2.048v-9h2.048v1.494h.035c.674-1.137 1.647-1.705 2.918-1.705.979 0 1.726.318 2.242.954.515.635.773 1.554.773 2.755V23zM88.656 30.703C90.938 31.901 92.333 34 92.844 37h-3.078c-.375-1.677-1.151-2.898-2.329-3.664-1.177-.766-2.66-1.148-4.453-1.148-2.125 0-3.914.796-5.367 2.39-1.453 1.594-2.18 3.969-2.18 7.125 0 2.73.6 4.95 1.797 6.664 1.198 1.714 3.151 2.57 5.86 2.57 2.073 0 3.789-.601 5.148-1.804 1.36-1.203 2.055-3.149 2.086-5.836h-7.187v-2.578h10.078V53h-2l-.75-2.953c-1.052 1.156-1.985 1.958-2.797 2.406-1.365.771-3.1 1.156-5.203 1.156-2.719 0-5.058-.88-7.016-2.64-2.135-2.209-3.203-5.24-3.203-9.094 0-3.844 1.042-6.901 3.125-9.172 1.98-2.167 4.542-3.25 7.688-3.25 2.156 0 4.02.417 5.593 1.25zm9 5.64h2.86V53h-2.86V36.344zm0-6.296h2.86v3.187h-2.86v-3.187zm7.672 1.547h2.844v4.672h2.672v2.297h-2.672v10.921c0 .584.198.974.594 1.172.218.115.583.172 1.093.172a8.396 8.396 0 0 0 .984-.047V53a6.278 6.278 0 0 1-1.007.203 9.582 9.582 0 0 1-1.133.063c-1.312 0-2.203-.336-2.672-1.008-.469-.672-.703-1.544-.703-2.617V38.563h-2.266v-2.297h2.266v-4.672zm8.781-1.547h3.141v9.484h11.938v-9.484h3.14V53h-3.14V42.266H117.25V53h-3.14V30.047zm25.47 6.219v11.109c0 .854.135 1.552.405 2.094.5 1 1.433 1.5 2.797 1.5 1.959 0 3.292-.875 4-2.625.386-.938.578-2.224.578-3.86v-8.218h2.813V53h-2.656l.03-2.469a5.673 5.673 0 0 1-1.358 1.61c-1.073.875-2.375 1.312-3.907 1.312-2.385 0-4.01-.797-4.875-2.39-.469-.855-.703-1.995-.703-3.422V36.266h2.875zm14.765-6.297h2.734v8.328a6.236 6.236 0 0 1 2.203-1.836 6.194 6.194 0 0 1 2.781-.633c2.084 0 3.774.716 5.07 2.149 1.298 1.432 1.946 3.544 1.946 6.336 0 2.645-.64 4.843-1.922 6.593-1.281 1.75-3.057 2.625-5.328 2.625-1.27 0-2.344-.307-3.219-.922-.52-.364-1.078-.948-1.672-1.75V53h-2.593V29.969zm10.726 19.265c.756-1.208 1.133-2.802 1.133-4.78 0-1.761-.377-3.22-1.133-4.376-.755-1.156-1.867-1.734-3.336-1.734-1.28 0-2.403.474-3.367 1.422-.963.948-1.445 2.51-1.445 4.687 0 1.573.198 2.85.594 3.828.74 1.844 2.12 2.766 4.14 2.766 1.521 0 2.66-.604 3.414-1.813z"/>
        <g fill="#FFF" fill-rule="nonzero">
            <path d="M35.5 11C23.075 11 13 21.104 13 33.568c0 9.971 6.447 18.43 15.387 21.415 1.124.209 1.537-.49 1.537-1.086 0-.538-.02-2.316-.03-4.202-6.26 1.366-7.58-2.662-7.58-2.662-1.024-2.609-2.499-3.303-2.499-3.303-2.041-1.4.154-1.371.154-1.371 2.26.159 3.45 2.326 3.45 2.326 2.006 3.45 5.263 2.452 6.547 1.875.202-1.458.785-2.454 1.428-3.018-4.997-.57-10.251-2.505-10.251-11.153 0-2.463.879-4.477 2.318-6.057-.233-.569-1.003-2.864.218-5.973 0 0 1.89-.606 6.19 2.314 1.794-.5 3.719-.751 5.631-.76 1.912.009 3.838.26 5.637.76 4.294-2.92 6.18-2.314 6.18-2.314 1.226 3.109.455 5.404.222 5.973 1.442 1.58 2.315 3.593 2.315 6.057 0 8.668-5.263 10.577-10.274 11.136.807.7 1.526 2.073 1.526 4.179 0 3.02-.025 5.45-.025 6.193 0 .6.404 1.305 1.545 1.083C51.56 51.992 58 43.536 58 33.568 58 21.104 47.926 11 35.5 11z"/>
            <path d="M21.471 43.691c-.053.12-.241.156-.413.074-.175-.079-.272-.242-.216-.362.052-.124.24-.158.415-.076.175.08.275.244.214.364zM22.438 43.95c-.115.107-.34.058-.492-.11-.158-.169-.187-.394-.07-.501.118-.107.336-.057.493.111.158.17.189.393.069.5zM23.432 46.063c-.148.103-.39.007-.539-.207-.148-.215-.148-.472.003-.575.15-.103.388-.01.539.202.147.218.147.476-.003.58zM24.588 47.013c-.133.145-.414.106-.62-.093-.21-.194-.269-.47-.137-.615.134-.146.417-.105.624.092.21.194.273.471.133.616zM25.707 47.722c-.056.188-.316.274-.578.194-.262-.083-.433-.304-.38-.494.054-.19.316-.28.58-.194.261.082.433.302.378.494zM27.674 47.547c.006.199-.213.364-.483.367-.272.007-.492-.154-.495-.35 0-.2.213-.363.485-.368.27-.006.493.154.493.351zM29.627 47.471c.032.194-.157.393-.426.446-.266.051-.511-.069-.545-.26-.033-.2.16-.399.424-.45.27-.05.512.067.547.264z"/>
        </g>
    </g>
</svg>
