<svg xmlns="http://www.w3.org/2000/svg" xmlns:xlink="http://www.w3.org/1999/xlink" width="290" height="100" viewBox="0 0 290 100">
    <defs>
        <path id="a" d="M0 0h255a5 5 0 0 1 5 5v80a5 5 0 0 1-5 5H0V0z"/>
        <path id="d" d="M48.527 0v6.932h13.865v13.865h6.932V0H48.527zm13.865 20.797h-6.933v6.933h6.933v-6.933zm-6.933 6.933h-6.932v6.932h6.932V27.73zm-6.932 6.932h-6.933v6.932h6.933v-6.932zm-6.933 6.932h-6.932v6.933h6.932v-6.933zm-6.932 6.933H20.797v6.932h13.865v-6.932zm0 6.932v6.933H27.73v6.932h13.864V55.46h-6.932zm-13.865 0h-6.932v6.933h6.932v-6.933zm-6.932 6.933H6.932v-6.933H0v13.865h13.865v-6.932zm-6.933-6.933h6.933v-6.932H6.932v6.932zm6.933-6.932h6.932V34.662h-6.932v13.865zm0-13.865V27.73H0v13.864h6.932v-6.932h6.933zm6.932 0h6.933V27.73h-6.933v6.932zm6.933-6.932h6.932v-6.933H27.73v6.933zm6.932-6.933h6.932v-6.932h-6.932v6.932zm6.932-6.932h6.933V6.932h-6.933v6.933z"/>
        <filter id="c" width="124.5%" height="124.5%" x="-12.3%" y="-9.4%" filterUnits="objectBoundingBox">
            <feOffset dy="2" in="SourceAlpha" result="shadowOffsetOuter1"/>
            <feGaussianBlur in="shadowOffsetOuter1" result="shadowBlurOuter1" stdDeviation="2.5"/>
            <feColorMatrix in="shadowBlurOuter1" values="0 0 0 0 0 0 0 0 0 0 0 0 0 0 0 0 0 0 0.2 0"/>
        </filter>
        <path id="f" d="M34.662 41.594v6.933H20.797V34.662h6.933V27.73h6.932v-6.933h6.932v-6.932h6.933V6.932h13.865v13.865h-6.933v6.933h-6.932v6.932h-6.933v6.932h-6.932z"/>
        <filter id="e" width="140.9%" height="140.9%" x="-20.4%" y="-15.6%" filterUnits="objectBoundingBox">
            <feOffset dy="2" in="SourceAlpha" result="shadowOffsetOuter1"/>
            <feGaussianBlur in="shadowOffsetOuter1" result="shadowBlurOuter1" stdDeviation="2.5"/>
            <feColorMatrix in="shadowBlurOuter1" values="0 0 0 0 0 0 0 0 0 0 0 0 0 0 0 0 0 0 0.2 0"/>
        </filter>
        <linearGradient id="g" x1="-33.058%" y1="133.717%" y2="0%">
            <stop offset="0%" stop-color="#EF5777"/>
            <stop offset="100%" stop-color="#E97C93"/>
        </linearGradient>
    </defs>
    <g fill="none" fill-rule="evenodd">
        <g transform="translate(30 5)">
            <mask id="b" fill="#fff">
                <use xlink:href="#a"/>
            </mask>
            <use fill="#474747" xlink:href="#a"/>
            <path fill="#FFF" d="M30.104 25.688h-2.08V31h-2.745V16.781h4.766c.788 0 1.5.093 2.139.279.638.185 1.183.457 1.635.815.453.358.801.804 1.045 1.338.244.534.366 1.152.366 1.855 0 .508-.06.966-.18 1.372-.12.407-.293.772-.518 1.094a3.764 3.764 0 0 1-.81.845c-.316.24-.67.45-1.06.625l3.057 5.869V31h-2.94l-2.675-5.313zm-2.08-2.227h2.03c.775 0 1.373-.197 1.793-.59.42-.395.63-.933.63-1.617 0-.71-.206-1.261-.616-1.655-.41-.394-1.015-.591-1.816-.591h-2.022v4.453zM46.03 24.77h-5.84v4.013h6.827V31h-9.58V16.781h9.55v2.237h-6.797v3.584h5.84v2.168zm13.262.595a6.967 6.967 0 0 1-.454 2.466 5.34 5.34 0 0 1-1.304 1.978l2.354 2.128-1.768 1.573-2.705-2.5c-.228.058-.46.104-.698.136a5.429 5.429 0 0 1-.738.05c-.82 0-1.549-.159-2.187-.474a4.827 4.827 0 0 1-1.616-1.28 5.662 5.662 0 0 1-1.001-1.86 7.146 7.146 0 0 1-.342-2.217v-2.46c0-.919.114-1.763.342-2.535.228-.771.561-1.437 1-1.997.44-.56.979-.998 1.617-1.313.638-.316 1.367-.474 2.187-.474.827 0 1.57.158 2.227.474a4.81 4.81 0 0 1 1.67 1.313c.456.56.806 1.226 1.05 1.997.244.772.366 1.616.366 2.534v2.461zm-2.783-2.48c0-.586-.047-1.125-.142-1.616a4.194 4.194 0 0 0-.444-1.275 2.275 2.275 0 0 0-.781-.835c-.32-.198-.707-.298-1.163-.298-.449 0-.825.101-1.127.303-.303.202-.546.48-.728.835a4.22 4.22 0 0 0-.39 1.27c-.079.491-.118 1.03-.118 1.616v2.48c0 .443.04.878.117 1.304.079.426.209.807.391 1.143.182.335.425.607.728.815.302.208.678.312 1.127.312.456 0 .844-.102 1.163-.307.319-.205.579-.477.78-.816.203-.338.35-.72.445-1.147.095-.426.142-.861.142-1.304v-2.48zm14.248-6.104l.01 9.424c0 .794-.11 1.5-.328 2.12a4.242 4.242 0 0 1-.947 1.567c-.413.426-.918.75-1.514.971-.595.222-1.274.332-2.036.332-.716 0-1.362-.11-1.938-.332a4.056 4.056 0 0 1-1.48-.967 4.33 4.33 0 0 1-.952-1.567c-.224-.622-.337-1.33-.337-2.124l.01-9.424h2.744l.01 9.424c.007.918.174 1.611.503 2.08.329.469.809.703 1.44.703.67 0 1.184-.234 1.538-.703.355-.469.536-1.162.542-2.08l.01-9.424h2.725zm11.28 7.989h-5.84v4.013h6.825V31h-9.58V16.781h9.551v2.237h-6.797v3.584h5.84v2.168zm10.634 2.52c0-.255-.044-.492-.132-.714a1.684 1.684 0 0 0-.45-.62 3.315 3.315 0 0 0-.83-.527 7.93 7.93 0 0 0-1.274-.445c-.618-.169-1.209-.38-1.772-.634a6.454 6.454 0 0 1-1.49-.918 4.25 4.25 0 0 1-1.03-1.25c-.257-.476-.385-1.022-.385-1.641 0-.599.127-1.143.38-1.63a3.735 3.735 0 0 1 1.055-1.25c.45-.346.98-.611 1.592-.797a6.837 6.837 0 0 1 1.992-.278c.742 0 1.421.107 2.036.322a4.765 4.765 0 0 1 1.587.904c.443.387.788.848 1.035 1.381a4.13 4.13 0 0 1 .371 1.758h-2.675a2.793 2.793 0 0 0-.171-.879c-.101-.267-.25-.496-.45-.688a2.06 2.06 0 0 0-.742-.45 3.048 3.048 0 0 0-1.04-.16c-.364 0-.688.043-.971.131a2.109 2.109 0 0 0-.718.371c-.195.16-.344.349-.444.567-.101.218-.152.454-.152.708 0 .267.067.508.2.722.134.215.327.409.581.581.254.173.562.33.923.474.362.143.77.277 1.226.4.65.19 1.25.42 1.797.694a5.786 5.786 0 0 1 1.41.972c.395.374.7.8.919 1.279.218.478.327 1.01.327 1.597 0 .625-.125 1.18-.376 1.665-.25.485-.597.895-1.04 1.23-.443.335-.97.59-1.582.762a7.357 7.357 0 0 1-2.002.259c-.45 0-.897-.041-1.343-.123a6.234 6.234 0 0 1-1.28-.375 5.627 5.627 0 0 1-1.137-.635 4.302 4.302 0 0 1-.913-.889 4.049 4.049 0 0 1-.605-1.152 4.397 4.397 0 0 1-.22-1.426h2.695c.013.43.088.797.225 1.103.137.306.327.557.571.752.244.196.537.339.879.43.342.091.718.137 1.128.137.365 0 .688-.043.972-.127.283-.085.522-.202.717-.352.196-.15.345-.33.45-.542a1.56 1.56 0 0 0 .156-.698zm15.068-8.272h-4.385V31h-2.753V19.018h-4.327V16.78h11.465v2.237zm20.547 9.013h-4.267L123.18 31h-2.89l4.657-14.219h2.49L132.007 31h-2.89l-.83-2.969zm-3.594-2.334h2.95l-1.456-5.234-1.494 5.234zM142.672 31h-2.734l-3.956-9.17V31h-2.763V16.781h2.763l3.926 9.131.01-9.13h2.754V31zm15.234-14.219h8.223v2.217h-2.774v9.795h2.774V31h-8.223v-2.207h2.705v-9.795h-2.705v-2.217zM178.678 31h-2.735l-3.955-9.17V31h-2.763V16.781h2.763l3.926 9.131.01-9.13h2.754V31zm7.334-3.975l2.685-10.244h3.028L187.418 31h-2.793l-4.297-14.219h3.027l2.657 10.244zm7.9-10.244h8.223v2.217h-2.774v9.795h2.774V31h-8.223v-2.207h2.705v-9.795h-2.705v-2.217zm21.846 2.237h-4.385V31h-2.754V19.018h-4.326V16.78h11.465v2.237zm10.303 5.752h-5.84v4.013h6.826V31h-9.58V16.781h9.55v2.237h-6.796v3.584h5.84v2.168z" mask="url(#b)"/>
            <g fill-rule="nonzero" mask="url(#b)">
                <use fill="#000" filter="url(#c)" transform="rotate(-45 33.432 76.306)" xlink:href="#d"/>
                <use fill="#000" filter="url(#e)" transform="rotate(-45 33.432 76.306)" xlink:href="#f"/>
            </g>
        </g>
        <g fill-rule="nonzero">
            <path fill="#121212" d="M14.707 15.673l4.902 4.902 9.804-9.804 9.804 9.804 4.902-4.902L29.413.967 14.707 15.673zm24.51 4.902l-4.902 4.902 4.902 4.902 4.902-4.902-4.902-4.902zm0 9.804l-4.902 4.902 4.902 4.902 4.902-4.902-4.902-4.902zm0 9.804l-4.902 4.902 4.902 4.902 4.902-4.902-4.902-4.902zm0 9.804l-4.902 4.902 4.902 4.902 4.902-4.902-4.902-4.902zm0 9.804l-9.804 9.804 4.902 4.902 9.804-9.804-4.902-4.902zm4.902 4.902l4.902 4.902-4.902 4.902 4.902 4.902 9.803-9.804-9.803-9.804-4.902 4.902zm-9.804 9.804l-4.902 4.902 4.902 4.901 4.902-4.901-4.902-4.902zm0 9.803l-4.902 4.902L24.51 84.3l-4.902 4.902 9.804 9.804 9.804-9.804-4.902-4.902zm-9.804 0l4.902-4.901-4.902-4.902-4.902 4.902L24.51 84.3zm0-9.803l4.902-4.902-9.804-9.804-4.902 4.902 9.804 9.804zm-9.804-9.804L9.805 59.79 0 69.595l9.804 9.804 4.902-4.902-4.902-4.902 4.902-4.902zm4.902-4.902l4.902-4.902-4.902-4.902-4.902 4.902 4.902 4.902zm0-9.804l4.902-4.902-4.902-4.902-4.902 4.902 4.902 4.902zm0-9.804l4.902-4.902-4.902-4.902-4.902 4.902 4.902 4.902zm0-9.804l4.902-4.902-4.902-4.902-4.902 4.902 4.902 4.902z"/>
            <path fill="url(#g)" d="M34.662 41.594v6.933H20.797V34.662h6.933V27.73h6.932v-6.933h6.932v-6.932h6.933V6.932h13.865v13.865h-6.933v6.933h-6.932v6.932h-6.933v6.932h-6.932z" transform="rotate(-45 50.536 48.66)"/>
        </g>
        <path fill="#FFF" d="M265.5 22.5l7 7-7 7V35l5.5-5.5-5.5-5.5zM112.743 70.107h-6.658v4.576h7.782v2.527h-10.921V61h10.888v2.55h-7.749v4.086h6.658v2.471zm9.33-1.18l2.649-3.763h3.328l-4.04 5.912 4.185 6.134h-3.34l-2.772-3.941-2.75 3.94h-3.35l4.185-6.133-4.03-5.912h3.33l2.604 3.763zm13.503 6.034c.305 0 .594-.045.869-.134.274-.089.515-.215.723-.378.208-.163.37-.36.485-.59a1.51 1.51 0 0 0 .15-.768h2.917a3.592 3.592 0 0 1-.384 1.736c-.271.535-.64.995-1.108 1.38a5.32 5.32 0 0 1-1.631.908 5.855 5.855 0 0 1-1.965.329c-.935 0-1.755-.158-2.46-.474a4.951 4.951 0 0 1-1.765-1.297 5.598 5.598 0 0 1-1.069-1.931 7.61 7.61 0 0 1-.362-2.377v-.334c0-.846.12-1.638.357-2.377a5.48 5.48 0 0 1 1.068-1.931 5.077 5.077 0 0 1 1.765-1.303c.701-.319 1.516-.479 2.444-.479.742 0 1.428.112 2.06.334.63.223 1.174.537 1.63.941.457.405.811.894 1.063 1.47.253.575.371 1.219.357 1.931h-2.917a2.029 2.029 0 0 0-.134-.846 1.903 1.903 0 0 0-.456-.69 2.26 2.26 0 0 0-.724-.462 2.424 2.424 0 0 0-.924-.173c-.49 0-.894.1-1.213.3-.32.201-.574.468-.763.802-.19.334-.323.717-.4 1.147-.079.43-.118.876-.118 1.336v.334c0 .468.037.919.112 1.353.074.434.206.816.395 1.146.19.33.445.596.768.796.323.2.733.301 1.23.301zm15.876 2.249a2.736 2.736 0 0 1-.19-.512 6.802 6.802 0 0 1-.133-.613 4.062 4.062 0 0 1-1.33.952c-.271.123-.57.22-.897.29-.326.07-.679.105-1.057.105-.616 0-1.182-.089-1.698-.267a4.035 4.035 0 0 1-1.33-.746 3.343 3.343 0 0 1-1.18-2.583c0-1.269.473-2.25 1.419-2.944.946-.694 2.358-1.041 4.236-1.041h1.725v-.712c0-.58-.189-1.038-.567-1.375-.379-.338-.924-.507-1.637-.507-.63 0-1.09.136-1.38.406-.29.271-.434.633-.434 1.086h-3.095c0-.512.113-.998.34-1.459.226-.46.556-.864.99-1.213.434-.349.965-.625 1.592-.83.627-.204 1.345-.306 2.154-.306.727 0 1.405.09 2.032.268.627.178 1.17.441 1.63.79.461.349.821.789 1.08 1.32.26.53.39 1.144.39 1.842v5.165c0 .646.041 1.18.123 1.604.081.423.2.786.356 1.09v.19h-3.14zm-2.95-2.171c.311 0 .6-.037.868-.111.267-.075.508-.171.723-.29.216-.119.401-.254.557-.406.156-.152.278-.306.367-.462V71.7h-1.58c-.483 0-.895.045-1.236.138-.342.093-.62.223-.835.39a1.553 1.553 0 0 0-.479.601 1.856 1.856 0 0 0-.156.763c0 .415.147.76.44 1.035.293.275.737.412 1.33.412zm9.752-14.93h6.735v14.585h3.451v2.516h-10.186v-2.516h3.607V62.637h-3.607V60.11zm13.86 5.055h6.557v9.53h3.262v2.516h-9.819v-2.516h3.429V67.69h-3.429v-2.527zm3.206-3.084a1.7 1.7 0 0 1 .128-.662c.086-.204.206-.379.362-.523.156-.145.343-.258.562-.34.22-.082.462-.122.73-.122.549 0 .985.154 1.308.462.323.308.484.703.484 1.185 0 .483-.161.878-.484 1.186-.323.308-.76.462-1.308.462-.268 0-.51-.04-.73-.122a1.675 1.675 0 0 1-.562-.34 1.487 1.487 0 0 1-.362-.523 1.7 1.7 0 0 1-.128-.663zm20.507 9.23c0 .897-.098 1.721-.295 2.47-.197.75-.492 1.396-.885 1.938a4.114 4.114 0 0 1-1.47 1.264c-.586.3-1.269.45-2.048.45-.705 0-1.316-.131-1.831-.395a3.963 3.963 0 0 1-1.33-1.107l-.145 1.28h-2.784v-17.1h3.095v6.145a3.776 3.776 0 0 1 1.264-.968c.486-.23 1.056-.346 1.709-.346.786 0 1.475.153 2.065.457.59.304 1.082.727 1.475 1.269.393.542.688 1.19.885 1.943.197.753.295 1.575.295 2.466v.233zm-3.095-.234c0-.49-.037-.954-.111-1.392a3.632 3.632 0 0 0-.384-1.152 2.092 2.092 0 0 0-.74-.785c-.312-.193-.702-.29-1.17-.29-.564 0-1.022.12-1.374.357a2.338 2.338 0 0 0-.819.98v4.798c.193.415.466.742.819.98.352.237.818.356 1.397.356.467 0 .853-.091 1.157-.273.305-.182.548-.434.73-.757.182-.323.31-.705.384-1.147.074-.441.111-.922.111-1.442v-.233zm13.604 4.442a4.646 4.646 0 0 1-1.475 1.413 3.63 3.63 0 0 1-1.887.513 4.89 4.89 0 0 1-1.714-.29c-.52-.193-.965-.499-1.336-.918-.371-.42-.659-.954-.863-1.603-.204-.65-.306-1.431-.306-2.344v-7.125h3.095v7.147c0 .49.035.902.106 1.236.07.334.183.603.34.807.155.204.36.35.611.44.253.089.56.134.925.134.616 0 1.117-.117 1.502-.351.386-.234.68-.555.88-.963v-8.45h3.106V77.21h-2.805l-.179-1.692zm14.651-10.577a8.285 8.285 0 0 1 2.26.301l-.456 3.084a10.631 10.631 0 0 0-1.253-.217 10.87 10.87 0 0 0-1.219-.073c-.868 0-1.564.167-2.087.501-.523.334-.915.813-1.175 1.436v7.237h-3.095V65.164h2.884l.145 1.97a5.528 5.528 0 0 1 1.758-1.608 4.437 4.437 0 0 1 2.238-.585zm15.263 14.685h-10.153V77.21h10.153v2.416z"/>
        <path fill="#EF5777" d="M236.273 63.072H233.2l-.605 2.138h-2.081l3.354-10.238h1.793l3.29 10.238h-2.08l-.598-2.138zm-2.588-1.68h2.123l-1.047-3.769-1.076 3.769zm6.673-6.982h4.254v9.21h2.18v1.59h-6.434v-1.59h2.278v-7.614h-2.278V54.41zm15.068 7.066c0 .553-.065 1.067-.194 1.54a3.727 3.727 0 0 1-.57 1.227c-.25.345-.56.615-.93.812a2.67 2.67 0 0 1-1.274.295c-.407 0-.766-.07-1.075-.21a2.45 2.45 0 0 1-.809-.591v3.586h-1.955V57.602h1.807l.07.745c.235-.281.512-.499.83-.654.32-.154.692-.232 1.118-.232.483 0 .91.093 1.28.278.37.185.682.448.935.788s.444.747.573 1.223a6.03 6.03 0 0 1 .194 1.579v.147zm-1.955-.147c0-.32-.03-.618-.088-.897a2.285 2.285 0 0 0-.274-.724 1.404 1.404 0 0 0-.478-.482 1.345 1.345 0 0 0-.707-.176c-.342 0-.622.067-.84.2a1.36 1.36 0 0 0-.51.567v3.178c.122.239.292.43.51.573.218.143.503.214.854.214.277 0 .512-.06.707-.182.194-.122.353-.289.474-.5.122-.21.211-.455.268-.734.056-.28.084-.576.084-.89v-.147zm5.716-2.68c.254-.37.562-.66.925-.871.363-.211.77-.317 1.22-.317.398 0 .764.06 1.097.18.333.12.619.306.858.559.239.253.425.577.559.973.133.397.2.874.2 1.431v4.606h-1.955v-4.62c0-.272-.034-.506-.102-.703a1.188 1.188 0 0 0-.291-.478 1.18 1.18 0 0 0-.457-.27 1.93 1.93 0 0 0-.605-.089c-.328 0-.613.059-.854.176a1.58 1.58 0 0 0-.595.492v5.492h-1.954v-10.8h1.954v4.24zm11.44 6.56a1.728 1.728 0 0 1-.12-.323 4.296 4.296 0 0 1-.084-.386 2.566 2.566 0 0 1-.84.6c-.171.078-.36.14-.566.184a3.163 3.163 0 0 1-.668.066c-.389 0-.746-.056-1.072-.168a2.548 2.548 0 0 1-.84-.471 2.111 2.111 0 0 1-.745-1.631c0-.802.298-1.422.896-1.86.597-.439 1.49-.658 2.675-.658h1.09v-.45c0-.365-.12-.655-.359-.868-.239-.213-.583-.32-1.033-.32-.399 0-.69.085-.872.257-.183.17-.274.4-.274.685h-1.955c0-.323.072-.63.214-.921a2.26 2.26 0 0 1 .626-.766c.274-.22.61-.395 1.006-.524.396-.13.85-.194 1.36-.194.46 0 .887.057 1.283.17.397.112.74.278 1.03.498.291.22.519.498.683.834.164.335.246.723.246 1.163v3.263c0 .408.025.745.077 1.012s.127.497.225.69v.119h-1.983zm-1.863-1.37a2.043 2.043 0 0 0 1.005-.253c.136-.075.254-.161.352-.257.098-.096.176-.193.232-.292V61.73h-.998c-.305 0-.565.03-.78.088a1.49 1.49 0 0 0-.528.246.981.981 0 0 0-.303.38 1.172 1.172 0 0 0-.098.482c0 .262.093.48.278.654.185.173.465.26.84.26z"/>
    </g>
</svg>
