<svg xmlns="http://www.w3.org/2000/svg" xmlns:xlink="http://www.w3.org/1999/xlink" width="213" height="40" viewBox="0 0 213 40">
    <defs>
        <path id="a" d="M64.972 20.108c.539.639.808 1.46.808 2.465 0 1.292-.478 2.286-1.433 2.983-.956.696-2.367 1.044-4.235 1.044h-6.94V11.527h6.509c1.68 0 2.985.337 3.912 1.012.926.674 1.39 1.63 1.39 2.864 0 .832-.205 1.54-.615 2.12-.409.582-.973 1.016-1.691 1.303.991.216 1.756.643 2.295 1.282zM54.766 12.84v5.47h4.807c1.221 0 2.162-.234 2.823-.7.661-.467.992-1.145.992-2.035 0-.89-.33-1.568-.992-2.035-.66-.467-1.602-.7-2.823-.7h-4.807zm8.385 11.757c.69-.459 1.034-1.177 1.034-2.153 0-1.88-1.365-2.82-4.095-2.82h-5.324v5.662h5.324c1.35 0 2.371-.23 3.06-.689zm21.38-2.024h-8.405l-1.81 4.027h-1.66l6.897-15.073h1.573L88.024 26.6h-1.682l-1.81-4.027zm-.581-1.292l-3.621-8.096-3.621 8.096h7.242zm13.158 4.91c-1.027-.359-1.82-.833-2.381-1.421l.625-1.228c.546.546 1.271.987 2.177 1.325.905.337 1.839.506 2.802.506 1.35 0 2.363-.248 3.039-.743.675-.496 1.013-1.138 1.013-1.928 0-.602-.184-1.083-.55-1.442a3.71 3.71 0 0 0-1.347-.83c-.532-.193-1.272-.405-2.22-.635-1.135-.287-2.04-.563-2.716-.829a4.459 4.459 0 0 1-1.735-1.216c-.481-.546-.722-1.285-.722-2.218 0-.761.201-1.454.604-2.078.402-.625 1.02-1.123 1.853-1.497.834-.373 1.868-.56 3.104-.56.862 0 1.706.119 2.532.356.827.237 1.542.563 2.145.98l-.539 1.27a7.42 7.42 0 0 0-2.026-.937 7.568 7.568 0 0 0-2.112-.312c-1.322 0-2.317.255-2.985.764-.668.51-1.002 1.167-1.002 1.97 0 .604.183 1.088.55 1.454.366.366.825.646 1.379.84.553.194 1.296.406 2.23.635 1.107.273 2.001.542 2.684.808.682.265 1.26.667 1.735 1.206.474.538.711 1.267.711 2.185 0 .761-.205 1.454-.614 2.078-.41.625-1.038 1.12-1.886 1.486-.848.366-1.89.55-3.125.55a9.7 9.7 0 0 1-3.223-.54zm28.634-.97V26.6h-10.669V11.527h10.346v1.378h-8.75v5.362h7.802v1.356h-7.803v5.599h9.074zm11.909.518a7.257 7.257 0 0 1-2.824-2.746c-.682-1.17-1.024-2.48-1.024-3.93 0-1.45.342-2.76 1.024-3.93a7.238 7.238 0 0 1 2.834-2.745c1.207-.66 2.558-.99 4.052-.99 1.121 0 2.156.186 3.104.56a6.434 6.434 0 0 1 2.414 1.636l-1.013 1.012c-1.178-1.192-2.665-1.787-4.461-1.787-1.193 0-2.278.272-3.255.818a5.982 5.982 0 0 0-2.295 2.24c-.554.947-.83 2.01-.83 3.186 0 1.177.276 2.24.83 3.187a5.982 5.982 0 0 0 2.295 2.24c.977.545 2.062.818 3.255.818 1.81 0 3.297-.603 4.461-1.809l1.013 1.012a6.525 6.525 0 0 1-2.425 1.648c-.955.38-1.993.57-3.114.57-1.494 0-2.842-.33-4.041-.99zm21.165-.011a7.317 7.317 0 0 1-2.845-2.746c-.682-1.162-1.024-2.469-1.024-3.919 0-1.45.342-2.756 1.024-3.919a7.317 7.317 0 0 1 2.845-2.745c1.214-.668 2.569-1.002 4.063-1.002 1.494 0 2.842.33 4.041.991a7.334 7.334 0 0 1 2.835 2.745c.69 1.17 1.034 2.48 1.034 3.93 0 1.45-.345 2.76-1.034 3.93a7.334 7.334 0 0 1-2.835 2.746c-1.2.66-2.547.99-4.04.99-1.495 0-2.85-.334-4.064-1.001zm7.296-1.228a5.847 5.847 0 0 0 2.263-2.239c.546-.955.82-2.02.82-3.198 0-1.177-.274-2.243-.82-3.197a5.847 5.847 0 0 0-2.263-2.24c-.963-.538-2.04-.807-3.233-.807s-2.274.269-3.244.807a5.903 5.903 0 0 0-2.284 2.24c-.554.954-.83 2.02-.83 3.197s.276 2.243.83 3.198a5.903 5.903 0 0 0 2.284 2.24c.97.538 2.051.807 3.244.807s2.27-.27 3.233-.808zm24.205 2.1l-3.449-4.845c-.388.043-.79.065-1.207.065h-4.052v4.78h-1.595V11.527h5.647c1.926 0 3.434.459 4.526 1.378 1.093.919 1.639 2.182 1.639 3.79 0 1.177-.299 2.17-.895 2.982-.596.811-1.448 1.396-2.554 1.755l3.686 5.168h-1.746zm-1.272-7.128c.79-.66 1.186-1.586 1.186-2.777 0-1.22-.396-2.157-1.186-2.81-.79-.654-1.933-.98-3.427-.98h-4.009v7.558h4.01c1.493 0 2.636-.33 3.426-.99zm22.868 5.75V26.6h-10.669V11.527h10.346v1.378h-8.75v5.362h7.802v1.356h-7.803v5.599h9.074z"/>
    </defs>
    <g fill="none" fill-rule="evenodd">
        <g stroke="#0195A1" transform="translate(1 1)">
            <ellipse cx="19.018" cy="19" stroke-width=".717" rx="19.018" ry="19"/>
            <path stroke-width=".633" d="M18.978 18.255C24.504 12.247 29.458 0 18.978 0 8.497 0 0 8.551 0 19.1c0 10.548 13.452 5.163 18.978-.845z"/>
            <path fill="#0195A1" fill-rule="nonzero" stroke-width=".633" d="M11.158 23.66a10.125 10.125 0 0 1 2.557-9.946 10.047 10.047 0 0 1 9.968-2.55c-1.17 2.584-2.878 5.131-4.645 7.046-1.953 2.116-4.891 4.156-7.88 5.45z"/>
        </g>
        <g transform="translate(1 1)">
            <use fill="#000" xlink:href="#a"/>
            <use fill="#0195A1" xlink:href="#a"/>
        </g>
    </g>
</svg>
