<svg xmlns="http://www.w3.org/2000/svg" width="186" height="304" viewBox="0 0 186 304">
    <path fill="#393939" fill-rule="nonzero" d="M46.4 42.4L92.8-4l46.4 46.4-15.467 15.467L92.8 26.933 61.867 57.867 46.4 42.4zm77.333 15.467L139.2 73.333 123.733 88.8l-15.466-15.467 15.466-15.466zm0 30.933l15.467 15.467-15.467 15.466-15.466-15.466L123.733 88.8zm0 30.933L139.2 135.2l-15.467 15.467-15.466-15.467 15.466-15.467zm0 30.934l15.467 15.466-15.467 15.467-15.466-15.467 15.466-15.466zm0 30.933l15.467 15.467L108.267 228 92.8 212.533l30.933-30.933zm15.467 15.467l15.467-15.467 30.933 30.933-30.933 30.934L139.2 228l15.467-15.467-15.467-15.466zM108.267 228l15.466 15.467-15.466 15.466L92.8 243.467 108.267 228zm0 30.933l15.466 15.467L92.8 305.333 61.867 274.4l15.466-15.467L92.8 274.4l15.467-15.467zm-30.934 0l-15.466-15.466L77.333 228 92.8 243.467l-15.467 15.466zm0-30.933L46.4 197.067 61.867 181.6 92.8 212.533 77.333 228zM46.4 197.067l-15.467 15.466L46.4 228l-15.467 15.467L0 212.533 30.933 181.6 46.4 197.067zM61.867 181.6L46.4 166.133l15.467-15.466 15.466 15.466L61.867 181.6zm0-30.933L46.4 135.2l15.467-15.467L77.333 135.2l-15.466 15.467zm0-30.934L46.4 104.267 61.867 88.8l15.466 15.467-15.466 15.466zm0-30.933L46.4 73.333l15.467-15.466 15.466 15.466L61.867 88.8z"/>
</svg>
