<svg xmlns="http://www.w3.org/2000/svg" width="213" height="31" viewBox="0 0 213 31">
    <g fill="none" fill-rule="evenodd">
        <path fill="#FFF" d="M12.778 18.622H4.456v5.72h9.727V27.5H.532V7.238h13.61v3.187H4.456v5.107h8.322v3.09zm11.661-1.476l3.312-4.703h4.161l-5.051 7.39 5.232 7.667h-4.175l-3.465-4.926-3.437 4.926h-4.189l5.233-7.668-5.038-7.39h4.161l3.256 4.704zm16.88 7.543c.381 0 .743-.056 1.086-.167.343-.111.645-.27.905-.473.26-.204.461-.45.605-.738.144-.287.206-.607.188-.96h3.646a4.49 4.49 0 0 1-.48 2.171 5.357 5.357 0 0 1-1.385 1.726 6.649 6.649 0 0 1-2.039 1.134 7.319 7.319 0 0 1-2.456.41c-1.169 0-2.194-.197-3.075-.591a6.189 6.189 0 0 1-2.206-1.621 6.998 6.998 0 0 1-1.336-2.415 9.513 9.513 0 0 1-.452-2.97v-.418a9.65 9.65 0 0 1 .445-2.971 6.85 6.85 0 0 1 1.336-2.415 6.346 6.346 0 0 1 2.206-1.628c.876-.399 1.895-.598 3.054-.598.928 0 1.786.139 2.575.417.788.278 1.468.67 2.038 1.176a5.226 5.226 0 0 1 1.33 1.837c.315.719.463 1.524.445 2.414h-3.646a2.536 2.536 0 0 0-.167-1.057 2.378 2.378 0 0 0-.57-.863 2.826 2.826 0 0 0-.905-.578 3.03 3.03 0 0 0-1.155-.215c-.613 0-1.118.125-1.517.375-.4.25-.717.585-.953 1.002a4.517 4.517 0 0 0-.501 1.434 9.358 9.358 0 0 0-.147 1.67v.417c0 .585.047 1.148.14 1.69.092.544.257 1.021.494 1.434.236.413.556.745.96.995.403.25.916.376 1.538.376zM61.165 27.5a3.42 3.42 0 0 1-.237-.64 8.502 8.502 0 0 1-.167-.766 5.078 5.078 0 0 1-1.663 1.19 5.564 5.564 0 0 1-1.12.362 6.26 6.26 0 0 1-1.322.132c-.77 0-1.477-.111-2.122-.334a5.043 5.043 0 0 1-1.663-.932 4.179 4.179 0 0 1-1.475-3.229c0-1.586.591-2.813 1.774-3.68 1.183-.868 2.948-1.301 5.295-1.301h2.157v-.891c0-.724-.236-1.297-.71-1.719-.473-.422-1.155-.633-2.045-.633-.789 0-1.364.17-1.726.508-.362.339-.543.79-.543 1.357H51.73c0-.64.141-1.248.424-1.823a4.472 4.472 0 0 1 1.239-1.517c.542-.436 1.206-.782 1.99-1.037.784-.255 1.681-.382 2.692-.382.91 0 1.756.11 2.54.334.784.222 1.464.552 2.039.988a4.545 4.545 0 0 1 1.35 1.649c.324.663.487 1.43.487 2.303v6.457c0 .807.05 1.475.153 2.004.102.528.25.983.445 1.363v.237h-3.924zm-3.688-2.714c.39 0 .752-.046 1.086-.139.334-.093.635-.213.904-.362.27-.148.501-.317.696-.508.195-.19.348-.382.46-.577v-2.588h-1.977c-.603 0-1.118.058-1.545.174-.426.115-.774.278-1.043.487-.27.208-.469.459-.599.751a2.32 2.32 0 0 0-.195.953c0 .52.184.951.55 1.294.367.344.92.515 1.663.515zm12.19-18.661h8.42v18.23H82.4V27.5H69.667v-3.145h4.508V9.284h-4.508V6.125zm17.326 6.318h8.196v11.912h4.078V27.5H86.992v-3.145h4.286v-8.753h-4.286v-3.16zM91 8.588c0-.297.053-.573.16-.828.106-.255.257-.473.452-.654.195-.18.43-.322.703-.424.274-.102.577-.153.911-.153.687 0 1.232.192 1.635.577.404.385.606.88.606 1.482 0 .603-.202 1.097-.606 1.482-.403.385-.948.578-1.635.578-.334 0-.637-.051-.911-.153a2.094 2.094 0 0 1-.703-.425 1.859 1.859 0 0 1-.452-.654 2.124 2.124 0 0 1-.16-.828zm25.633 11.537c0 1.122-.123 2.152-.369 3.089-.246.937-.614 1.744-1.106 2.421a5.142 5.142 0 0 1-1.837 1.58c-.733.375-1.586.563-2.56.563-.882 0-1.645-.164-2.29-.494-.644-.329-1.199-.79-1.663-1.384l-.18 1.6h-3.48V6.125h3.87v7.682a4.72 4.72 0 0 1 1.579-1.211c.607-.288 1.32-.431 2.136-.431.983 0 1.844.19 2.581.57a5.19 5.19 0 0 1 1.844 1.587c.492.677.86 1.486 1.106 2.428.246.942.37 1.969.37 3.082v.293zm-3.869-.293c0-.612-.046-1.192-.139-1.74a4.54 4.54 0 0 0-.48-1.44 2.615 2.615 0 0 0-.925-.98c-.39-.242-.877-.362-1.461-.362-.706 0-1.278.148-1.72.445-.44.297-.78.705-1.022 1.224v5.998c.241.52.582.928 1.023 1.225.44.297 1.023.445 1.746.445.585 0 1.067-.113 1.448-.34.38-.228.684-.543.911-.947.227-.404.387-.881.48-1.433.093-.552.14-1.153.14-1.802v-.293zm17.006 5.553c-.51.751-1.125 1.34-1.844 1.767a4.537 4.537 0 0 1-2.359.64c-.78 0-1.494-.12-2.143-.362a4.11 4.11 0 0 1-1.67-1.148c-.464-.524-.823-1.192-1.078-2.004-.255-.811-.383-1.788-.383-2.929v-8.906h3.869v8.934c0 .612.044 1.127.132 1.545.088.417.23.753.424 1.009.195.255.45.438.766.55.315.11.7.166 1.155.166.77 0 1.396-.146 1.878-.438a2.843 2.843 0 0 0 1.1-1.204V12.443h3.882V27.5h-3.507l-.222-2.115zm18.313-13.22c.585 0 1.125.039 1.621.118.497.079.898.165 1.204.257l-.57 3.855a13.29 13.29 0 0 0-1.566-.271c-.533-.06-1.041-.09-1.524-.09-1.085 0-1.955.208-2.609.625-.654.418-1.143 1.016-1.468 1.796V27.5h-3.869V12.443h3.604l.181 2.463a6.91 6.91 0 0 1 2.2-2.01 5.546 5.546 0 0 1 2.796-.731zm19.08 18.355H154.47V27.5h12.691v3.02z"/>
        <path fill="#EF5777" d="M166.69 11.328h-3.84L162.092 14h-2.601l4.192-12.797h2.241L170.04 14h-2.602l-.747-2.672zm-3.234-2.1h2.654l-1.31-4.711-1.344 4.71zM171.796.5h5.318v11.514h2.724V14h-8.042v-1.986h2.848V2.495h-2.848V.5zm18.835 8.833c0 .691-.08 1.333-.241 1.925a4.658 4.658 0 0 1-.712 1.534c-.314.43-.702.769-1.165 1.015-.463.246-.993.369-1.59.369-.51 0-.959-.088-1.345-.264a3.063 3.063 0 0 1-1.011-.738v4.482h-2.443V4.49h2.258l.088.932a3.102 3.102 0 0 1 1.037-.818c.399-.193.865-.29 1.398-.29.603 0 1.137.116 1.6.348.462.231.852.56 1.168.984.317.425.556.935.717 1.53.16.594.241 1.252.241 1.972v.185zm-2.443-.185c0-.398-.037-.772-.11-1.12a2.857 2.857 0 0 0-.343-.905 1.755 1.755 0 0 0-.597-.602c-.243-.147-.538-.22-.884-.22-.427 0-.777.083-1.05.25a1.7 1.7 0 0 0-.637.708v3.972c.152.3.365.538.637.717.273.178.629.268 1.068.268.346 0 .64-.076.883-.229.243-.152.441-.36.594-.624.152-.263.263-.57.334-.918.07-.349.105-.72.105-1.112v-.185zm7.145-3.348a3.557 3.557 0 0 1 1.156-1.09 2.98 2.98 0 0 1 1.525-.396c.498 0 .955.075 1.371.225.416.149.774.382 1.073.698.298.317.531.722.698 1.218.167.495.25 1.09.25 1.788V14h-2.443V8.226c0-.34-.042-.633-.127-.88a1.485 1.485 0 0 0-.365-.597 1.475 1.475 0 0 0-.571-.338 2.414 2.414 0 0 0-.756-.11c-.41 0-.766.073-1.068.22-.302.146-.55.351-.743.615V14h-2.443V.5h2.443v5.3zm14.3 8.2a2.16 2.16 0 0 1-.15-.404 5.37 5.37 0 0 1-.105-.484 3.207 3.207 0 0 1-1.05.752c-.214.096-.45.173-.707.228a3.954 3.954 0 0 1-.835.084c-.487 0-.933-.07-1.34-.211a3.185 3.185 0 0 1-1.051-.589 2.64 2.64 0 0 1-.932-2.04c0-1.001.374-1.776 1.121-2.324.747-.548 1.862-.822 3.344-.822h1.363v-.562c0-.457-.15-.819-.449-1.086-.299-.266-.73-.4-1.292-.4-.498 0-.861.108-1.09.321-.228.214-.342.5-.342.857h-2.444c0-.404.09-.788.268-1.151.18-.363.44-.683.783-.958a3.923 3.923 0 0 1 1.256-.655c.496-.161 1.062-.242 1.701-.242.574 0 1.109.07 1.604.211.495.141.924.349 1.288.624.363.276.647.623.852 1.042.205.419.308.904.308 1.455v4.078c0 .51.032.931.097 1.265.064.334.158.621.28.862V14h-2.478zm-2.329-1.714a2.554 2.554 0 0 0 1.257-.316c.17-.094.316-.201.44-.321.123-.12.22-.242.29-.365V9.65h-1.249c-.38 0-.706.037-.975.11-.27.074-.49.176-.66.308-.17.132-.295.29-.377.475a1.465 1.465 0 0 0-.123.602c0 .328.115.6.347.817.231.217.581.325 1.05.325z"/>
    </g>
</svg>
