<svg xmlns="http://www.w3.org/2000/svg" width="573" height="409" viewBox="0 0 573 409">
    <g fill="#000" fill-rule="nonzero" opacity=".2">
        <path d="M179.82 278.526a4.305 4.305 0 0 1-3.034-1.252l-24.249-24.24a4.28 4.28 0 0 1-1.251-3.034c0-1.14.454-2.229 1.251-3.034l24.249-24.24a4.289 4.289 0 0 1 6.06 0l24.248 24.24a4.28 4.28 0 0 1 1.252 3.034c0 1.14-.455 2.229-1.252 3.034l-24.248 24.24a4.27 4.27 0 0 1-3.026 1.252zM161.631 250l18.189 18.18L198.017 250l-18.197-18.18L161.631 250z"/>
        <path d="M106.963 245.714h51.428v8.572h-51.428v-8.572zm94.286 0h51.428v8.572H201.25v-8.572z"/>
        <path d="M257.143 262.857c-7.089 0-12.857-5.768-12.857-12.857 0-7.089 5.768-12.857 12.857-12.857C264.23 237.143 270 242.91 270 250c0 7.089-5.769 12.857-12.857 12.857zm0-17.143a4.298 4.298 0 0 0-4.286 4.286 4.298 4.298 0 0 0 4.286 4.286 4.298 4.298 0 0 0 4.286-4.286 4.298 4.298 0 0 0-4.286-4.286zm-154.286 17.143C95.77 262.857 90 257.09 90 250c0-7.089 5.769-12.857 12.857-12.857 7.089 0 12.857 5.768 12.857 12.857 0 7.089-5.768 12.857-12.857 12.857zm0-17.143A4.293 4.293 0 0 0 98.571 250a4.293 4.293 0 0 0 4.286 4.286 4.293 4.293 0 0 0 4.286-4.286 4.293 4.293 0 0 0-4.286-4.286zM436.82 408.526a4.305 4.305 0 0 1-3.034-1.252l-24.249-24.24a4.28 4.28 0 0 1-1.251-3.034c0-1.14.454-2.229 1.251-3.034l24.249-24.24a4.289 4.289 0 0 1 6.06 0l24.248 24.24a4.28 4.28 0 0 1 1.252 3.034c0 1.14-.455 2.229-1.252 3.034l-24.248 24.24a4.27 4.27 0 0 1-3.026 1.252zM418.631 380l18.189 18.18L455.017 380l-18.197-18.18L418.631 380z"/>
        <path d="M363.963 375.714h51.428v8.572h-51.428v-8.572zm94.286 0h51.428v8.572H458.25v-8.572z"/>
        <path d="M514.143 392.857c-7.089 0-12.857-5.768-12.857-12.857 0-7.089 5.768-12.857 12.857-12.857C521.23 367.143 527 372.91 527 380c0 7.089-5.769 12.857-12.857 12.857zm0-17.143a4.298 4.298 0 0 0-4.286 4.286 4.298 4.298 0 0 0 4.286 4.286 4.298 4.298 0 0 0 4.286-4.286 4.298 4.298 0 0 0-4.286-4.286zm-154.286 17.143C352.77 392.857 347 387.09 347 380c0-7.089 5.769-12.857 12.857-12.857 7.089 0 12.857 5.768 12.857 12.857 0 7.089-5.768 12.857-12.857 12.857zm0-17.143a4.293 4.293 0 0 0-4.286 4.286 4.293 4.293 0 0 0 4.286 4.286 4.293 4.293 0 0 0 4.286-4.286 4.293 4.293 0 0 0-4.286-4.286z"/>
        <g>
            <path d="M482.82 187.526a4.305 4.305 0 0 1-3.034-1.252l-24.249-24.24a4.28 4.28 0 0 1-1.251-3.034c0-1.14.454-2.229 1.251-3.034l24.249-24.24a4.289 4.289 0 0 1 6.06 0l24.248 24.24a4.28 4.28 0 0 1 1.252 3.034c0 1.14-.455 2.229-1.252 3.034l-24.248 24.24a4.27 4.27 0 0 1-3.026 1.252zM464.631 159l18.189 18.18L501.017 159l-18.197-18.18L464.631 159z"/>
            <path d="M409.963 154.714h51.428v8.572h-51.428v-8.572zm94.286 0h51.428v8.572H504.25v-8.572z"/>
            <path d="M560.143 171.857c-7.089 0-12.857-5.768-12.857-12.857 0-7.089 5.768-12.857 12.857-12.857C567.23 146.143 573 151.91 573 159c0 7.089-5.769 12.857-12.857 12.857zm0-17.143a4.298 4.298 0 0 0-4.286 4.286 4.298 4.298 0 0 0 4.286 4.286 4.298 4.298 0 0 0 4.286-4.286 4.298 4.298 0 0 0-4.286-4.286zm-154.286 17.143C398.77 171.857 393 166.09 393 159c0-7.089 5.769-12.857 12.857-12.857 7.089 0 12.857 5.768 12.857 12.857 0 7.089-5.768 12.857-12.857 12.857zm0-17.143a4.293 4.293 0 0 0-4.286 4.286 4.293 4.293 0 0 0 4.286 4.286 4.293 4.293 0 0 0 4.286-4.286 4.293 4.293 0 0 0-4.286-4.286z"/>
        </g>
        <g>
            <path d="M352.82 57.526a4.305 4.305 0 0 1-3.034-1.252l-24.249-24.24A4.28 4.28 0 0 1 324.286 29c0-1.14.454-2.229 1.251-3.034l24.249-24.24a4.289 4.289 0 0 1 6.06 0l24.248 24.24A4.28 4.28 0 0 1 381.346 29c0 1.14-.455 2.229-1.252 3.034l-24.248 24.24a4.27 4.27 0 0 1-3.026 1.252zM334.631 29l18.189 18.18L371.017 29 352.82 10.82 334.631 29z"/>
            <path d="M279.963 24.714h51.428v8.572h-51.428v-8.572zm94.286 0h51.428v8.572H374.25v-8.572z"/>
            <path d="M430.143 41.857c-7.089 0-12.857-5.768-12.857-12.857 0-7.089 5.768-12.857 12.857-12.857C437.23 16.143 443 21.91 443 29c0 7.089-5.769 12.857-12.857 12.857zm0-17.143A4.298 4.298 0 0 0 425.857 29a4.298 4.298 0 0 0 4.286 4.286A4.298 4.298 0 0 0 434.429 29a4.298 4.298 0 0 0-4.286-4.286zM275.857 41.857C268.77 41.857 263 36.09 263 29c0-7.089 5.769-12.857 12.857-12.857 7.089 0 12.857 5.768 12.857 12.857 0 7.089-5.768 12.857-12.857 12.857zm0-17.143A4.293 4.293 0 0 0 271.571 29a4.293 4.293 0 0 0 4.286 4.286A4.293 4.293 0 0 0 280.143 29a4.293 4.293 0 0 0-4.286-4.286z"/>
        </g>
        <g>
            <path d="M89.82 109.526a4.305 4.305 0 0 1-3.034-1.252l-24.249-24.24A4.28 4.28 0 0 1 61.286 81c0-1.14.454-2.229 1.251-3.034l24.249-24.24a4.289 4.289 0 0 1 6.06 0l24.248 24.24A4.28 4.28 0 0 1 118.346 81c0 1.14-.455 2.229-1.252 3.034l-24.248 24.24a4.27 4.27 0 0 1-3.026 1.252zM71.631 81L89.82 99.18 108.017 81 89.82 62.82 71.631 81z"/>
            <path d="M16.963 76.714H68.39v8.572H16.963v-8.572zm94.286 0h51.428v8.572H111.25v-8.572z"/>
            <path d="M167.143 93.857c-7.089 0-12.857-5.768-12.857-12.857 0-7.089 5.768-12.857 12.857-12.857C174.23 68.143 180 73.91 180 81c0 7.089-5.769 12.857-12.857 12.857zm0-17.143A4.298 4.298 0 0 0 162.857 81a4.298 4.298 0 0 0 4.286 4.286A4.298 4.298 0 0 0 171.429 81a4.298 4.298 0 0 0-4.286-4.286zM12.857 93.857C5.77 93.857 0 88.09 0 81c0-7.089 5.769-12.857 12.857-12.857 7.089 0 12.857 5.768 12.857 12.857 0 7.089-5.768 12.857-12.857 12.857zm0-17.143A4.293 4.293 0 0 0 8.571 81a4.293 4.293 0 0 0 4.286 4.286A4.293 4.293 0 0 0 17.143 81a4.293 4.293 0 0 0-4.286-4.286z"/>
        </g>
    </g>
</svg>
