<svg xmlns="http://www.w3.org/2000/svg" width="154" height="35" viewBox="0 0 154 35">
    <g fill="none" fill-rule="evenodd">
        <text fill="#FFF" font-family="Lato-Bold, Lato" font-size="20" font-weight="bold">
            <tspan x="41" y="24">Tensus Corp.</tspan>
        </text>
        <g fill-rule="nonzero">
            <circle cx="17.157" cy="17.157" r="17.157" fill="#FFF"/>
            <g fill="#000">
                <path d="M16.98 20.503a.478.478 0 0 1-.337-.14l-2.694-2.693a.476.476 0 0 1 0-.674l2.694-2.693a.477.477 0 0 1 .673 0l2.694 2.693a.476.476 0 0 1 0 .674l-2.694 2.694a.474.474 0 0 1-.336.139zm-2.021-3.17l2.021 2.02 2.022-2.02-2.022-2.02-2.021 2.02z"/>
                <path d="M8.885 16.857h5.714v.953H8.885v-.953zm10.476 0h5.714v.953h-5.714v-.953z"/>
                <path d="M25.571 18.762a1.43 1.43 0 0 1-1.428-1.429 1.43 1.43 0 0 1 1.428-1.428A1.43 1.43 0 0 1 27 17.333a1.43 1.43 0 0 1-1.429 1.429zm0-1.905a.478.478 0 0 0-.476.476c0 .262.215.477.476.477a.478.478 0 0 0 .477-.477.478.478 0 0 0-.477-.476zM8.43 18.762A1.43 1.43 0 0 1 7 17.333a1.43 1.43 0 0 1 1.429-1.428 1.43 1.43 0 0 1 1.428 1.428 1.43 1.43 0 0 1-1.428 1.429zm0-1.905a.477.477 0 1 0 .001.954.477.477 0 0 0-.001-.954z"/>
            </g>
        </g>
    </g>
</svg>
