<svg xmlns="http://www.w3.org/2000/svg" width="15" height="13" viewBox="0 0 15 13">
    <path fill="#FFF" fill-rule="nonzero" d="M4.997 2.425v10.061a.618.618 0 0 1-.103.365.348.348 0 0 1-.305.149.634.634 0 0 1-.277-.067l-3.89-1.998a.713.713 0 0 1-.295-.288.797.797 0 0 1-.127-.404V.471A.5.5 0 0 1 .084.178a.274.274 0 0 1 .244-.12c.08 0 .202.043.37.13l4.28 2.194c.01.014.019.029.019.043zm.534.865l4.472 7.424-4.472-2.276V3.29zM15 3.443v9.038c0 .144-.037.26-.117.346a.411.411 0 0 1-.319.135.789.789 0 0 1-.394-.11l-3.689-1.888L15 3.444zm-.023-1.027c0 .019-.718 1.215-2.147 3.597-1.43 2.382-2.274 3.774-2.518 4.182L7.05 4.76 9.764.24A.473.473 0 0 1 10.2 0c.08 0 .15.02.216.053l4.528 2.315c.019.01.033.024.033.048z"/>
</svg>
