<svg xmlns="http://www.w3.org/2000/svg" width="15" height="13" viewBox="0 0 15 13">
    <path fill="#FFF" fill-rule="nonzero" d="M15 1.537a5.825 5.825 0 0 1-1.768.517A3.249 3.249 0 0 0 14.586.24a5.942 5.942 0 0 1-1.955.796A2.989 2.989 0 0 0 10.386 0C8.685 0 7.309 1.468 7.309 3.281c0 .256.027.508.078.75C4.829 3.89 2.563 2.585 1.045.6a3.43 3.43 0 0 0-.42 1.65c0 1.137.547 2.141 1.371 2.732A2.931 2.931 0 0 1 .603 4.57v.042c0 1.59 1.06 2.917 2.468 3.219a2.962 2.962 0 0 1-1.389.057c.39 1.302 1.528 2.25 2.874 2.28a5.936 5.936 0 0 1-3.822 1.405c-.248 0-.494-.016-.734-.048A8.323 8.323 0 0 0 4.718 13c5.661 0 8.757-5 8.757-9.338 0-.14-.005-.285-.01-.423A6.584 6.584 0 0 0 15 1.537z"/>
</svg>
