<svg xmlns="http://www.w3.org/2000/svg" xmlns:xlink="http://www.w3.org/1999/xlink" width="231" height="41" viewBox="0 0 231 41"><defs><path id="ca00a" d="M287 2216.02c6.5.01 12.99-.09 19.48.06 5 .12 8.92 3.52 9.76 8.16.96 5.25-1.77 9.74-5.97 10.94-.11.03-.2.13-.34.23 4 1.15 6.4 3.8 7.07 7.77 1.11 6.56-2.5 11.95-9.34 12.71-1.51.17-3.05.17-4.58.18-5.36.03-10.72.02-16.08.03zm8.63 32.43c.11.04.22.11.33.11 2.7 0 5.39.1 8.07-.03 2.78-.13 4.43-1.83 4.5-4.35.08-2.53-1.44-4.35-4.16-4.68-1.72-.2-3.48-.1-5.22-.13-1.15-.02-2.3 0-3.52 0zm-.06-16.54h7.27c.46-.01.93 0 1.37-.1 1.69-.33 2.95-1.2 3.4-2.95.7-2.8-1.09-5.2-3.98-5.35-1.34-.07-2.7-.02-4.04-.02h-3.96c-.03.3-.06.47-.06.64v7.78zm143.2 24.36c-7.86-1.89-11.86-8.64-11.17-16.1.57-6.26 3.73-10.83 9.73-12.94 8.38-2.96 18.1 1.03 19.53 12.18.19 1.47.18 2.97.27 4.6h-21.64c.5 2.74 1.89 4.66 4.3 5.69 3.93 1.66 7.6.83 11.07-1.4.2-.13.4-.29.6-.43h.19l3.39 4.99c-1.12.7-2.15 1.45-3.27 2.01a17.87 17.87 0 0 1-6.61 1.78c-.26.03-.52.13-.78.19h-2.57c-1.02-.19-2.04-.33-3.05-.57zm10.89-17.55c.15-3.6-3.28-6.34-7.62-6.17-3.61.14-6.82 3.2-6.44 6.17zm19.48 17.35a14.17 14.17 0 0 1-10.42-12.6c-.5-5.7 1.15-10.54 5.73-14.14 6.94-5.45 20.57-4.22 23.28 8.69.2.92.3 1.87.37 2.81.06 1 .01 2.01.01 3.17h-21.5c.19 1.61.82 2.9 1.86 3.98 2.37 2.46 5.34 2.92 8.55 2.36a11.43 11.43 0 0 0 5.62-2.6l3.46 5.08c-.9.6-1.71 1.24-2.61 1.73a18.3 18.3 0 0 1-7.17 2.1c-.29.03-.58.12-.87.19h-2.57c-1.25-.25-2.52-.43-3.74-.77zm11.6-17.35c.18-3.49-3.17-6.26-7.38-6.18-3.73.07-6.96 3.03-6.7 6.18zm-150.17 18.12c-.92-.19-1.84-.35-2.75-.57-5.66-1.35-9-5.58-9-11.4v-17.72h7.64v16.87c-.02 2.4.71 4.42 2.98 5.46 2.45 1.12 4.97 1.08 7.24-.54 1.66-1.18 2.13-3 2.13-4.94v-16.87h7.57V2244.71c0 6.65-4.15 11.23-10.79 11.92-.33.04-.65.14-.97.2l-4.05.01zm72.16-.83v-39.96h27.8v3.88c0 .85-.07 1.72 0 2.57.08.85-.26 1.01-1.04 1-5.48-.02-10.97 0-16.45 0h-1.74v8.4h1.04c4.13 0 8.27.03 12.4-.01.84-.01 1.04.25 1.02 1.04-.05 2.1-.02 4.22-.02 6.43h-14.5V2256zm87.32-1.06v-26.83c0-1.18 0-1.19 1.21-1.18 4.2.04 8.4-.14 12.58.19 5.94.46 10.6 3.13 12.8 9 2.24 5.97.53 12.77-4.02 16.5a15.11 15.11 0 0 1-9.23 3.4c-4.31.16-8.63.05-12.95.05-.09 0-.18-.03-.4-.08zm7.29-5.09h4.2c4.94 0 8.04-2.78 8.6-7.69.4-3.52-1.51-7.03-4.55-8.28-2.67-1.1-5.47-.5-8.25-.66v16.63zm-148.5-16.18v-6.56h23.4c0 1.24-.06 2.48.02 3.71a3.96 3.96 0 0 1-1 2.91c-3.89 4.85-7.72 9.74-11.57 14.62l-.72.95h13.42v6.69h-23.63c0-1.83-.02-3.65.03-5.48 0-.3.32-.63.54-.92l11.87-15.08c.16-.21.3-.44.58-.84zm25.65 0v-5.86c0-.2.03-.42.06-.69h23.33c0 1.76.02 3.5-.02 5.23 0 .26-.26.54-.45.77l-12.06 15.3c-.2.24-.38.51-.68.94h1.17c3.8 0 7.6.02 11.4-.01.7 0 .96.17.94.92-.05 1.89-.02 3.78-.02 5.73h-23.65c0-1.88-.02-3.74.02-5.6 0-.23.25-.48.41-.69l11.59-14.73 1-1.3z"/></defs><g><g opacity=".3" transform="translate(-287 -2216)"><g opacity=".3"><use fill="#333" xlink:href="#ca00a"/></g></g></g></svg>