<svg xmlns="http://www.w3.org/2000/svg" xmlns:xlink="http://www.w3.org/1999/xlink" width="175" height="41" viewBox="0 0 175 41"><defs><path id="wvsfa" d="M1023 2236.5a20.5 20.5 0 1 1-40.99.01 20.5 20.5 0 0 1 40.99-.01"/><path id="wvsfb" d="M999.6 2236.5v-6.15h5.88a3.1 3.1 0 0 1 3.12 3.08 3.1 3.1 0 0 1-3.12 3.07zm-4.15-10.25v20.5h4.15v-6.15h5.88a7.22 7.22 0 0 0 7.27-7.17 7.22 7.22 0 0 0-7.27-7.18z"/><path id="wvsfc" d="M1044.4 2234.55c0 1.14-.88 1.85-2.02 1.85h-3.05v-3.72h3.05c1.14 0 2.01.7 2.01 1.87zm-5.06 9.63v-5.2h3.45c2.93 0 4.55-2.02 4.55-4.43 0-2.43-1.6-4.46-4.55-4.46h-6.34v14.1z"/><path id="wvsfd" d="M1049.27 2243.53v-9.99h2.6v1.32a4.4 4.4 0 0 1 3.17-1.56v2.5c-.2-.03-.42-.05-.72-.05-.86 0-2.01.48-2.43 1.12v6.68h-2.62z"/><path id="wvsfe" d="M1063.28 2238.42c0 1.52-.88 2.85-2.48 2.85-1.59 0-2.47-1.3-2.47-2.85 0-1.51.88-2.84 2.47-2.84 1.6 0 2.48 1.33 2.48 2.84zm-7.61 0a4.94 4.94 0 0 0 5.1 5.13 4.95 4.95 0 0 0 5.15-5.13 4.94 4.94 0 0 0-5.14-5.12 4.93 4.93 0 0 0-5.11 5.12z"/><path id="wvsff" d="M1072.18 2241.84c-1.43 0-2.4-1.18-2.4-2.92 0-1.73.97-2.91 2.4-2.91.81 0 1.7.48 2.12 1.14v3.55a2.64 2.64 0 0 1-2.12 1.14zm4.63 2.34v-14.09h-2.5v5.1a3.53 3.53 0 0 0-2.93-1.52c-2.4 0-4.18 1.99-4.18 5.25 0 3.36 1.8 5.26 4.18 5.26 1.16 0 2.18-.52 2.92-1.53v1.53z"/><path id="wvsfg" d="M1085.82 2243.55v-1.51a4.47 4.47 0 0 1-3.36 1.51c-2.1 0-3.08-1.2-3.08-3.15v-7.1h2.51v6.07c0 1.38.7 1.84 1.76 1.84.98 0 1.75-.56 2.18-1.14v-6.77h2.52v10.25z"/><path id="wvsfh" d="M1090.91 2238.4c0-2.98 2.16-5.1 5.14-5.1 2 0 3.18.87 3.83 1.76l-1.67 1.58a2.33 2.33 0 0 0-2.04-1.05c-1.55 0-2.62 1.13-2.62 2.83 0 1.7 1.09 2.84 2.62 2.84.88 0 1.58-.41 2.04-1.06l1.67 1.57a4.5 4.5 0 0 1-3.83 1.78 4.99 4.99 0 0 1-5.14-5.15"/><path id="wvsfi" d="M1102.1 2240.3v-4.87h-1.58v-2.15h1.58v-2.55h2.53v2.57h1.94v2.15h-1.94v4.21c0 .61.32 1.05.88 1.05.37 0 .74-.13.88-.3l.54 1.88c-.37.33-1.05.61-2.11.61-1.79-.01-2.72-.9-2.72-2.6"/><path id="wvsfj" d="M1122.6 2244.18v-6.07h-6.4v6.07h-2.87v-14.09h2.88v5.44h6.38v-5.44h2.91v14.1z"/><path id="wvsfk" d="M1134.5 2243.55v-1.51a4.47 4.47 0 0 1-3.36 1.51c-2.1 0-3.08-1.2-3.08-3.15v-7.1h2.51v6.07c0 1.38.7 1.84 1.76 1.84.98 0 1.75-.56 2.18-1.14v-6.77h2.52v10.25z"/><path id="wvsfl" d="M1146.04 2243.55v-6.15c0-1.35-.68-1.82-1.76-1.82-.99 0-1.74.57-2.18 1.14v6.83h-2.51v-10.01h2.51v1.25c.62-.72 1.8-1.49 3.34-1.49 2.11 0 3.12 1.22 3.12 3.1v7.15z"/><path id="wvsfm" d="M1152.06 2240.3v-4.87h-1.58v-2.15h1.58v-2.55h2.53v2.57h1.94v2.15h-1.94v4.21c0 .61.32 1.05.88 1.05.37 0 .74-.13.88-.3l.54 1.88c-.37.33-1.05.61-2.11.61-1.79-.01-2.72-.9-2.72-2.6"/></defs><g><g opacity=".3" transform="translate(-982 -2216)"><g opacity=".3"><use fill="#333" xlink:href="#wvsfa"/></g><g opacity=".3"><use fill="#fff" xlink:href="#wvsfb"/></g><g opacity=".3"><use fill="#333" xlink:href="#wvsfc"/></g><g opacity=".3"><use fill="#333" xlink:href="#wvsfd"/></g><g opacity=".3"><use fill="#333" xlink:href="#wvsfe"/></g><g opacity=".3"><use fill="#333" xlink:href="#wvsff"/></g><g opacity=".3"><use fill="#333" xlink:href="#wvsfg"/></g><g opacity=".3"><use fill="#333" xlink:href="#wvsfh"/></g><g opacity=".3"><use fill="#333" xlink:href="#wvsfi"/></g><g opacity=".3"><use fill="#333" xlink:href="#wvsfj"/></g><g opacity=".3"><use fill="#333" xlink:href="#wvsfk"/></g><g opacity=".3"><use fill="#333" xlink:href="#wvsfl"/></g><g opacity=".3"><use fill="#333" xlink:href="#wvsfm"/></g></g></g></svg>