<svg xmlns="http://www.w3.org/2000/svg" xmlns:xlink="http://www.w3.org/1999/xlink" width="143" height="41" viewBox="0 0 143 41"><defs><path id="78bca" d="M1553.64 2243.33c-.21 0-.3-.2-.39-.38l-2.77-4.67h-.42c-.5 0-2.06-.05-2.5-.08v4.75c0 .2-.16.38-.37.38h-1.93a.39.39 0 0 1-.38-.38v-12.61c0-.39.23-.52.61-.58 1-.15 3.16-.25 4.56-.25 2.97 0 5.7 1.06 5.7 4.35v.17c0 2.04-1.02 3.15-2.6 3.77l3.03 5.15c.04.05.04.1.04.15 0 .13-.08.23-.23.23zm-3.58-11.53c-.41 0-2.16.04-2.5.08v4.17c.3.02 2.16.06 2.5.06 1.97 0 3.04-.39 3.04-2.08v-.17c0-1.44-1.12-2.06-3.04-2.06zm12.8 9.4h4.87c.22 0 .39.17.39.38v1.23c0 .27-.1.37-.39.4-.61.1-1.87.27-4.15.27-3.2 0-4.9.02-4.9-3.94v-6.09c0-3.96 1.7-3.94 4.9-3.94a26 26 0 0 1 4.15.27c.3.04.39.13.39.4v1.23c0 .21-.17.4-.39.4h-4.87c-1.45 0-1.51.03-1.51 1.64v1.77h6.15c.21 0 .39.17.39.38v1.39c0 .21-.18.38-.39.38h-6.15v2.17c0 1.61.06 1.66 1.51 1.66zm13.9 2.28c-3.1 0-5.76-1.34-5.76-5.44v-8.01c0-.21.17-.37.38-.37h1.9c.22 0 .39.16.39.37v8c0 2.2 1.01 3.24 3.09 3.24s3.1-1.04 3.1-3.23v-8.01c0-.21.16-.37.37-.37h1.9c.22 0 .4.16.4.37v8c0 4.1-2.67 5.45-5.77 5.45zm18.42-11.59h-3.84v11.06c0 .2-.18.38-.4.38h-1.9a.39.39 0 0 1-.38-.38v-11.06h-3.84c-.21 0-.39-.13-.39-.34v-1.52c0-.21.18-.37.39-.37h10.36c.2 0 .38.16.38.37v1.52c0 .21-.18.34-.38.34zm23.77 11.44c-.2 0-.28-.2-.38-.38l-2.77-4.67h-.43c-.5 0-2.05-.05-2.5-.08v4.75c0 .2-.15.38-.36.38h-1.92a.39.39 0 0 1-.39-.38v-12.61c0-.39.23-.52.61-.58 1-.15 3.16-.25 4.56-.25 2.96 0 5.7 1.06 5.7 4.35v.17c0 2.04-1.02 3.15-2.6 3.77l3.03 5.15c.03.04.04.1.03.15 0 .13-.07.23-.23.23zm-3.58-11.53c-.4 0-2.15.04-2.5.08v4.17c.31.02 2.18.06 2.5.06 1.98 0 3.05-.39 3.05-2.08v-.17c0-1.44-1.12-2.06-3.05-2.06zm8.93 11.19c-.2-.04-.37-.18-.37-.39v-1.38c0-.21.18-.37.37-.37h.04c.77.1 2.57.35 4.35.35 1.7 0 2.23-.61 2.23-1.73 0-1.44-3.44-2.24-5.13-2.93a3.44 3.44 0 0 1-2.26-3.37c0-2.12 1.7-3.65 5.28-3.65 1.83 0 3.51.34 4.17.5.2.04.34.18.34.37v1.42c0 .19-.13.35-.33.35h-.03c-1.27-.12-2.59-.35-4.26-.35-1.43 0-2.5.5-2.5 1.36 0 .64.73 1.22 1.58 1.56l3.26 1.28c1.62.66 2.67 1.61 2.67 3.46 0 1.94-1.21 4.02-5.06 4.02a21 21 0 0 1-4.35-.5zm-24.1-3.45c0 1.61.05 1.66 1.51 1.66h4.87c.22 0 .39.17.39.38v1.23c0 .27-.1.37-.39.4-.61.1-1.87.27-4.15.27-3.2 0-4.9.02-4.9-3.94v-6.09c0-3.96 1.7-3.94 4.9-3.94 2.28 0 3.54.17 4.15.27.29.04.39.13.39.4v1.23c0 .21-.18.4-.39.4h-4.87c-1.46 0-1.52.03-1.52 1.64v1.77h6.16c.21 0 .38.17.38.38v1.39c0 .21-.17.38-.38.38h-6.16z"/><path id="78bcb" d="M1510.2 2231.65a.86.86 0 0 1-.81-1.5.86.86 0 0 1 .82 1.5zm-3.88 5.54a.5.5 0 0 1 .73.59.5.5 0 0 1-.25.3.5.5 0 0 1-.68-.2.5.5 0 0 1 .2-.69zm-.09-2.06a.59.59 0 1 1 .57 1.04.59.59 0 1 1-.56-1.03zm.54-1.98a.68.68 0 0 1 .9.27.67.67 0 0 1-.27.91.68.68 0 0 1-.9-.27.68.68 0 0 1 .27-.9zm1.09-1.71a.75.75 0 0 1 1.02.3.75.75 0 0 1-.31 1.03.75.75 0 1 1-.71-1.33zm-.84 7.7c.2-.1.46-.03.57.17.11.2.04.46-.16.58-.2.1-.46.03-.58-.17a.42.42 0 0 1 .17-.58zm9.74-7a.5.5 0 0 1 .2-.7.5.5 0 0 1 .69.21c.13.25.04.55-.2.69a.52.52 0 0 1-.7-.2zm-1.71-1.1a.6.6 0 0 1 .24-.8.59.59 0 1 1-.24.8zm-1.98-.53a.67.67 0 0 1 .27-.9.66.66 0 0 1 .96.77.67.67 0 0 1-.32.4.66.66 0 0 1-.9-.27zm-1.74-.92c.36-.2.8-.07 1 .29.2.37.07.82-.3 1.03a.76.76 0 0 1-1.02-.32.76.76 0 0 1 .32-1zm6.71 4.08a.43.43 0 0 1 .17-.57.43.43 0 0 1 .6.5c-.03.1-.1.19-.2.24-.2.11-.46.04-.57-.17zm-1.8 9.17a.87.87 0 0 1-1.16-.35.85.85 0 0 1 .35-1.16.85.85 0 0 1 1.16.35c.22.4.07.93-.34 1.16zm-7.37-1.99a.5.5 0 0 1-.2.68.5.5 0 0 1-.68-.2.5.5 0 0 1 .2-.68.5.5 0 0 1 .68.2zm1.71 1.1a.6.6 0 0 1-.24.8.58.58 0 0 1-.79-.25.58.58 0 0 1 .24-.8.59.59 0 0 1 .8.24zm1.98.52a.67.67 0 0 1-.27.91.67.67 0 0 1-.64-1.18.68.68 0 0 1 .91.27zm1.76.94a.74.74 0 0 1-1.02-.3.75.75 0 0 1 .3-1.03.76.76 0 0 1 1.02.3c.2.37.07.84-.3 1.03zm4.99-7.61a.5.5 0 1 1 .2-.7c.14.25.04.56-.2.7zm.09 2.05a.6.6 0 0 1-.8-.23.6.6 0 0 1 .24-.8.58.58 0 0 1 .8.24c.15.28.05.64-.24.8zm-.54 1.98a.67.67 0 0 1-.9-.27.67.67 0 0 1 1.19-.64c.16.33.05.73-.29.91zm-1.08 1.71a.75.75 0 0 1-1.02-.3.76.76 0 1 1 1.02.3z"/><path id="78bcc" d="M1515.8 2229.1a1.1 1.1 0 0 1-.83.09 1.1 1.1 0 0 1 .05-2.13 1.1 1.1 0 0 1 .79 2.04zm-10.02 1.95c.28.09.45.39.36.68a.54.54 0 0 1-1.04-.31.55.55 0 0 1 .68-.37zm1.9-2.1c.36.1.57.48.47.83a.67.67 0 0 1-1.24.14.67.67 0 0 1-.05-.52.67.67 0 0 1 .83-.45zm2.46-1.48a.85.85 0 1 1-.48 1.64.86.86 0 0 1-.59-1.07c.14-.45.61-.7 1.07-.57zm2.7-.61a.95.95 0 0 1 .65 1.2.96.96 0 1 1-.64-1.2zm-8.27 6.79a.4.4 0 0 1 .28.5.4.4 0 0 1-.5.28.4.4 0 0 1 .22-.78zm16.45 2.45a.54.54 0 1 1 .04.41.54.54 0 0 1-.04-.41zm-.63-2.72a.67.67 0 0 1 .84-.45c.35.1.55.47.45.83a.67.67 0 0 1-.83.45.67.67 0 0 1-.46-.83zm-1.48-2.45a.86.86 0 0 1 1.57-.17c.1.2.13.43.07.65a.85.85 0 0 1-1.64-.48zm-2.08-1.9a.96.96 0 0 1 1.76-.2c.12.23.15.5.08.74a.96.96 0 1 1-1.84-.54zm3.97 9.81a.4.4 0 1 1 .78.23.4.4 0 0 1-.5.27.41.41 0 0 1-.28-.5zm-9.38 6.33a1.1 1.1 0 1 1-2.11-.62 1.1 1.1 0 0 1 2.11.62zm-7.05-7.95a.54.54 0 0 1-.42.04.54.54 0 0 1-.37-.67.54.54 0 1 1 .78.63zm.89 2.4a.67.67 0 1 1-1.3-.38.67.67 0 0 1 1.3.37zm1.48 2.44a.85.85 0 1 1-1.64-.48.85.85 0 0 1 1.64.48zm2.08 1.9a.96.96 0 0 1-1.76.2.96.96 0 0 1-.08-.73.95.95 0 0 1 1.19-.66c.5.15.8.69.65 1.2zm11.05-2.02a.55.55 0 0 1 .3-1.04c.3.08.46.38.38.67a.55.55 0 0 1-.68.37zm-1.91 2.1a.68.68 0 0 1-.46-.83.68.68 0 0 1 1.24-.13c.08.16.1.34.05.51a.67.67 0 0 1-.83.45zm-2.45 1.49a.85.85 0 1 1 .48-1.64.85.85 0 0 1-.48 1.64zm-3.36-.58a.96.96 0 1 1 1.38 1.1.95.95 0 0 1-.73.08.96.96 0 0 1-.65-1.18z"/><path id="78bcd" d="M1519.81 2229.07a1.4 1.4 0 0 1-.06-2 1.41 1.41 0 1 1 2.06 1.95c-.54.56-1.43.59-2 .05zm-12.07-2.29a.7.7 0 0 1-1 .03.7.7 0 0 1 .97-1.01c.28.26.29.7.03.98zm3.5-2.33c.35.33.36.87.04 1.22a.86.86 0 0 1-1.49-.56.86.86 0 0 1 1.45-.66zm3.8-.27c.43.41.46 1.1.04 1.54a1.1 1.1 0 0 1-1.6-1.5 1.1 1.1 0 0 1 1.56-.04zm3.58.92a1.23 1.23 0 1 1-1.7 1.79 1.23 1.23 0 0 1 1.7-1.8zm-13.91 3.05a.52.52 0 1 1-.88.4c0-.14.05-.27.14-.37.2-.21.53-.22.74-.03zm18.1 12.84a.7.7 0 0 1 1-.03.7.7 0 0 1-.96 1.02.7.7 0 0 1-.03-1zm.9-3.6a.87.87 0 0 1 1.5.56.86.86 0 0 1-.84.89.86.86 0 0 1-.66-1.45zm-.27-3.8a1.1 1.1 0 0 1 1.59 1.5 1.1 1.1 0 1 1-1.6-1.5zm.41-3.57a1.23 1.23 0 1 1-1.68 1.8 1.23 1.23 0 0 1 1.68-1.8zm-2.95 14.1a.51.51 0 0 1 .73-.03.51.51 0 0 1 .02.73.52.52 0 1 1-.75-.7zm-17 1.84c-.56-.52-.6-1.4-.08-1.97a1.42 1.42 0 0 1 2.06 1.94c-.55.54-1.42.56-1.98.03zm-1.09-13.95a.7.7 0 0 1-1.01-.95.7.7 0 0 1 1.01.95zm-.9 3.61a.87.87 0 0 1-1.21.03.86.86 0 0 1 1.18-1.25c.34.33.36.87.03 1.22zm.28 3.8a1.1 1.1 0 1 1-.05-1.55c.45.4.47 1.1.05 1.54zm1.32 3.51a1.23 1.23 0 1 1-.93-2.07 1.23 1.23 0 0 1 .93 2.07zm14.41 4.27a.7.7 0 1 1 .96-1.01.7.7 0 0 1-.96 1.01zm-3.54 1.35a.86.86 0 1 1 1.46-.66c0 .23-.08.45-.24.62a.86.86 0 0 1-1.22.04zm-3.8.27a1.1 1.1 0 1 1 1.51-1.59 1.1 1.1 0 1 1-1.5 1.6zm-3.57-.91a1.23 1.23 0 1 1 1.68-1.8 1.23 1.23 0 1 1-1.68 1.8z"/><path id="78bce" d="M1525.3 2231.12a1.71 1.71 0 0 1 .9-2.26 1.72 1.72 0 0 1 1.36 3.15 1.72 1.72 0 0 1-2.25-.9zm-9.77-10.02a.95.95 0 0 1-1.86.37.94.94 0 0 1 .74-1.11.94.94 0 0 1 1.12.74zm4.06.88a1.15 1.15 0 1 1-2.23.57 1.15 1.15 0 0 1 2.23-.57zm3.74 1.81a1.43 1.43 0 0 1-2.73.85 1.43 1.43 0 1 1 2.73-.85zm2.99 2.66a1.58 1.58 0 1 1-2.96 1.1 1.58 1.58 0 0 1 2.96-1.1zm-19.3-3.38a.69.69 0 1 1-.54-1.26.69.69 0 0 1 .54 1.26zm17.54 21.81a.95.95 0 1 1 1.1 1.55.95.95 0 0 1-1.1-1.55zm3.45-3.32a1.15 1.15 0 1 1-1.94 1.22 1.15 1.15 0 0 1 1.94-1.22zm-.68-4.52a1.43 1.43 0 1 1 1.4 2.48 1.43 1.43 0 0 1-1.4-2.48zm-.05-4.17a1.58 1.58 0 1 1 1.4 2.83 1.58 1.58 0 0 1-1.4-2.83zm-8.67 17.07a.69.69 0 1 1 .55 1.26.69.69 0 0 1-.55-1.26zm-19.18-5.8a1.72 1.72 0 1 1-1.36-3.15 1.72 1.72 0 0 1 1.36 3.15zm1.64-16.02a.95.95 0 1 1-1.09-1.54.95.95 0 0 1 1.1 1.54zm-3.45 3.34a1.15 1.15 0 1 1 1.93-1.23 1.15 1.15 0 0 1-1.93 1.23zm.68 4.51a1.43 1.43 0 0 1-1.4-2.5 1.43 1.43 0 1 1 1.4 2.5zm.06 4.17a1.58 1.58 0 1 1-1.4-2.83 1.58 1.58 0 0 1 1.4 2.83zm11.75 11.77a.95.95 0 1 1 1.86-.37.95.95 0 0 1-1.86.37zm-4.06-.89a1.14 1.14 0 1 1 2.22-.56 1.14 1.14 0 0 1-2.22.56zm-3.74-1.8a1.42 1.42 0 0 1 .93-1.8 1.43 1.43 0 1 1-.93 1.8zm-2.99-2.67c-.3-.81.12-1.72.93-2.02a1.58 1.58 0 0 1 1.1 2.95 1.57 1.57 0 0 1-2.03-.93zm23.28 1.27a.74.74 0 1 1-.53 1.38.74.74 0 0 1 .53-1.38zm-7.67 3.1a.74.74 0 1 1 .22 1.47.74.74 0 0 1-.22-1.46zm-3.6-29.68a.74.74 0 1 1-1.46.21.74.74 0 0 1 1.46-.21zm-7.43 2.79a.74.74 0 1 1-1.16.92.74.74 0 0 1 1.16-.92z"/><path id="78bcf" d="M1530.24 2236.5a2.19 2.19 0 0 1 3.75-1.55 2.2 2.2 0 0 1-1.56 3.75 2.2 2.2 0 0 1-2.19-2.2zm-6.43-16.74a1.21 1.21 0 1 1-2.37-.5 1.21 1.21 0 0 1 2.37.5zm4.33 3.1c-.13.8-.88 1.34-1.68 1.22a1.47 1.47 0 0 1 .46-2.9 1.47 1.47 0 0 1 1.22 1.68zm5.65 8.67a2.02 2.02 0 1 1-4.03-.22 2.01 2.01 0 0 1 3.51-1.24c.36.4.55.92.52 1.46zm-20.97-13.77a.88.88 0 0 1 0-1.76.88.88 0 1 1 0 1.76zm9.56 34.55a1.21 1.21 0 1 1 .5 2.37 1.21 1.21 0 0 1-.5-2.37zm4.08-3.39a1.47 1.47 0 1 1 .43 2.9 1.47 1.47 0 0 1-.43-2.9zm3.15-4.43a1.83 1.83 0 1 1 .39 3.64 1.83 1.83 0 0 1-.39-3.64zm4.18-3.02a2.01 2.01 0 1 1-4.03.22 2.01 2.01 0 0 1 4.03-.22zm-20.1 14.65c0 .49-.39.88-.87.88a.88.88 0 0 1 0-1.76c.48 0 .88.4.88.88zM1491 2236.5a2.2 2.2 0 1 1 4.39 0 2.2 2.2 0 0 1-4.39 0zm12.26-15.81a1.21 1.21 0 1 1-.5-2.37 1.21 1.21 0 0 1 .5 2.37zm-4.09 3.39a1.47 1.47 0 1 1-.45-2.9 1.47 1.47 0 0 1 .45 2.9zm-3.15 4.43a1.83 1.83 0 1 1-.39-3.64 1.83 1.83 0 0 1 .39 3.64zm-2.05 4.93a2.02 2.02 0 1 1-.21-4.04 2.02 2.02 0 0 1 .2 4.04zm7.85 19.8a1.21 1.21 0 1 1 2.37.51 1.21 1.21 0 0 1-2.37-.5zm-4.32-3.1a1.47 1.47 0 1 1 2.9.46 1.47 1.47 0 0 1-2.9-.46zm-3.5-4.02a1.83 1.83 0 1 1 3.64.37 1.83 1.83 0 0 1-3.63-.37zm-2.16-4.65a2.02 2.02 0 1 1 3.37 1.6 2.01 2.01 0 0 1-2.85-.14c-.36-.4-.54-.92-.52-1.46zm25.8 13.07a.95.95 0 1 1 .5 1.83.95.95 0 0 1-.5-1.83zm-9.66 0a.95.95 0 1 1-.45 1.83.95.95 0 0 1 .45-1.83zm10.83-36.75a.95.95 0 0 1-1.16.67.95.95 0 0 1 .49-1.82.95.95 0 0 1 .67 1.15zm-10.16-.49a.95.95 0 1 1-1.83.5.95.95 0 0 1 1.83-.5z"/></defs><g><g opacity=".3" transform="translate(-1491 -2216)"><g opacity=".3"><use fill="#333" xlink:href="#78bca"/></g><g opacity=".3"><use fill="#333" xlink:href="#78bcb"/></g><g opacity=".3"><use fill="#333" xlink:href="#78bcc"/></g><g opacity=".3"><use fill="#333" xlink:href="#78bcd"/></g><g opacity=".3"><use fill="#333" xlink:href="#78bce"/></g><g opacity=".3"><use fill="#333" xlink:href="#78bcf"/></g></g></g></svg>