<svg xmlns="http://www.w3.org/2000/svg" xmlns:xlink="http://www.w3.org/1999/xlink" width="131" height="41" viewBox="0 0 131 41"><defs><path id="ej4ha" d="M803.5 2216l-6.48 19.01-3.99-15.5c-.9-3.51-2.07-3.51-2.73-3.51 0 0-1.46 0-2.9.41l-3.14 13.81 6.05 26.78h12.06l15.26-41H803.5z"/><path id="ej4hb" d="M773.06 2235.06l-4.82-15.51c-1.03-3.32-2.5-3.55-3.4-3.55 0 0-1.69 0-3.47.41v24.1l6.3 16.49h1.84l6.16-.41z"/><path id="ej4hc" d="M790.93 2216h-11c-.82 0-2.99 0-3.59 3.51l-6.39 37.49h10.02l8.24-37.49c.78-3.51 2.47-3.51 2.72-3.51z"/><path id="ej4hd" d="M725.14 2216.41s-1.74-.41-3.48-.41H687l4.3 11.71h10.63V2257h11.6v-29.29h11.61v-11.3z"/><path id="ej4he" d="M754.06 2216a3.51 3.51 0 0 0-3.51 3.52v14.78l-12.6-15.98a5.96 5.96 0 0 0-4.66-2.31h-11.96s2.92 0 2.92 3.5V2257h11.69v-22.34l15.9 20.16a5.83 5.83 0 0 0 4.6 2.18h5.8v-37.48c0-2.08 1.32-3.52 2.95-3.52z"/></defs><g><g opacity=".3" transform="translate(-687 -2216)"><g opacity=".3"><use fill="#333" xlink:href="#ej4ha"/></g><g opacity=".3"><use fill="#333" xlink:href="#ej4hb"/></g><g opacity=".3"><use fill="#333" xlink:href="#ej4hc"/></g><g opacity=".3"><use fill="#333" xlink:href="#ej4hd"/></g><g opacity=".3"><use fill="#333" xlink:href="#ej4he"/></g></g></g></svg>