<svg xmlns="http://www.w3.org/2000/svg" xmlns:xlink="http://www.w3.org/1999/xlink" width="104" height="23" viewBox="0 0 104 23"><defs><path id="8wqra" d="M878.87 985l-1.12-2.66h-6.15l-1.12 2.66h-2.5l5.53-12.6h2.5l5.45 12.6zm-6.4-4.73h4.42l-2.2-5.3zm16.23-4.99c2.21 0 3.56 1.42 3.56 3.7V985h-2.36v-5.33c0-1.35-.8-2.18-2.14-2.18-1.58.02-2.52 1.2-2.52 2.78V985h-2.34v-9.63h2.34v1.8c.69-1.28 1.9-1.87 3.46-1.89zm12.65.09h2.34v8.71c0 2.76-2 4.5-5.04 4.5-1.55 0-2.93-.5-4.07-1.28l.94-1.69c.88.65 1.85 1.01 3 1.01 1.73 0 2.83-.95 2.83-2.48V983a3.48 3.48 0 0 1-3.06 1.51c-2.55 0-4.28-1.87-4.28-4.64 0-2.72 1.7-4.57 4.21-4.57a3.57 3.57 0 0 1 3.13 1.51zm-2.55 7.3c1.5 0 2.55-1.13 2.55-2.75s-1.04-2.75-2.55-2.75c-1.52 0-2.56 1.15-2.58 2.75.02 1.62 1.05 2.76 2.58 2.76zm11.66-7.37c3.38 0 4.84 2.21 4.6 5.7h-7.1a2.69 2.69 0 0 0 2.75 2.2c1 0 1.91-.38 2.6-1.08l1.25 1.31a5.35 5.35 0 0 1-4.05 1.66c-2.98 0-4.95-1.98-4.95-4.88a4.67 4.67 0 0 1 4.9-4.91zm-2.56 4.14h5.04c-.05-1.42-1-2.32-2.46-2.32-1.39 0-2.36.9-2.58 2.32zm9.3-7.8h2.33V985h-2.34zm5.43.76h2.41v10.42h5.44V985h-7.85zm10.82-1.08c.73 0 1.26.54 1.26 1.3 0 .75-.53 1.3-1.26 1.3-.74 0-1.26-.55-1.26-1.3 0-.76.52-1.3 1.26-1.3zm-1.17 4.05h2.34V985h-2.34zm10.94 2.61a5.9 5.9 0 0 0-2.83-.88c-.75 0-1.3.25-1.3.84 0 1.62 5.1.78 5.1 4.23 0 1.97-1.74 2.92-3.8 2.92a6.18 6.18 0 0 1-3.97-1.35l.8-1.64a5.38 5.38 0 0 0 3.26 1.19c.81 0 1.43-.27 1.43-.9 0-1.78-5.03-.81-5-4.23 0-1.98 1.68-2.9 3.63-2.9 1.26 0 2.57.38 3.53 1.03zm8.06 4.66l.54 1.77c-.73.45-1.56.7-2.4.7-1.57 0-2.83-.9-2.83-2.88v-4.75h-1.35l-.02-1.71h1.37v-2.65h2.32v2.65h2.75v1.7h-2.75v4.34c0 .92.38 1.23 1 1.23.4 0 .85-.15 1.37-.4z"/><path id="8wqrb" d="M854 978.8s.66-1.12 3.08-1.12c2.43 0 3.7.42 3.7.42"/><path id="8wqrc" d="M856 984.2c-.16.41-.37.68-.64.8-.39.2-.75.2-1.22 0-.31-.12-1.5-1.51-2.73-3.39.64.96 1.5 2.01 1.72 2.38.28.48.71.7.85 1.02.32.69.3 1.23-.06 1.63-.28.21-.5.33-.65.35-.39.05-.83-.15-1.03-.25-.3-.16-1.84-2.87-.98-1.44"/><path id="8wqrd" d="M860.54 978.06s2.16-5.97 2.15-6.89c.1-.9-.13-1.38-.59-1.63-.47-.26-.94-.14-1.36.34-.47.34-3.1 7.13-3.1 7.13s-.33.41-.5.18c-.18-.24-3.06-7.65-3.06-7.65s-.47-.7-1.3-.5c-.82.2-.9 1.26-.82 1.8.07.53 2.05 7.73 2.05 7.73l-.18.15s-1.15-.94-2.26 0c-1.12.93 0 3.05 0 3.05s-.59-.13-.83-.08c-.57.1-.96.46-1.14.67a2.78 2.78 0 0 0-.6 1.97c.1 1.9 1.63 3.46 1.63 3.46s1.41 1.24 2.15 1.62c1 .5 2.02.59 3.06.59 1.23 0 2.67-.46 3.79-1.14a7.16 7.16 0 0 0 2.8-3.5c.97-2.46.45-4.73.26-5.75-.2-.9-2.15-1.55-2.15-1.55z"/><path id="8wqre" d="M854.08 978.94s.72 1.84 1.56 2.2c.85.36 3.94.07 4.31.37.37.3-1.65.8-2.25 1.31-.84.72-1.37 1.74-1.58 2.12-.53.98.37 2.8.33 3.04-.04.24-.41-1.2-.53-1.83-.05-.26.19-1.03 0-2.3a32.34 32.34 0 0 0-1.05-3.37"/></defs><g><g transform="translate(-848 -968)"><g><use fill="#ddd" xlink:href="#8wqra"/></g></g><g transform="translate(-848 -968)"><g><use fill="#fff" fill-opacity="0" stroke="#ddd" stroke-miterlimit="50" xlink:href="#8wqrb"/></g><g><use fill="#fff" fill-opacity="0" stroke="#ddd" stroke-miterlimit="50" xlink:href="#8wqrc"/></g><g><use fill="#fff" fill-opacity="0" stroke="#ddd" stroke-miterlimit="50" xlink:href="#8wqrd"/></g><g><use fill="#fff" fill-opacity="0" stroke="#ddd" stroke-miterlimit="50" xlink:href="#8wqre"/></g></g></g></svg>