<svg xmlns="http://www.w3.org/2000/svg" xmlns:xlink="http://www.w3.org/1999/xlink" width="118" height="15" viewBox="0 0 118 15"><defs><path id="ulota" d="M729.09 978.41a3.3 3.3 0 0 0-2.52-1.06c-1.55 0-2.63 1.15-2.63 2.85 0 1.72 1.08 2.88 2.63 2.88 1.11 0 2.01-.38 2.59-1.14l1.46 1.2c-.85 1.23-2.29 1.95-4.18 1.95a4.63 4.63 0 0 1-4.86-4.88c0-2.93 2-4.91 4.9-4.91 1.76 0 3.16.65 4.03 1.76z"/><path id="ulotb" d="M734.95 977.22a3.5 3.5 0 0 1 3.28-1.94v2.27c-2.04-.13-3.28 1.06-3.28 2.8V985h-2.34v-9.63h2.34z"/><path id="ulotc" d="M744.07 975.3c3.01 0 5.06 1.96 5.06 4.88 0 2.93-2.05 4.91-5.06 4.91-3.04 0-5.09-1.98-5.09-4.91 0-2.92 2.05-4.88 5.1-4.88zm0 2c-1.62 0-2.73 1.19-2.73 2.91 0 1.73 1.11 2.92 2.73 2.92 1.59 0 2.7-1.19 2.7-2.92 0-1.72-1.11-2.91-2.7-2.91z"/><path id="ulotd" d="M749.35 975.39l2.41-.02 2.36 7.27 2.29-7.27h2.35l2.33 7.27 2.3-7.27h2.36l-3.5 9.63h-2.39l-2.3-6.79-2.29 6.79h-2.4z"/><path id="ulote" d="M773.72 971.64h2.34V985h-2.34v-1.55a3.66 3.66 0 0 1-3.24 1.65c-2.75 0-4.59-2.01-4.59-4.95 0-2.91 1.84-4.87 4.54-4.87 1.47 0 2.59.59 3.29 1.67zm-2.74 11.5c1.62 0 2.74-1.2 2.74-2.93 0-1.73-1.12-2.94-2.74-2.94-1.6 0-2.71 1.23-2.73 2.94.02 1.73 1.11 2.93 2.73 2.93z"/><path id="ulotf" d="M783.08 973.56c-.68 0-1.24.37-1.24 1.22v.99h2.41v1.71h-2.41V985h-2.34v-7.52h-1.26v-1.71h1.26v-.92c0-2.21 1.64-3.31 3.42-3.31.81 0 1.66.23 2.3.67l-.86 1.78c-.4-.27-.86-.43-1.28-.43z"/><path id="ulotg" d="M792.19 975.37h2.36V985h-2.36v-1.78c-.67 1.28-1.82 1.87-3.35 1.87-2.16 0-3.49-1.42-3.49-3.69v-6.03h2.36v5.35c0 1.35.77 2.16 2.07 2.16 1.51-.02 2.41-1.21 2.41-2.76z"/><path id="uloth" d="M803.26 975.28c2.21 0 3.56 1.42 3.56 3.7V985h-2.36v-5.33c0-1.35-.8-2.18-2.14-2.18-1.58.02-2.52 1.2-2.52 2.78V985h-2.34v-9.63h2.34v1.8c.68-1.28 1.89-1.87 3.46-1.89z"/><path id="uloti" d="M816.4 971.64h2.34V985h-2.34v-1.55a3.66 3.66 0 0 1-3.24 1.65c-2.75 0-4.59-2.01-4.59-4.95 0-2.91 1.84-4.87 4.54-4.87 1.47 0 2.59.59 3.29 1.67zm-2.74 11.5c1.62 0 2.74-1.2 2.74-2.93 0-1.73-1.12-2.94-2.74-2.94-1.6 0-2.71 1.23-2.73 2.94.02 1.73 1.11 2.93 2.73 2.93z"/><path id="ulotj" d="M825.76 975.3c3.38 0 4.84 2.21 4.6 5.7h-7.1a2.69 2.69 0 0 0 2.75 2.2c.99 0 1.9-.38 2.59-1.08l1.26 1.32a5.35 5.35 0 0 1-4.05 1.65c-2.99 0-4.95-1.98-4.95-4.88a4.67 4.67 0 0 1 4.9-4.91zm-2.56 4.14h5.04c-.05-1.42-1-2.32-2.47-2.32-1.38 0-2.35.9-2.57 2.32z"/><path id="ulotk" d="M834.74 977.22a3.5 3.5 0 0 1 3.28-1.94v2.27c-2.04-.13-3.28 1.06-3.28 2.8V985h-2.34v-9.63h2.34z"/></defs><g><g transform="translate(-721 -971)"><g><use fill="#3bb0d2" xlink:href="#ulota"/></g><g><use fill="#3bb0d2" xlink:href="#ulotb"/></g><g><use fill="#3bb0d2" xlink:href="#ulotc"/></g><g><use fill="#3bb0d2" xlink:href="#ulotd"/></g><g><use fill="#3bb0d2" xlink:href="#ulote"/></g><g><use fill="#ddd" xlink:href="#ulotf"/></g><g><use fill="#ddd" xlink:href="#ulotg"/></g><g><use fill="#ddd" xlink:href="#uloth"/></g><g><use fill="#ddd" xlink:href="#uloti"/></g><g><use fill="#ddd" xlink:href="#ulotj"/></g><g><use fill="#ddd" xlink:href="#ulotk"/></g></g></g></svg>