<svg xmlns="http://www.w3.org/2000/svg" xmlns:xlink="http://www.w3.org/1999/xlink" width="20" height="20" viewBox="0 0 20 20"><defs><path id="vu9ba" d="M495.83 1232h-11.66a4.17 4.17 0 0 0-4.17 4.17v11.66c0 2.3 1.87 4.17 4.17 4.17h11.66c2.3 0 4.17-1.87 4.17-4.17v-11.66c0-2.3-1.86-4.17-4.17-4.17z"/><path id="vu9bb" d="M486.67 1247.84h-2.5v-9.17h2.5z"/><path id="vu9bc" d="M485.42 1237.61c-.8 0-1.46-.66-1.46-1.47 0-.81.65-1.47 1.46-1.47.8 0 1.46.66 1.46 1.47 0 .81-.66 1.47-1.46 1.47z"/><path id="vu9bd" d="M496.66 1247.84h-2.5v-4.67c0-2.81-3.33-2.6-3.33 0v4.67h-2.5v-9.17h2.5v1.47a3.17 3.17 0 0 1 5.83 2.06z"/></defs><g><g transform="translate(-480 -1232)"><use fill="#1e9df2" xlink:href="#vu9ba"/></g><g transform="translate(-480 -1232)"><use fill="#fafafa" xlink:href="#vu9bb"/></g><g transform="translate(-480 -1232)"><use fill="#fafafa" xlink:href="#vu9bc"/></g><g transform="translate(-480 -1232)"><use fill="#fafafa" xlink:href="#vu9bd"/></g></g></svg>