<?xml version="1.0" encoding="UTF-8"?>
<svg width="320px" height="1200px" viewBox="0 0 320 1200" version="1.1" xmlns="http://www.w3.org/2000/svg" xmlns:xlink="http://www.w3.org/1999/xlink">
    <!-- Generator: Sketch 47 (45396) - http://www.bohemiancoding.com/sketch -->
    <title>How it works MP</title>
    <desc>Created with Sketch.</desc>
    <defs>
        <rect id="path-1" x="20" y="100" width="140" height="80" rx="8"></rect>
        <rect id="path-2" x="20" y="80" width="140" height="80" rx="8"></rect>
        <rect id="path-3" x="20" y="60" width="140" height="80" rx="8"></rect>
        <rect id="path-4" x="0" y="0" width="140" height="80" rx="8"></rect>
        <rect id="path-5" x="0" y="0" width="80" height="40" rx="20"></rect>
        <rect id="path-6" x="0" y="0" width="140" height="80" rx="8"></rect>
        <rect id="path-7" x="20" y="660" width="140" height="80" rx="8"></rect>
        <rect id="path-8" x="20" y="640" width="140" height="80" rx="8"></rect>
        <rect id="path-9" x="20" y="620" width="140" height="80" rx="8"></rect>
        <rect id="path-10" x="0" y="0" width="140" height="80" rx="8"></rect>
        <rect id="path-11" x="0" y="0" width="140" height="80" rx="8"></rect>
        <rect id="path-12" x="0" y="0" width="140" height="80" rx="8"></rect>
        <rect id="path-13" x="0" y="0" width="140" height="80" rx="8"></rect>
    </defs>
    <g id="Board" stroke="none" stroke-width="1" fill="none" fill-rule="evenodd">
        <g id="How-it-works-MP">
            <g id="Rectangle">
                <use fill="#FFFFFF" fill-rule="evenodd" xlink:href="#path-1"></use>
                <rect stroke="#EE6E9F" stroke-width="2" x="21" y="101" width="138" height="78" rx="8"></rect>
            </g>
            <g id="Rectangle">
                <use fill="#FFFFFF" fill-rule="evenodd" xlink:href="#path-2"></use>
                <rect stroke="#7200DA" stroke-width="2" x="21" y="81" width="138" height="78" rx="8"></rect>
            </g>
            <g id="Rectangle">
                <use fill="#FFFFFF" fill-rule="evenodd" xlink:href="#path-3"></use>
                <rect stroke="#FFBD4A" stroke-width="2" x="21" y="61" width="138" height="78" rx="8"></rect>
            </g>
            <text id="在每一段时间内，市场都会提供一个有限的投" font-family="PingFangSC-Regular, PingFang SC" font-size="10" font-weight="normal" fill="#9B9B9B">
                <tspan x="180" y="51">在每一段时间内，市场都会</tspan>
                <tspan x="180" y="65">提供一个有限的投资非上市</tspan>
                <tspan x="180" y="79">公司股票的机会，并且这一</tspan>
                <tspan x="180" y="93">切都完全符合最可靠且盈利</tspan>
                <tspan x="180" y="107">潜力最大的标准。</tspan>
            </text>
            <g id="arrow" transform="translate(230.000000, 280.000000) rotate(90.000000) translate(-230.000000, -280.000000) translate(210.000000, 272.000000)">
                <path d="M0,8 L38,8" id="Path-2" stroke="#1E9DF2" stroke-width="2"></path>
                <polygon id="Triangle" fill="#1E9DF2" fill-rule="evenodd" points="30 16 30 0 40 8"></polygon>
            </g>
            <g id="arrow" transform="translate(229.500000, 721.000000) rotate(90.000000) translate(-229.500000, -721.000000) translate(-111.000000, 713.000000)">
                <path d="M0,8 L679,8" id="Path-2" stroke="#1E9DF2" stroke-width="2"></path>
                <polygon id="Triangle" fill="#1E9DF2" fill-rule="evenodd" points="671 16 671 0 681 8"></polygon>
            </g>
            <g id="turn" transform="translate(220.500000, 249.500000) scale(-1, -1) translate(-220.500000, -249.500000) translate(211.000000, 240.000000)" stroke="#1E9DF2" stroke-width="2" stroke-linecap="square">
                <path d="M-4.54747351e-13,0 L-4.54747351e-13,0 L-4.54747351e-13,-5.73628733e-16 C-2.34441796e-13,10.4934102 8.50658975,19 19,19 L19,19" id="Line-3"></path>
            </g>
            <g id="turn" transform="translate(90.000000, 221.000000)" stroke="#1E9DF2" stroke-width="2" stroke-linecap="square">
                <path d="M-4.54747351e-13,0 L-4.54747351e-13,0 L-4.54747351e-13,-5.73628733e-16 C-2.34441796e-13,10.4934102 8.50658975,19 19,19 L19,19" id="Line-3"></path>
            </g>
            <path d="M71.0544311,200 L109,200" id="Line-2" stroke="#1E9DF2" stroke-width="2" stroke-linecap="square" transform="translate(90.000000, 200.000000) rotate(90.000000) translate(-90.000000, -200.000000) "></path>
            <path d="M71.0544311,761 L110,761" id="Line-2" stroke="#1E9DF2" stroke-width="2" stroke-linecap="square" transform="translate(90.500000, 761.000000) rotate(90.000000) translate(-90.500000, -761.000000) "></path>
            <path d="M71.0544311,881 L110,881" id="Line-2" stroke="#1E9DF2" stroke-width="2" stroke-linecap="square" transform="translate(90.500000, 881.000000) rotate(90.000000) translate(-90.500000, -881.000000) "></path>
            <path d="M81.0544311,990 L100,990" id="Line-2" stroke="#1E9DF2" stroke-width="2" stroke-linecap="square" transform="translate(90.500000, 990.000000) rotate(90.000000) translate(-90.500000, -990.000000) "></path>
            <path d="M228,1020 L111,1020" id="Line-2" stroke="#1E9DF2" stroke-width="2" stroke-linecap="square"></path>
            <g id="box_with_text" transform="translate(20.000000, 40.000000)">
                <g id="pack">
                    <g id="Rectangle">
                        <use fill="#FFFFFF" fill-rule="evenodd" xlink:href="#path-4"></use>
                        <rect stroke="#9B9B9B" stroke-width="2" x="1" y="1" width="138" height="78" rx="8"></rect>
                    </g>
                </g>
                <text id="PRIVATE-ASSETS" font-family="OpenSans-Regular, Open Sans" font-size="15" font-weight="normal" fill="#333333">
                    <tspan x="15" y="46">PRIVATE ASSETS</tspan>
                </text>
            </g>
            <g id="start" transform="translate(120.000000, 220.000000)">
                <g id="Rectangle">
                    <use fill="#FFFFFF" fill-rule="evenodd" xlink:href="#path-5"></use>
                    <rect stroke="#1E9DF2" stroke-width="1" x="0.5" y="0.5" width="79" height="39" rx="19.5"></rect>
                </g>
                <text id="START" font-family="OpenSans-Regular, Open Sans" font-size="15" font-weight="normal" fill="#1E9DF2">
                    <tspan x="19" y="26">START</tspan>
                </text>
            </g>
            <g id="box_with_text" transform="translate(160.000000, 300.000000)">
                <g id="pack">
                    <g id="Rectangle">
                        <use fill="#FFFFFF" fill-rule="evenodd" xlink:href="#path-6"></use>
                        <rect stroke="#9B9B9B" stroke-width="2" x="1" y="1" width="138" height="78" rx="8"></rect>
                    </g>
                </g>
                <text id="PATS" font-family="OpenSans-Regular, Open Sans" font-size="15" font-weight="normal" fill="#333333">
                    <tspan x="53" y="46">PATS</tspan>
                </text>
            </g>
            <text id="PATS协议为投资者群体和分散性代币市场" font-family="OpenSans-Regular, Open Sans" font-size="10" font-weight="normal" fill="#9B9B9B">
                <tspan x="20" y="311">PATS</tspan>
                <tspan x="42.1728516" y="311" font-family="PingFangSC-Regular, PingFang SC">协议为投资者群体和</tspan>
                <tspan x="20" y="325" font-family="PingFangSC-Regular, PingFang SC">分散性代币市场发放合同。</tspan>
            </text>
            <path d="M201,240 L209,240" id="Line-2" stroke="#1E9DF2" stroke-width="2" stroke-linecap="square" transform="translate(205.000000, 240.000000) rotate(180.000000) translate(-205.000000, -240.000000) "></path>
            <path d="M111,240 L120,240" id="Line-2" stroke="#1E9DF2" stroke-width="2" stroke-linecap="square" transform="translate(115.500000, 240.000000) rotate(180.000000) translate(-115.500000, -240.000000) "></path>
            <g id="Rectangle">
                <use fill="#FFFFFF" fill-rule="evenodd" xlink:href="#path-7"></use>
                <rect stroke="#EE6E9F" stroke-width="2" x="21" y="661" width="138" height="78" rx="8"></rect>
            </g>
            <g id="Rectangle">
                <use fill="#FFFFFF" fill-rule="evenodd" xlink:href="#path-8"></use>
                <rect stroke="#7200DA" stroke-width="2" x="21" y="641" width="138" height="78" rx="8"></rect>
            </g>
            <g id="Rectangle">
                <use fill="#FFFFFF" fill-rule="evenodd" xlink:href="#path-9"></use>
                <rect stroke="#FFBD4A" stroke-width="2" x="21" y="621" width="138" height="78" rx="8"></rect>
            </g>
            <g id="box_with_text" transform="translate(20.000000, 600.000000)">
                <g id="pack">
                    <g id="Rectangle">
                        <use fill="#FFFFFF" fill-rule="evenodd" xlink:href="#path-10"></use>
                        <rect stroke="#9B9B9B" stroke-width="2" x="1" y="1" width="138" height="78" rx="8"></rect>
                    </g>
                </g>
                <text id="ERC20-TOKENS" font-family="OpenSans-Regular, Open Sans" font-size="15" font-weight="normal" fill="#333333">
                    <tspan x="18" y="46">ERC20 TOKENS</tspan>
                </text>
            </g>
            <g id="box_with_text" transform="translate(20.000000, 780.000000)">
                <g id="pack">
                    <g id="Rectangle">
                        <use fill="#FFFFFF" fill-rule="evenodd" xlink:href="#path-11"></use>
                        <rect stroke="#9B9B9B" stroke-width="2" x="1" y="1" width="138" height="78" rx="8"></rect>
                    </g>
                </g>
                <text id="DECENTRALIZED-SHAREH" font-family="OpenSans-Regular, Open Sans" font-size="15" font-weight="normal" fill="#333333">
                    <tspan x="12.3693848" y="26">DECENTRALIZED</tspan>
                    <tspan x="13.1384277" y="46">SHAREHOLDERS</tspan>
                    <tspan x="22.3999023" y="66">ASSOCIATION</tspan>
                </text>
            </g>
            <g id="box_with_text" transform="translate(20.000000, 900.000000)">
                <g id="pack">
                    <g id="Rectangle">
                        <use fill="#FFFFFF" fill-rule="evenodd" xlink:href="#path-12"></use>
                        <rect stroke="#9B9B9B" stroke-width="2" x="1" y="1" width="138" height="78" rx="8"></rect>
                    </g>
                </g>
                <text id="DECENTRALIZED-MARKET" font-family="OpenSans-Regular, Open Sans" font-size="15" font-weight="normal">
                    <tspan x="12.3693848" y="36" fill="#333333">DECENTRALIZED</tspan>
                    <tspan x="127.630615" y="36" fill="#000000"></tspan>
                    <tspan x="40.9228516" y="56" fill="#000000">MARKET</tspan>
                </text>
            </g>
            <g id="box_with_text" transform="translate(160.000000, 1060.000000)">
                <g id="pack">
                    <g id="Rectangle">
                        <use fill="#FFFFFF" fill-rule="evenodd" xlink:href="#path-13"></use>
                        <rect stroke="#9B9B9B" stroke-width="2" x="1" y="1" width="138" height="78" rx="8"></rect>
                    </g>
                </g>
                <text id="EXCHANGE" font-family="OpenSans-Regular, Open Sans" font-size="15" font-weight="normal" fill="#333333">
                    <tspan x="31" y="46">EXCHANGE</tspan>
                </text>
            </g>
            <g id="turn" transform="translate(220.500000, 630.500000) scale(-1, 1) translate(-220.500000, -630.500000) translate(211.000000, 621.000000)" stroke="#1E9DF2" stroke-width="2" stroke-linecap="square">
                <path d="M-4.54747351e-13,0 L-4.54747351e-13,0 L-4.54747351e-13,-5.73628733e-16 C-2.34441796e-13,10.4934102 8.50658975,19 19,19 L19,19" id="Line-3"></path>
            </g>
            <g id="arrow" transform="translate(185.000000, 640.000000) scale(-1, 1) translate(-185.000000, -640.000000) translate(160.000000, 632.000000)">
                <path d="M0,8 L48,8" id="Path-2" stroke="#1E9DF2" stroke-width="2"></path>
                <polygon id="Triangle" fill="#1E9DF2" fill-rule="evenodd" points="40 16 40 0 50 8"></polygon>
            </g>
            <g id="turn" transform="translate(220.500000, 810.500000) scale(-1, 1) translate(-220.500000, -810.500000) translate(211.000000, 801.000000)" stroke="#1E9DF2" stroke-width="2" stroke-linecap="square">
                <path d="M-4.54747351e-13,0 L-4.54747351e-13,0 L-4.54747351e-13,-5.73628733e-16 C-2.34441796e-13,10.4934102 8.50658975,19 19,19 L19,19" id="Line-3"></path>
            </g>
            <g id="arrow" transform="translate(185.000000, 820.000000) scale(-1, 1) translate(-185.000000, -820.000000) translate(160.000000, 812.000000)">
                <path d="M0,8 L48,8" id="Path-2" stroke="#1E9DF2" stroke-width="2"></path>
                <polygon id="Triangle" fill="#1E9DF2" fill-rule="evenodd" points="40 16 40 0 50 8"></polygon>
            </g>
            <g id="turn" transform="translate(220.500000, 930.500000) scale(-1, 1) translate(-220.500000, -930.500000) translate(211.000000, 921.000000)" stroke="#1E9DF2" stroke-width="2" stroke-linecap="square">
                <path d="M-4.54747351e-13,0 L-4.54747351e-13,0 L-4.54747351e-13,-5.73628733e-16 C-2.34441796e-13,10.4934102 8.50658975,19 19,19 L19,19" id="Line-3"></path>
            </g>
            <g id="arrow" transform="translate(185.000000, 940.000000) scale(-1, 1) translate(-185.000000, -940.000000) translate(160.000000, 932.000000)">
                <path d="M0,8 L48,8" id="Path-2" stroke="#1E9DF2" stroke-width="2"></path>
                <polygon id="Triangle" fill="#1E9DF2" fill-rule="evenodd" points="40 16 40 0 50 8"></polygon>
            </g>
            <g id="turn" transform="translate(90.000000, 1001.000000)" stroke="#1E9DF2" stroke-width="2" stroke-linecap="square">
                <path d="M-4.54747351e-13,0 L-4.54747351e-13,0 L-4.54747351e-13,-5.73628733e-16 C-2.34441796e-13,10.4934102 8.50658975,19 19,19 L19,19" id="Line-3"></path>
            </g>
            <text id="所有符号化的私人套件都会被添加到标准交易" font-family="PingFangSC-Regular, PingFang SC" font-size="9" font-weight="normal" fill="#9B9B9B">
                <tspan x="20" y="1071">所有符号化的私人套件都会被</tspan>
                <tspan x="20" y="1084">添加到标准交易所，每个人都</tspan>
                <tspan x="20" y="1097">可以在这里买到它们并同时成</tspan>
                <tspan x="20" y="1110">为分散性投资者群体的一员。</tspan>
            </text>
            <text id="任何PATS协议的代币所有者都可以通过智" font-family="PingFangSC-Regular, PingFang SC" font-size="10" font-weight="normal" fill="#9B9B9B">
                <tspan x="20" y="471">任何</tspan>
                <tspan x="40" y="471" font-family="OpenSans-Regular, Open Sans">PATS</tspan>
                <tspan x="62.1728516" y="471">协议的代币所有者都</tspan>
                <tspan x="20" y="485">可以通过智能合约或传统交换对</tspan>
                <tspan x="20" y="499">将来的汇编（操作）和代币交换</tspan>
                <tspan x="20" y="513">产生影响。</tspan>
            </text>
        </g>
    </g>
</svg>