<?xml version="1.0" encoding="UTF-8"?>
<svg width="1126px" height="488px" viewBox="0 0 1126 488" version="1.1" xmlns="http://www.w3.org/2000/svg" xmlns:xlink="http://www.w3.org/1999/xlink">
    <!-- Generator: Sketch 47 (45396) - http://www.bohemiancoding.com/sketch -->
    <title>scheme</title>
    <desc>Created with Sketch.</desc>
    <defs>
        <rect id="path-1" x="2" y="60" width="140" height="80" rx="8"></rect>
        <rect id="path-2" x="2" y="40" width="140" height="80" rx="8"></rect>
        <rect id="path-3" x="2" y="20" width="140" height="80" rx="8"></rect>
        <rect id="path-4" x="0" y="0" width="140" height="80" rx="8"></rect>
        <rect id="path-5" x="582" y="60" width="140" height="80" rx="8"></rect>
        <rect id="path-6" x="582" y="40" width="140" height="80" rx="8"></rect>
        <rect id="path-7" x="582" y="20" width="140" height="80" rx="8"></rect>
        <rect id="path-8" x="0" y="0" width="140" height="80" rx="8"></rect>
        <rect id="path-9" x="0" y="0" width="140" height="80" rx="8"></rect>
        <rect id="path-10" x="0" y="0" width="140" height="80" rx="8"></rect>
        <rect id="path-11" x="0" y="0" width="140" height="80" rx="8"></rect>
        <rect id="path-12" x="0" y="0" width="140" height="80" rx="8"></rect>
        <rect id="path-13" x="202" y="20" width="80" height="40" rx="20"></rect>
    </defs>
    <g id="Board" stroke="none" stroke-width="1" fill="none" fill-rule="evenodd">
        <g id="How-it-works-HD" transform="translate(-150.000000, -320.000000)">
            <g transform="translate(-11.000000, 1.000000)" id="scheme">
                <g transform="translate(161.000000, 319.000000)">
                    <g id="Rectangle">
                        <use fill="#FFFFFF" fill-rule="evenodd" xlink:href="#path-1"></use>
                        <rect stroke="#EE6E9F" stroke-width="2" x="3" y="61" width="138" height="78" rx="8"></rect>
                    </g>
                    <g id="Rectangle">
                        <use fill="#FFFFFF" fill-rule="evenodd" xlink:href="#path-2"></use>
                        <rect stroke="#7200DA" stroke-width="2" x="3" y="41" width="138" height="78" rx="8"></rect>
                    </g>
                    <g id="Rectangle">
                        <use fill="#FFFFFF" fill-rule="evenodd" xlink:href="#path-3"></use>
                        <rect stroke="#FFBD4A" stroke-width="2" x="3" y="21" width="138" height="78" rx="8"></rect>
                    </g>
                    <g id="box_with_text" transform="translate(2.000000, 0.000000)">
                        <g id="pack">
                            <g id="Rectangle">
                                <use fill="#FFFFFF" fill-rule="evenodd" xlink:href="#path-4"></use>
                                <rect stroke="#9B9B9B" stroke-width="2" x="1" y="1" width="138" height="78" rx="8"></rect>
                            </g>
                        </g>
                        <text id="PRIVATE-ASSETS" font-family="OpenSans-Regular, Open Sans" font-size="15" font-weight="normal" fill="#333333">
                            <tspan x="15" y="46">PRIVATE ASSETS</tspan>
                        </text>
                    </g>
                    <g id="Rectangle">
                        <use fill="#FFFFFF" fill-rule="evenodd" xlink:href="#path-5"></use>
                        <rect stroke="#EE6E9F" stroke-width="2" x="583" y="61" width="138" height="78" rx="8"></rect>
                    </g>
                    <g id="Rectangle">
                        <use fill="#FFFFFF" fill-rule="evenodd" xlink:href="#path-6"></use>
                        <rect stroke="#7200DA" stroke-width="2" x="583" y="41" width="138" height="78" rx="8"></rect>
                    </g>
                    <g id="Rectangle">
                        <use fill="#FFFFFF" fill-rule="evenodd" xlink:href="#path-7"></use>
                        <rect stroke="#FFBD4A" stroke-width="2" x="583" y="21" width="138" height="78" rx="8"></rect>
                    </g>
                    <g id="box_with_text" transform="translate(582.000000, 0.000000)">
                        <g id="pack">
                            <g id="Rectangle">
                                <use fill="#FFFFFF" fill-rule="evenodd" xlink:href="#path-8"></use>
                                <rect stroke="#9B9B9B" stroke-width="2" x="1" y="1" width="138" height="78" rx="8"></rect>
                            </g>
                        </g>
                        <text id="ERC20-TOKENS" font-family="OpenSans-Regular, Open Sans" font-size="15" font-weight="normal" fill="#333333">
                            <tspan x="18" y="46">ERC20 TOKENS</tspan>
                        </text>
                    </g>
                    <g id="box_with_text" transform="translate(342.000000, 0.000000)">
                        <g id="pack">
                            <g id="Rectangle">
                                <use fill="#FFFFFF" fill-rule="evenodd" xlink:href="#path-9"></use>
                                <rect stroke="#9B9B9B" stroke-width="2" x="1" y="1" width="138" height="78" rx="8"></rect>
                            </g>
                        </g>
                        <text id="PATS" font-family="OpenSans-Regular, Open Sans" font-size="15" font-weight="normal" fill="#333333">
                            <tspan x="53" y="46">PATS</tspan>
                        </text>
                    </g>
                    <g id="box_with_text" transform="translate(820.000000, 180.000000)">
                        <g id="pack">
                            <g id="Rectangle">
                                <use fill="#FFFFFF" fill-rule="evenodd" xlink:href="#path-10"></use>
                                <rect stroke="#9B9B9B" stroke-width="2" x="1" y="1" width="138" height="78" rx="8"></rect>
                            </g>
                        </g>
                        <text id="EXCHANGE" font-family="OpenSans-Regular, Open Sans" font-size="15" font-weight="normal" fill="#333333">
                            <tspan x="31" y="46">EXCHANGE</tspan>
                        </text>
                    </g>
                    <g id="box_with_text" transform="translate(582.000000, 180.000000)">
                        <g id="pack">
                            <g id="Rectangle">
                                <use fill="#FFFFFF" fill-rule="evenodd" xlink:href="#path-11"></use>
                                <rect stroke="#9B9B9B" stroke-width="2" x="1" y="1" width="138" height="78" rx="8"></rect>
                            </g>
                        </g>
                        <text id="DECENTRALIZED-SHAREH" font-family="OpenSans-Regular, Open Sans" font-size="15" font-weight="normal" fill="#333333">
                            <tspan x="12.3693848" y="26">DECENTRALIZED</tspan>
                            <tspan x="13.1384277" y="46">SHAREHOLDERS</tspan>
                            <tspan x="22.3999023" y="66">ASSOCIATION</tspan>
                        </text>
                    </g>
                    <g id="box_with_text" transform="translate(582.000000, 300.000000)">
                        <g id="pack">
                            <g id="Rectangle">
                                <use fill="#FFFFFF" fill-rule="evenodd" xlink:href="#path-12"></use>
                                <rect stroke="#9B9B9B" stroke-width="2" x="1" y="1" width="138" height="78" rx="8"></rect>
                            </g>
                        </g>
                        <text id="DECENTRALIZED-MARKET" font-family="OpenSans-Regular, Open Sans" font-size="15" font-weight="normal">
                            <tspan x="12.3693848" y="36" fill="#333333">DECENTRALIZED</tspan>
                            <tspan x="127.630615" y="36" fill="#000000"></tspan>
                            <tspan x="40.9228516" y="56" fill="#000000">MARKET</tspan>
                        </text>
                    </g>
                    <g id="arrow" transform="translate(142.000000, 32.000000)">
                        <path d="M0,8 L198,8" id="Path-2" stroke="#1E9DF2" stroke-width="2"></path>
                        <polygon id="Triangle" fill="#1E9DF2" fill-rule="evenodd" points="190 16 190 0 200 8"></polygon>
                    </g>
                    <g id="arrow" transform="translate(482.000000, 32.000000)">
                        <path d="M0,8 L98,8" id="Path-2" stroke="#1E9DF2" stroke-width="2"></path>
                        <polygon id="Triangle" fill="#1E9DF2" fill-rule="evenodd" points="90 16 90 0 100 8"></polygon>
                    </g>
                    <g id="arrow" transform="translate(722.000000, 212.000000)">
                        <path d="M0,8 L96,8" id="Path-2" stroke="#1E9DF2" stroke-width="2"></path>
                        <polygon id="Triangle" fill="#1E9DF2" fill-rule="evenodd" points="88 16 88 0 98 8"></polygon>
                    </g>
                    <g id="arrow" transform="translate(890.000000, 119.500000) rotate(90.000000) translate(-890.000000, -119.500000) translate(829.500000, 111.500000)">
                        <path d="M0,8 L119,8" id="Path-2" stroke="#1E9DF2" stroke-width="2"></path>
                        <polygon id="Triangle" fill="#1E9DF2" fill-rule="evenodd" points="111 16 111 0 121 8"></polygon>
                    </g>
                    <g id="arrow" transform="translate(891.000000, 290.000000) rotate(-90.000000) translate(-891.000000, -290.000000) translate(861.000000, 282.000000)">
                        <path d="M0,8 L58,8" id="Path-2" stroke="#1E9DF2" stroke-width="2"></path>
                        <polygon id="Triangle" fill="#1E9DF2" fill-rule="evenodd" points="50 16 50 0 60 8"></polygon>
                    </g>
                    <g id="arrow" transform="translate(542.000000, 212.000000)">
                        <path d="M0,8 L38,8" id="Path-2" stroke="#1E9DF2" stroke-width="2"></path>
                        <polygon id="Triangle" fill="#1E9DF2" fill-rule="evenodd" points="30 16 30 0 40 8"></polygon>
                    </g>
                    <g id="Rectangle">
                        <use fill="#FFFFFF" fill-rule="evenodd" xlink:href="#path-13"></use>
                        <rect stroke="#1E9DF2" stroke-width="1" x="202.5" y="20.5" width="79" height="39" rx="19.5"></rect>
                    </g>
                    <text id="START" font-family="OpenSans-Regular, Open Sans" font-size="15" font-weight="normal" fill="#1E9DF2">
                        <tspan x="221" y="46">START</tspan>
                    </text>
                    <g id="turn" transform="translate(522.000000, 201.000000)" stroke="#1E9DF2" stroke-width="2" stroke-linecap="square">
                        <path d="M-4.54747351e-13,0 L-4.54747351e-13,0 L-4.54747351e-13,-5.73628733e-16 C-2.34441796e-13,10.4934102 8.50658975,19 19,19 L19,19" id="Line-3"></path>
                    </g>
                    <g id="arrow" transform="translate(542.000000, 332.000000)">
                        <path d="M0,8 L38,8" id="Path-2" stroke="#1E9DF2" stroke-width="2"></path>
                        <polygon id="Triangle" fill="#1E9DF2" fill-rule="evenodd" points="30 16 30 0 40 8"></polygon>
                    </g>
                    <g id="turn" transform="translate(522.000000, 321.000000)" stroke="#1E9DF2" stroke-width="2" stroke-linecap="square">
                        <path d="M-4.54747351e-13,0 L-4.54747351e-13,0 L-4.54747351e-13,-5.73628733e-16 C-2.34441796e-13,10.4934102 8.50658975,19 19,19 L19,19" id="Line-3"></path>
                    </g>
                    <g id="turn" transform="translate(522.000000, 321.000000)" stroke="#1E9DF2" stroke-width="2" stroke-linecap="square">
                        <path d="M-4.54747351e-13,0 L-4.54747351e-13,0 L-4.54747351e-13,-5.73628733e-16 C-2.34441796e-13,10.4934102 8.50658975,19 19,19 L19,19" id="Line-3"></path>
                    </g>
                    <g id="turn" transform="translate(512.500000, 49.500000) scale(-1, -1) translate(-512.500000, -49.500000) translate(503.000000, 40.000000)" stroke="#1E9DF2" stroke-width="2" stroke-linecap="square">
                        <path d="M-4.54747351e-13,0 L-4.54747351e-13,0 L-4.54747351e-13,-5.73628733e-16 C-2.34441796e-13,10.4934102 8.50658975,19 19,19 L19,19" id="Line-3"></path>
                    </g>
                    <g id="turn" transform="translate(880.500000, 48.500000) scale(-1, -1) translate(-880.500000, -48.500000) translate(871.000000, 39.000000)" stroke="#1E9DF2" stroke-width="2" stroke-linecap="square">
                        <path d="M-4.54747351e-13,0 L-4.54747351e-13,0 L-4.54747351e-13,-5.73628733e-16 C-2.34441796e-13,10.4934102 8.50658975,19 19,19 L19,19" id="Line-3"></path>
                    </g>
                    <g id="turn" transform="translate(875.500000, 330.500000) scale(-1, 1) translate(-875.500000, -330.500000) translate(860.000000, 321.000000)" stroke="#1E9DF2" stroke-width="2" stroke-linecap="square">
                        <path d="M-4.54747351e-13,0 L-4.54747351e-13,0 L-4.54747351e-13,2.59038535e-16 C-9.46414883e-14,10.4934102 8.50658975,19 19,19 L31,19" id="Line-3"></path>
                    </g>
                    <g id="line" transform="translate(721.000000, 338.000000)" stroke="#1E9DF2" stroke-width="2" stroke-linecap="square">
                        <path d="M1,1.99191728 L137.5,1.99191728" id="Line-2"></path>
                    </g>
                    <g id="line" transform="translate(722.000000, 37.000000)" stroke="#1E9DF2" stroke-width="2" stroke-linecap="square">
                        <path d="M1.07246377,1.99191728 L147.463768,1.99191728" id="Line-2"></path>
                    </g>
                    <g id="line" transform="translate(522.500000, 189.488503) rotate(90.000000) translate(-522.500000, -189.488503) translate(392.011497, 187.988503)" stroke="#1E9DF2" stroke-width="2" stroke-linecap="square">
                        <path d="M1.89130435,1.99191728 L260.054348,1.99191728" id="Line-2"></path>
                    </g>
                    <text id="각-기간-마다-시장은-가장-신뢰할-수" font-family="AppleSDGothicNeo-Regular, Apple SD Gothic Neo" font-size="10" font-weight="normal" fill="#9B9B9B">
                        <tspan x="0" y="189">각</tspan>
                        <tspan x="8.65" y="189" font-family="OpenSans-Regular, Open Sans"> </tspan>
                        <tspan x="11.2476563" y="189">기간</tspan>
                        <tspan x="28.5476563" y="189" font-family="OpenSans-Regular, Open Sans"> </tspan>
                        <tspan x="31.1453125" y="189">마다</tspan>
                        <tspan x="48.4453125" y="189" font-family="OpenSans-Regular, Open Sans"> </tspan>
                        <tspan x="51.0429688" y="189">시장은</tspan>
                        <tspan x="76.9929688" y="189" font-family="OpenSans-Regular, Open Sans"> </tspan>
                        <tspan x="79.590625" y="189">가장</tspan>
                        <tspan x="96.890625" y="189" font-family="OpenSans-Regular, Open Sans"> </tspan>
                        <tspan x="99.4882813" y="189">신뢰할</tspan>
                        <tspan x="125.438281" y="189" font-family="OpenSans-Regular, Open Sans"> </tspan>
                        <tspan x="128.035938" y="189">수</tspan>
                        <tspan x="136.685938" y="189" font-family="OpenSans-Regular, Open Sans"> </tspan>
                        <tspan x="0" y="203">있고</tspan>
                        <tspan x="17.3" y="203" font-family="OpenSans-Regular, Open Sans"> </tspan>
                        <tspan x="19.8976563" y="203">잠재적으로</tspan>
                        <tspan x="63.1476562" y="203" font-family="OpenSans-Regular, Open Sans"> </tspan>
                        <tspan x="65.7453125" y="203">수익성</tspan>
                        <tspan x="91.6953125" y="203" font-family="OpenSans-Regular, Open Sans"> </tspan>
                        <tspan x="94.2929688" y="203">있는</tspan>
                        <tspan x="111.592969" y="203" font-family="OpenSans-Regular, Open Sans"> </tspan>
                        <tspan x="114.190625" y="203">투자</tspan>
                        <tspan x="0" y="217">에</tspan>
                        <tspan x="8.65" y="217" font-family="OpenSans-Regular, Open Sans"> </tspan>
                        <tspan x="11.2476563" y="217">대한</tspan>
                        <tspan x="28.5476563" y="217" font-family="OpenSans-Regular, Open Sans"> </tspan>
                        <tspan x="31.1453125" y="217">기준을</tspan>
                        <tspan x="57.0953125" y="217" font-family="OpenSans-Regular, Open Sans"> </tspan>
                        <tspan x="59.6929687" y="217">바탕으로</tspan>
                        <tspan x="94.2929688" y="217" font-family="OpenSans-Regular, Open Sans"> </tspan>
                        <tspan x="96.890625" y="217">완전한</tspan>
                        <tspan x="122.840625" y="217" font-family="OpenSans-Regular, Open Sans"> </tspan>
                        <tspan x="125.438281" y="217">비</tspan>
                        <tspan x="0" y="231">공개</tspan>
                        <tspan x="17.3" y="231" font-family="OpenSans-Regular, Open Sans"> </tspan>
                        <tspan x="19.8976563" y="231">회사</tspan>
                        <tspan x="37.1976563" y="231" font-family="OpenSans-Regular, Open Sans"> </tspan>
                        <tspan x="39.7953125" y="231">주식에</tspan>
                        <tspan x="65.7453125" y="231" font-family="OpenSans-Regular, Open Sans"> </tspan>
                        <tspan x="68.3429687" y="231">제한된</tspan>
                        <tspan x="94.2929688" y="231" font-family="OpenSans-Regular, Open Sans"> </tspan>
                        <tspan x="96.890625" y="231">투자</tspan>
                        <tspan x="114.190625" y="231" font-family="OpenSans-Regular, Open Sans"> </tspan>
                        <tspan x="116.788281" y="231">제안</tspan>
                        <tspan x="0" y="245">을</tspan>
                        <tspan x="8.65" y="245" font-family="OpenSans-Regular, Open Sans"> </tspan>
                        <tspan x="11.2476563" y="245">제시합니다</tspan>
                        <tspan x="54.4976562" y="245" font-family="OpenSans-Regular, Open Sans">.</tspan>
                    </text>
                    <text id="PATS-프로토콜은-투자자-커뮤니티" font-family="OpenSans-Regular, Open Sans" font-size="10" font-weight="normal" fill="#9B9B9B">
                        <tspan x="340" y="131">PATS </tspan>
                        <tspan x="364.770508" y="131" font-family="AppleSDGothicNeo-Regular, Apple SD Gothic Neo">프로토콜은</tspan>
                        <tspan x="408.020508" y="131"> </tspan>
                        <tspan x="410.618164" y="131" font-family="AppleSDGothicNeo-Regular, Apple SD Gothic Neo">투자자</tspan>
                        <tspan x="436.568164" y="131"> </tspan>
                        <tspan x="439.16582" y="131" font-family="AppleSDGothicNeo-Regular, Apple SD Gothic Neo">커뮤니티</tspan>
                        <tspan x="473.76582" y="131"> </tspan>
                        <tspan x="340" y="145" font-family="AppleSDGothicNeo-Regular, Apple SD Gothic Neo">및</tspan>
                        <tspan x="348.65" y="145"> </tspan>
                        <tspan x="351.247656" y="145" font-family="AppleSDGothicNeo-Regular, Apple SD Gothic Neo">분산</tspan>
                        <tspan x="368.547656" y="145"> </tspan>
                        <tspan x="371.145312" y="145" font-family="AppleSDGothicNeo-Regular, Apple SD Gothic Neo">된</tspan>
                        <tspan x="379.795313" y="145"> </tspan>
                        <tspan x="382.392969" y="145" font-family="AppleSDGothicNeo-Regular, Apple SD Gothic Neo">토큰</tspan>
                        <tspan x="399.692969" y="145"> </tspan>
                        <tspan x="402.290625" y="145" font-family="AppleSDGothicNeo-Regular, Apple SD Gothic Neo">시장을</tspan>
                        <tspan x="428.240625" y="145"> </tspan>
                        <tspan x="430.838281" y="145" font-family="AppleSDGothicNeo-Regular, Apple SD Gothic Neo">위해</tspan>
                        <tspan x="448.138281" y="145"> </tspan>
                        <tspan x="450.735938" y="145" font-family="AppleSDGothicNeo-Regular, Apple SD Gothic Neo">계약을</tspan>
                        <tspan x="476.685938" y="145"> </tspan>
                        <tspan x="340" y="159" font-family="AppleSDGothicNeo-Regular, Apple SD Gothic Neo">시작합니다</tspan>
                        <tspan x="383.25" y="159">.</tspan>
                    </text>
                    <text id="PATS-프로토콜을-통해-실현-된-모" font-family="OpenSans-Regular, Open Sans" font-size="10" font-weight="normal" fill="#9B9B9B">
                        <tspan x="580" y="431">PATS </tspan>
                        <tspan x="604.770508" y="431" font-family="AppleSDGothicNeo-Regular, Apple SD Gothic Neo">프로토콜을</tspan>
                        <tspan x="648.020508" y="431"> </tspan>
                        <tspan x="650.618164" y="431" font-family="AppleSDGothicNeo-Regular, Apple SD Gothic Neo">통해</tspan>
                        <tspan x="667.918164" y="431"> </tspan>
                        <tspan x="670.51582" y="431" font-family="AppleSDGothicNeo-Regular, Apple SD Gothic Neo">실현</tspan>
                        <tspan x="687.81582" y="431"> </tspan>
                        <tspan x="690.413477" y="431" font-family="AppleSDGothicNeo-Regular, Apple SD Gothic Neo">된</tspan>
                        <tspan x="699.063477" y="431"> </tspan>
                        <tspan x="701.661133" y="431" font-family="AppleSDGothicNeo-Regular, Apple SD Gothic Neo">모든</tspan>
                        <tspan x="718.961133" y="431"> </tspan>
                        <tspan x="580" y="445" font-family="AppleSDGothicNeo-Regular, Apple SD Gothic Neo">토큰</tspan>
                        <tspan x="597.3" y="445"> </tspan>
                        <tspan x="599.897656" y="445" font-family="AppleSDGothicNeo-Regular, Apple SD Gothic Neo">소유자는</tspan>
                        <tspan x="634.497656" y="445"> </tspan>
                        <tspan x="637.095312" y="445" font-family="AppleSDGothicNeo-Regular, Apple SD Gothic Neo">스마트</tspan>
                        <tspan x="663.045313" y="445"> </tspan>
                        <tspan x="665.642969" y="445" font-family="AppleSDGothicNeo-Regular, Apple SD Gothic Neo">계약</tspan>
                        <tspan x="682.942969" y="445"> </tspan>
                        <tspan x="685.540625" y="445" font-family="AppleSDGothicNeo-Regular, Apple SD Gothic Neo">또는</tspan>
                        <tspan x="702.840625" y="445"> </tspan>
                        <tspan x="705.438281" y="445" font-family="AppleSDGothicNeo-Regular, Apple SD Gothic Neo">표</tspan>
                        <tspan x="580" y="459" font-family="AppleSDGothicNeo-Regular, Apple SD Gothic Neo">준</tspan>
                        <tspan x="588.65" y="459"> </tspan>
                        <tspan x="591.247656" y="459" font-family="AppleSDGothicNeo-Regular, Apple SD Gothic Neo">거래를</tspan>
                        <tspan x="617.197656" y="459"> </tspan>
                        <tspan x="619.795313" y="459" font-family="AppleSDGothicNeo-Regular, Apple SD Gothic Neo">통해</tspan>
                        <tspan x="637.095312" y="459"> </tspan>
                        <tspan x="639.692969" y="459" font-family="AppleSDGothicNeo-Regular, Apple SD Gothic Neo">이후의</tspan>
                        <tspan x="665.642969" y="459"> </tspan>
                        <tspan x="668.240625" y="459" font-family="AppleSDGothicNeo-Regular, Apple SD Gothic Neo">어셈블러</tspan>
                        <tspan x="702.840625" y="459">(</tspan>
                        <tspan x="705.799609" y="459" font-family="AppleSDGothicNeo-Regular, Apple SD Gothic Neo">작</tspan>
                        <tspan x="580" y="473" font-family="AppleSDGothicNeo-Regular, Apple SD Gothic Neo">업</tspan>
                        <tspan x="588.65" y="473">) </tspan>
                        <tspan x="594.206641" y="473" font-family="AppleSDGothicNeo-Regular, Apple SD Gothic Neo">및</tspan>
                        <tspan x="602.856641" y="473"> </tspan>
                        <tspan x="605.454297" y="473" font-family="AppleSDGothicNeo-Regular, Apple SD Gothic Neo">교환</tspan>
                        <tspan x="622.754297" y="473"> </tspan>
                        <tspan x="625.351953" y="473" font-family="AppleSDGothicNeo-Regular, Apple SD Gothic Neo">토큰의</tspan>
                        <tspan x="651.301953" y="473"> </tspan>
                        <tspan x="653.899609" y="473" font-family="AppleSDGothicNeo-Regular, Apple SD Gothic Neo">이동에</tspan>
                        <tspan x="679.849609" y="473"> </tspan>
                        <tspan x="682.447266" y="473" font-family="AppleSDGothicNeo-Regular, Apple SD Gothic Neo">영향을</tspan>
                        <tspan x="708.397266" y="473"> </tspan>
                        <tspan x="710.994922" y="473" font-family="AppleSDGothicNeo-Regular, Apple SD Gothic Neo">끼</tspan>
                        <tspan x="580" y="487" font-family="AppleSDGothicNeo-Regular, Apple SD Gothic Neo">칠</tspan>
                        <tspan x="588.65" y="487"> </tspan>
                        <tspan x="591.247656" y="487" font-family="AppleSDGothicNeo-Regular, Apple SD Gothic Neo">수</tspan>
                        <tspan x="599.897656" y="487"> </tspan>
                        <tspan x="602.495312" y="487" font-family="AppleSDGothicNeo-Regular, Apple SD Gothic Neo">있습니다</tspan>
                        <tspan x="637.095312" y="487">.</tspan>
                    </text>
                    <text id="토큰화-된-모든-개인-자산은-표준-거" font-family="AppleSDGothicNeo-Regular, Apple SD Gothic Neo" font-size="10" font-weight="normal" fill="#9B9B9B">
                        <tspan x="990" y="189">토큰화</tspan>
                        <tspan x="1015.95" y="189" font-family="OpenSans-Regular, Open Sans"> </tspan>
                        <tspan x="1018.54766" y="189">된</tspan>
                        <tspan x="1027.19766" y="189" font-family="OpenSans-Regular, Open Sans"> </tspan>
                        <tspan x="1029.79531" y="189">모든</tspan>
                        <tspan x="1047.09531" y="189" font-family="OpenSans-Regular, Open Sans"> </tspan>
                        <tspan x="1049.69297" y="189">개인</tspan>
                        <tspan x="1066.99297" y="189" font-family="OpenSans-Regular, Open Sans"> </tspan>
                        <tspan x="1069.59063" y="189">자산은</tspan>
                        <tspan x="1095.54063" y="189" font-family="OpenSans-Regular, Open Sans"> </tspan>
                        <tspan x="1098.13828" y="189">표준</tspan>
                        <tspan x="1115.43828" y="189" font-family="OpenSans-Regular, Open Sans"> </tspan>
                        <tspan x="1118.03594" y="189">거</tspan>
                        <tspan x="990" y="203">래에</tspan>
                        <tspan x="1007.3" y="203" font-family="OpenSans-Regular, Open Sans"> </tspan>
                        <tspan x="1009.89766" y="203">추가가</tspan>
                        <tspan x="1035.84766" y="203" font-family="OpenSans-Regular, Open Sans"> </tspan>
                        <tspan x="1038.44531" y="203">됩니다</tspan>
                        <tspan x="1064.39531" y="203" font-family="OpenSans-Regular, Open Sans">. </tspan>
                        <tspan x="1069.6541" y="203">이</tspan>
                        <tspan x="1078.3041" y="203" font-family="OpenSans-Regular, Open Sans"> </tspan>
                        <tspan x="1080.90176" y="203">표준</tspan>
                        <tspan x="1098.20176" y="203" font-family="OpenSans-Regular, Open Sans"> </tspan>
                        <tspan x="1100.79941" y="203">거래에</tspan>
                        <tspan x="990" y="217">는</tspan>
                        <tspan x="998.65" y="217" font-family="OpenSans-Regular, Open Sans"> </tspan>
                        <tspan x="1001.24766" y="217">모든</tspan>
                        <tspan x="1018.54766" y="217" font-family="OpenSans-Regular, Open Sans"> </tspan>
                        <tspan x="1021.14531" y="217">사람이</tspan>
                        <tspan x="1047.09531" y="217" font-family="OpenSans-Regular, Open Sans"> </tspan>
                        <tspan x="1049.69297" y="217">개인</tspan>
                        <tspan x="1066.99297" y="217" font-family="OpenSans-Regular, Open Sans"> </tspan>
                        <tspan x="1069.59063" y="217">자산을</tspan>
                        <tspan x="1095.54063" y="217" font-family="OpenSans-Regular, Open Sans"> </tspan>
                        <tspan x="1098.13828" y="217">구매한</tspan>
                        <tspan x="1124.08828" y="217" font-family="OpenSans-Regular, Open Sans"> </tspan>
                        <tspan x="990" y="231">후</tspan>
                        <tspan x="998.65" y="231" font-family="OpenSans-Regular, Open Sans">, </tspan>
                        <tspan x="1003.69883" y="231">분산</tspan>
                        <tspan x="1020.99883" y="231" font-family="OpenSans-Regular, Open Sans"> </tspan>
                        <tspan x="1023.59648" y="231">된</tspan>
                        <tspan x="1032.24648" y="231" font-family="OpenSans-Regular, Open Sans"> </tspan>
                        <tspan x="1034.84414" y="231">투자자</tspan>
                        <tspan x="1060.79414" y="231" font-family="OpenSans-Regular, Open Sans"> </tspan>
                        <tspan x="1063.3918" y="231">커뮤니티의</tspan>
                        <tspan x="1106.6418" y="231" font-family="OpenSans-Regular, Open Sans"> </tspan>
                        <tspan x="1109.23945" y="231">구성</tspan>
                        <tspan x="990" y="245">원이</tspan>
                        <tspan x="1007.3" y="245" font-family="OpenSans-Regular, Open Sans"> </tspan>
                        <tspan x="1009.89766" y="245">될</tspan>
                        <tspan x="1018.54766" y="245" font-family="OpenSans-Regular, Open Sans"> </tspan>
                        <tspan x="1021.14531" y="245">수</tspan>
                        <tspan x="1029.79531" y="245" font-family="OpenSans-Regular, Open Sans"> </tspan>
                        <tspan x="1032.39297" y="245">있게</tspan>
                        <tspan x="1049.69297" y="245" font-family="OpenSans-Regular, Open Sans"> </tspan>
                        <tspan x="1052.29063" y="245">만들어</tspan>
                        <tspan x="1078.24062" y="245" font-family="OpenSans-Regular, Open Sans"> </tspan>
                        <tspan x="1080.83828" y="245">줍니다</tspan>
                        <tspan x="1106.78828" y="245" font-family="OpenSans-Regular, Open Sans">.</tspan>
                    </text>
                </g>
            </g>
        </g>
    </g>
</svg>