<svg xmlns="http://www.w3.org/2000/svg" xmlns:xlink="http://www.w3.org/1999/xlink" width="150" height="22" viewBox="0 0 150 22"><defs><path id="tljsa" d="M1128.14 972.4h10.28v2.14h-3.93V985h-2.43v-10.46h-3.92zm13.64 4.82a3.5 3.5 0 0 1 3.28-1.94v2.27c-2.03-.13-3.28 1.06-3.28 2.8V985h-2.34v-9.63h2.34zm12.57 7.78h-2.3v-1.17c-.67.85-1.75 1.28-3.12 1.28-2.07 0-3.37-1.28-3.37-2.99 0-1.78 1.32-2.88 3.66-2.9h2.8v-.25c0-1.12-.73-1.78-2.17-1.78-.9 0-1.87.3-2.86.9l-.85-1.62a7.75 7.75 0 0 1 4.23-1.19c2.52 0 3.94 1.28 3.96 3.42zm-4.86-1.7c1.35 0 2.41-.71 2.54-1.65v-.86h-2.43c-1.25 0-1.82.34-1.82 1.19 0 .8.65 1.33 1.7 1.33zm13.28-8.02c2.22 0 3.57 1.42 3.57 3.7V985h-2.36v-5.33c0-1.35-.81-2.18-2.14-2.18-1.59.02-2.52 1.2-2.52 2.78V985h-2.34v-9.63h2.34v1.8c.68-1.28 1.89-1.87 3.45-1.89zm11.9 2.7a5.9 5.9 0 0 0-2.83-.88c-.75 0-1.3.25-1.3.84 0 1.62 5.1.78 5.1 4.23 0 1.97-1.74 2.92-3.8 2.92a6.18 6.18 0 0 1-3.97-1.35l.8-1.64a5.38 5.38 0 0 0 3.26 1.19c.81 0 1.43-.27 1.43-.9 0-1.78-5.03-.81-5-4.23 0-1.98 1.68-2.9 3.63-2.9 1.26 0 2.57.38 3.53 1.03zm15.59-2.7c2.18 0 3.5 1.42 3.5 3.7V985h-2.35v-5.33c0-1.37-.81-2.2-2.1-2.2-1.52.06-2.44 1.21-2.44 2.78V985h-2.35v-5.33c0-1.37-.8-2.2-2.1-2.2-1.52.06-2.44 1.21-2.44 2.78V985h-2.34v-9.63h2.34v1.78c.67-1.28 1.85-1.85 3.38-1.87 1.7 0 2.87.85 3.32 2.3.63-1.56 1.89-2.28 3.58-2.3zm7.29-3.96c.74 0 1.26.54 1.26 1.3 0 .75-.52 1.3-1.26 1.3s-1.26-.55-1.26-1.3c0-.76.52-1.3 1.26-1.3zm-1.17 4.05h2.34V985h-2.34zm10.94 2.61a5.9 5.9 0 0 0-2.82-.88c-.76 0-1.3.25-1.3.84 0 1.62 5.1.78 5.1 4.23 0 1.97-1.75 2.92-3.8 2.92a6.18 6.18 0 0 1-3.98-1.35l.8-1.64a5.38 5.38 0 0 0 3.27 1.19c.8 0 1.42-.27 1.42-.9 0-1.78-5.02-.81-5-4.23 0-1.98 1.69-2.9 3.63-2.9 1.26 0 2.57.38 3.53 1.03zm8.68 0a5.9 5.9 0 0 0-2.83-.88c-.75 0-1.3.25-1.3.84 0 1.62 5.1.78 5.1 4.23 0 1.97-1.75 2.92-3.8 2.92a6.18 6.18 0 0 1-3.98-1.35l.81-1.64a5.38 5.38 0 0 0 3.26 1.19c.81 0 1.42-.27 1.42-.9 0-1.78-5.02-.81-5-4.23 0-1.98 1.7-2.9 3.64-2.9 1.26 0 2.57.38 3.52 1.03zm4.14-6.66c.74 0 1.26.54 1.26 1.3 0 .75-.52 1.3-1.26 1.3s-1.26-.55-1.26-1.3c0-.76.52-1.3 1.26-1.3zm-1.17 4.05h2.34V985h-2.34zm9.45-.07c3 0 5.06 1.96 5.06 4.88 0 2.93-2.06 4.91-5.06 4.91-3.04 0-5.1-1.98-5.1-4.91 0-2.92 2.06-4.88 5.1-4.88zm0 2c-1.62 0-2.74 1.18-2.74 2.91 0 1.73 1.12 2.92 2.74 2.92 1.58 0 2.7-1.19 2.7-2.92s-1.12-2.91-2.7-2.91zm12.89-2.02c2.21 0 3.56 1.42 3.56 3.7V985h-2.36v-5.33c0-1.35-.8-2.18-2.14-2.18-1.58.02-2.52 1.2-2.52 2.78V985h-2.34v-9.63h2.34v1.8c.68-1.28 1.89-1.87 3.46-1.89z"/><path id="tljsb" d="M1099.22 990l-4.22-7.33h8.44z"/><path id="tljsc" d="M1119.78 990l-4.22-7.33h8.44z"/><path id="tljsd" d="M1111.35 976.9h3.7v8.9h-3.7z"/><path id="tljse" d="M1100.13 984.4c.79 0 .66-.17.77-1.1.12-.94.5.56.4-.27-.11-.88 0-2.13 0-3.45v-3.27c0-.41.16-1.23.24-1.47.08-.24.3-.72.46-.91.4-.5.61-.86 1.3-1.35.68-.5 1.32-.8 1.86-.9.79-.13 2.12-.46 3.68.4.2.12 1.19.84 1.45 1.05 1.83 1.44 4.22 3.59 4.22 2.8 0-1.56-.54-3.02-1.44-4.25a9.07 9.07 0 0 0-7.14-3.68c-4.32 0-8.22 3.55-8.22 7.94 0 1.85-.16 5.03 0 7.09.15 2.06.17 1.15.35 1.6.61 1.6.27-.22 2.07-.22z"/><path id="tljsf" d="M1111.83 983.35c-.11-.95-.33-5.74-.4-7.01a8.8 8.8 0 0 0-.23-1.48 3.96 3.96 0 0 0-.47-.91c-.4-.5-.61-.87-1.3-1.36-.68-.5-1.33-.8-1.88-.9-.79-.13-2.12-.46-3.7.4-.19.12-1.18.84-1.45 1.05-1.84 1.46-4.24 3.6-4.24 2.82 0-4.4 4.27-7.96 8.62-7.96s8.25 3.57 8.25 7.97c0 1.87-.02 5.12-.18 7.18-.15 2.07.02 1.09-.15 1.53-.63 1.6-2.75-.4-2.87-1.33z"/><path id="tljsg" d="M1119.4 984.4c-.79 0-.66-.17-.77-1.1-.11-.94-.5.56-.4-.27.12-.88.01-2.13 0-3.45v-3.27c0-.41-.16-1.23-.24-1.47-.07-.24-.3-.72-.46-.91-.4-.5-.61-.86-1.3-1.35-.67-.5-1.31-.8-1.86-.9-.79-.13-2.12-.46-3.68.4-.2.12-1.19.84-1.45 1.05-1.83 1.44-4.22 3.59-4.22 2.8 0-1.56.54-3.02 1.44-4.25a9.07 9.07 0 0 1 7.14-3.68c4.33 0 8.22 3.55 8.22 7.94 0 1.85.16 5.03 0 7.09-.15 2.06-.17 1.15-.34 1.6-.62 1.6-.28-.22-2.08-.22z"/><path id="tljsh" d="M1108.22 983.35c.11-.95.33-5.74.4-7.01a8.8 8.8 0 0 1 .24-1.48c.08-.23.3-.72.46-.91.4-.5.62-.87 1.3-1.36.69-.5 1.33-.8 1.88-.9.79-.13 2.13-.46 3.7.4.2.12 1.19.84 1.45 1.05 1.84 1.46 4.24 3.6 4.24 2.82 0-4.4-4.27-7.96-8.62-7.96s-8.25 3.57-8.25 7.97c0 1.87.03 5.12.18 7.18.16 2.07-.02 1.09.16 1.53.62 1.6 2.75-.4 2.86-1.33z"/><path id="tljsi" d="M1105.02 976.38h3.7v8.9h-3.7z"/></defs><g><g transform="translate(-1095 -968)"><use fill="#ddd" xlink:href="#tljsa"/></g><g transform="translate(-1095 -968)"><use fill="#f8745c" xlink:href="#tljsb"/></g><g transform="translate(-1095 -968)"><use fill="#f8745c" xlink:href="#tljsc"/></g><g transform="translate(-1095 -968)"><use fill="#f8745c" xlink:href="#tljsd"/></g><g transform="translate(-1095 -968)"><use fill="#f8745c" xlink:href="#tljse"/></g><g transform="translate(-1095 -968)"><use fill="#f8745c" xlink:href="#tljsf"/></g><g transform="translate(-1095 -968)"><use fill="#f8745c" xlink:href="#tljsg"/></g><g transform="translate(-1095 -968)"><use fill="#f8745c" xlink:href="#tljsh"/></g><g transform="translate(-1095 -968)"><use fill="#f8745c" xlink:href="#tljsi"/></g></g></svg>