<svg xmlns="http://www.w3.org/2000/svg" xmlns:xlink="http://www.w3.org/1999/xlink" width="132.67" height="132.67" viewBox="0 0 199 199"><defs><path id="zg38a" d="M399 7392.5c0-54.95 44.55-99.5 99.5-99.5s99.5 44.55 99.5 99.5-44.55 99.5-99.5 99.5-99.5-44.55-99.5-99.5z"/><path id="zg38b" d="M402 7392.5a96.5 96.5 0 1 1 193 0 96.5 96.5 0 0 1-193 0z"/><mask id="zg38d" width="2" height="2" x="-1" y="-1"><path fill="#fff" d="M399 7293h199v199H399z"/><use xlink:href="#zg38a"/></mask><filter id="zg38c" width="221" height="221" x="388" y="7282" filterUnits="userSpaceOnUse"><feOffset in="SourceGraphic" result="FeOffset1625Out"/><feGaussianBlur in="FeOffset1625Out" result="FeGaussianBlur1626Out" stdDeviation="0.4 0.4"/></filter><mask id="zg38f" width="2" height="2" x="-1" y="-1"><path fill="#fff" d="M402 7296h193v193H402z"/><use xlink:href="#zg38b"/></mask><filter id="zg38e" width="215" height="215" x="391" y="7285" filterUnits="userSpaceOnUse"><feOffset in="SourceGraphic" result="FeOffset1641Out"/><feGaussianBlur in="FeOffset1641Out" result="FeGaussianBlur1642Out" stdDeviation="0.4 0.4"/></filter></defs><g><g transform="translate(-399 -7293)"><g filter="url(#zg38c)"><use fill="none" stroke-opacity=".5" stroke-width="0" mask="url(&quot;#zg38d&quot;)" xlink:href="#zg38a"/><use fill-opacity=".5" xlink:href="#zg38a"/></g><use fill="#333" fill-opacity=".92" xlink:href="#zg38a"/></g><g transform="translate(-399 -7293)"><g filter="url(#zg38e)"><use fill="none" stroke-opacity=".5" stroke-width="0" mask="url(&quot;#zg38f&quot;)" xlink:href="#zg38b"/><use fill-opacity=".5" xlink:href="#zg38b"/></g></g></g></svg>